<?xml version='1.0' encoding='UTF-8'?>
<svg version="1.1" xmlns="http://www.w3.org/2000/svg">
    <g style="stroke:black">
        <line x1="34.32233047" y1="44.67766953" x2="34.32233047" y2="19.67766953"/>
        <line x1="2.0" y1="87.35533906" x2="27.0" y2="87.35533906"/>
        <line x1="2.0" y1="12.35533906" x2="27.0" y2="12.35533906"/>
        <line x1="34.32233047" y1="19.67766953" x2="52.0" y2="2.0"/>
        <line x1="27.0" y1="12.35533906" x2="27.0" y2="37.35533906"/>
        <line x1="52.0" y1="2.0" x2="77.0" y2="2.0"/>
        <line x1="27.0" y1="37.35533906" x2="2.0" y2="37.35533906"/>
        <line x1="77.0" y1="2.0" x2="94.67766953" y2="19.67766953"/>
        <line x1="27.0" y1="87.35533906" x2="52.0" y2="87.35533906"/>
        <line x1="27.0" y1="87.35533906" x2="27.0" y2="62.35533906"/>
        <line x1="2.0" y1="37.35533906" x2="2.0" y2="12.35533906"/>
        <line x1="2.0" y1="37.35533906" x2="2.0" y2="62.35533906"/>
        <line x1="52.0" y1="87.35533906" x2="77.0" y2="87.35533906"/>
        <line x1="52.0" y1="87.35533906" x2="52.0" y2="62.35533906"/>
        <line x1="52.0" y1="62.35533906" x2="34.32233047" y2="44.67766953"/>
        <line x1="52.0" y1="62.35533906" x2="27.0" y2="62.35533906"/>
        <line x1="94.67766953" y1="19.67766953" x2="94.67766953" y2="44.67766953"/>
        <line x1="77.0" y1="87.35533906" x2="77.0" y2="62.35533906"/>
        <line x1="94.67766953" y1="44.67766953" x2="77.0" y2="62.35533906"/>
        <line x1="2.0" y1="62.35533906" x2="2.0" y2="87.35533906"/>
        <line x1="2.0" y1="62.35533906" x2="27.0" y2="62.35533906"/>
        <line x1="77.0" y1="62.35533906" x2="52.0" y2="62.35533906"/>
        <line x1="27.0" y1="62.35533906" x2="27.0" y2="37.35533906"/>
        <line x1="27.0" y1="12.35533906" x2="52.0" y2="12.35533906"/>
        <line x1="52.0" y1="12.35533906" x2="52.0" y2="37.35533906"/>
        <line x1="27.0" y1="37.35533906" x2="52.0" y2="37.35533906"/>
    </g>
    <g>
        <g style="fill:goldenrod">
            <polygon
                    style="stroke:none" points="2.0,37.35533906 2.0,12.35533906 27.0,12.35533906 27.0,37.35533906">
            </polygon>
            <polygon
                    style="stroke:none" points="52.0,37.35533906 52.0,12.35533906 27.0,12.35533906 27.0,37.35533906">
            </polygon>
            <polygon
                    style="stroke:none" points="52.0,87.35533906 52.0,62.35533906 77.0,62.35533906 77.0,87.35533906">
            </polygon>
            <polygon
                    style="stroke:none" points="52.0,87.35533906 27.0,87.35533906 27.0,62.35533906 52.0,62.35533906">
            </polygon>
            <polygon
                    style="stroke:none" points="2.0,62.35533906 27.0,62.35533906 27.0,87.35533906 2.0,87.35533906">
            </polygon>
            <polygon
                    style="stroke:none" points="27.0,62.35533906 2.0,62.35533906 2.0,37.35533906 27.0,37.35533906">
            </polygon>
        </g>
        <g style="fill:coral">
            <polygon
                    style="stroke:none"
                    points="52.0,62.35533906 34.32233047,44.67766953 34.32233047,19.67766953 52.0,2.0 77.0,2.0 94.67766953,19.67766953 94.67766953,44.67766953 77.0,62.35533906">
            </polygon>
        </g>
    </g>
    <polygon
            style="fill:none;stroke:blue;stroke-width:2"
            points="2.0,12.35533906 27.0,12.35533906 52.0,12.35533906 52.0,37.35533906 27.0,37.35533906 27.0,62.35533906 52.0,62.35533906 34.32233047,44.67766953 34.32233047,19.67766953 52.0,2.0 77.0,2.0 94.67766953,19.67766953 94.67766953,44.67766953 77.0,62.35533906 77.0,87.35533906 52.0,87.35533906 27.0,87.35533906 2.0,87.35533906 2.0,62.35533906 2.0,37.35533906">
    </polygon>
    <g style="fill:red">
        <text x="24.0" y="89.85533906">10</text>
        <text x="74.0" y="64.85533906">14</text>
        <text x="91.67766953" y="47.17766953">20</text>
        <text x="-1.0" y="14.85533906">1</text>
        <text x="-1.0" y="89.85533906">9</text>
        <text x="74.0" y="89.85533906">13</text>
        <text x="24.0" y="14.85533906">2</text>
        <text x="49.0" y="14.85533906">5</text>
        <text x="49.0" y="4.5">17</text>
        <text x="49.0" y="64.85533906">12</text>
        <text x="-1.0" y="64.85533906">7</text>
        <text x="24.0" y="39.85533906">3</text>
        <text x="49.0" y="39.85533906">6</text>
        <text x="74.0" y="4.5">18</text>
        <text x="31.32233047" y="22.17766953">16</text>
        <text x="49.0" y="89.85533906">11</text>
        <text x="24.0" y="64.85533906">8</text>
        <text x="91.67766953" y="22.17766953">19</text>
        <text x="-1.0" y="39.85533906">4</text>
        <text x="31.32233047" y="47.17766953">15</text>
    </g>
</svg>