<?xml version='1.0' encoding='UTF-8'?>
<svg version="1.1" xmlns="http://www.w3.org/2000/svg">
    <g style="stroke:black">
        <line x1="50.77641291" y1="59.72542486" x2="65.47104421" y2="39.5"/>
        <line x1="2.0" y1="2.0" x2="27.0" y2="2.0"/>
        <line x1="27.0" y1="2.0" x2="27.0" y2="27.0"/>
        <line x1="27.0" y1="27.0" x2="2.0" y2="27.0"/>
        <line x1="65.47104421" y1="39.5" x2="50.77641291" y2="19.27457514"/>
        <line x1="2.0" y1="52.0" x2="27.0" y2="52.0"/>
        <line x1="2.0" y1="27.0" x2="2.0" y2="2.0"/>
        <line x1="2.0" y1="27.0" x2="2.0" y2="52.0"/>
        <line x1="50.77641291" y1="19.27457514" x2="27.0" y2="27.0"/>
        <line x1="27.0" y1="52.0" x2="27.0" y2="27.0"/>
        <line x1="27.0" y1="52.0" x2="50.77641291" y2="59.72542486"/>
        <line x1="27.0" y1="2.0" x2="52.0" y2="2.0"/>
        <line x1="52.0" y1="2.0" x2="52.0" y2="27.0"/>
        <line x1="27.0" y1="27.0" x2="52.0" y2="27.0"/>
    </g>
    <g>
        <g style="fill:goldenrod">
            <polygon style="stroke:none" points="2.0,27.0 2.0,2.0 27.0,2.0 27.0,27.0"/>
            <polygon style="stroke:none" points="52.0,27.0 52.0,2.0 27.0,2.0 27.0,27.0"/>
            <polygon style="stroke:none" points="27.0,52.0 2.0,52.0 2.0,27.0 27.0,27.0"/>
        </g>
        <g style="fill:hotpink">
            <polygon
                    style="stroke:none"
                    points="65.47104421,39.5 50.77641291,59.72542486 27.0,52.0 27.0,27.0 50.77641291,19.27457514">
            </polygon>
        </g>
    </g>
    <polygon
            style="fill:none;stroke:blue;stroke-width:2"
            points="2.0,2.0 27.0,2.0 52.0,2.0 52.0,27.0 27.0,27.0 50.77641291,19.27457514 65.47104421,39.5 50.77641291,59.72542486 27.0,52.0 2.0,52.0 2.0,27.0">
    </polygon>
    <g style="fill:red">
        <text x="62.47104421" y="42.0">10</text>
        <text x="-1.0" y="4.5">1</text>
        <text x="47.77641291" y="62.22542486">9</text>
        <text x="24.0" y="4.5">2</text>
        <text x="49.0" y="4.5">5</text>
        <text x="49.0" y="29.5">6</text>
        <text x="-1.0" y="54.5">7</text>
        <text x="24.0" y="29.5">3</text>
        <text x="47.77641291" y="21.77457514">11</text>
        <text x="24.0" y="54.5">8</text>
        <text x="-1.0" y="29.5">4</text>
    </g>
</svg>