<?xml version='1.0' encoding='UTF-8'?>
<svg version="1.1" xmlns="http://www.w3.org/2000/svg">
  <g style="stroke:black">
    <line x1="39.5" y1="52.0" x2="27.0" y2="52.0"/>
    <line x1="2.0" y1="2.0" x2="27.0" y2="2.0"/>
    <line x1="52.0" y1="2.0" x2="52.0" y2="27.0"/>
    <line x1="27.0" y1="2.0" x2="27.0" y2="27.0"/>
    <line x1="27.0" y1="2.0" x2="52.0" y2="2.0"/>
    <line x1="52.0" y1="27.0" x2="27.0" y2="27.0"/>
    <line x1="52.0" y1="27.0" x2="52.0" y2="39.5"/>
    <line x1="27.0" y1="27.0" x2="2.0" y2="27.0"/>
    <line x1="2.0" y1="52.0" x2="27.0" y2="52.0"/>
    <line x1="2.0" y1="27.0" x2="2.0" y2="2.0"/>
    <line x1="2.0" y1="27.0" x2="2.0" y2="52.0"/>
    <line x1="27.0" y1="52.0" x2="27.0" y2="27.0"/>
    <line x1="39.5" y1="52.0" x2="52.0" y2="39.5"/>
  </g>
  <g>
    <g style="fill:goldenrod">
      <!--<polygon style="stroke:none" points="52.0,27.0 52.0,52.0 27.0,52.0 27.0,27.0"/>-->
      <polygon style="stroke:none" points="27.0,2.0 52.0,2.0 52.0,27.0 27.0,27.0"/>
      <polygon style="stroke:none" points="2.0,27.0 2.0,2.0 27.0,2.0 27.0,27.0"/>
      <polygon style="stroke:none" points="27.0,52.0 2.0,52.0 2.0,27.0 27.0,27.0"/>
    </g>
    <g style="fill:hotpink">
      <polygon
              style="stroke:none" points="27.0,27.0 27.0,52.0 39.5,52.0 52.0,39.5 52.0,27.0">
      </polygon>
    </g>
  </g>
  <polygon
          style="fill:none;stroke:blue;stroke-width:2" points="2.0,2.0 27.0,2.0 52.0,2.0 52.0,27.0 52.0,39.5 39.5,52.0 27.0,52.0 2.0,52.0 2.0,27.0">
  </polygon>
  <g style="fill:red">
    <text x="49.0" y="4.5">5</text>
    <text x="-1.0" y="4.5">1</text>
    <text x="49.0" y="29.5">6</text>
    <text x="36.5" y="54.5">9</text>
    <text x="49.0" y="42.0">10</text>
    <text x="24.0" y="4.5">2</text>
    <text x="-1.0" y="54.5">7</text>
    <text x="24.0" y="29.5">3</text>
    <text x="24.0" y="54.5">8</text>
    <text x="-1.0" y="29.5">4</text>
  </g>
</svg>