<?xml version='1.0' encoding='UTF-8'?>
<svg version="1.1" xmlns="http://www.w3.org/2000/svg">
    <g style="stroke:black">
        <line x1="95.30127019" y1="102.0" x2="95.30127019" y2="77.0"/>
        <line x1="2.0" y1="102.0" x2="27.0" y2="102.0"/>
        <line x1="2.0" y1="27.0" x2="27.0" y2="27.0"/>
        <line x1="95.30127019" y1="77.0" x2="70.30127019" y2="77.0"/>
        <line x1="95.30127019" y1="77.0" x2="95.30127019" y2="52.0"/>
        <line x1="27.0" y1="27.0" x2="27.0" y2="52.0"/>
        <line x1="27.0" y1="27.0" x2="52.0" y2="27.0"/>
        <line x1="70.30127019" y1="52.0" x2="70.30127019" y2="77.0"/>
        <line x1="27.0" y1="52.0" x2="2.0" y2="52.0"/>
        <line x1="95.30127019" y1="52.0" x2="95.30127019" y2="27.0"/>
        <line x1="95.30127019" y1="52.0" x2="70.30127019" y2="52.0"/>
        <line x1="27.0" y1="102.0" x2="48.65063509" y2="114.5"/>
        <line x1="27.0" y1="102.0" x2="27.0" y2="77.0"/>
        <line x1="2.0" y1="52.0" x2="2.0" y2="27.0"/>
        <line x1="2.0" y1="52.0" x2="2.0" y2="77.0"/>
        <line x1="48.65063509" y1="114.5" x2="70.30127019" y2="102.0"/>
        <line x1="70.30127019" y1="102.0" x2="70.30127019" y2="77.0"/>
        <line x1="70.30127019" y1="102.0" x2="95.30127019" y2="102.0"/>
        <line x1="70.30127019" y1="27.0" x2="70.30127019" y2="52.0"/>
        <line x1="70.30127019" y1="77.0" x2="48.65063509" y2="64.5"/>
        <line x1="52.0" y1="27.0" x2="52.0" y2="52.0"/>
        <line x1="95.30127019" y1="27.0" x2="95.30127019" y2="2.0"/>
        <line x1="95.30127019" y1="27.0" x2="70.30127019" y2="27.0"/>
        <line x1="52.0" y1="52.0" x2="27.0" y2="52.0"/>
        <line x1="70.30127019" y1="2.0" x2="70.30127019" y2="27.0"/>
        <line x1="2.0" y1="77.0" x2="2.0" y2="102.0"/>
        <line x1="2.0" y1="77.0" x2="27.0" y2="77.0"/>
        <line x1="95.30127019" y1="2.0" x2="70.30127019" y2="2.0"/>
        <line x1="48.65063509" y1="64.5" x2="27.0" y2="77.0"/>
        <line x1="27.0" y1="77.0" x2="27.0" y2="52.0"/>
        <line x1="45.30127019" y1="2.0" x2="45.30127019" y2="27.0"/>
        <line x1="45.30127019" y1="2.0" x2="70.30127019" y2="2.0"/>
        <line x1="45.30127019" y1="27.0" x2="70.30127019" y2="27.0"/>
    </g>
    <g>
        <g style="fill:goldenrod">
            <polygon style="stroke:none" points="27.0,27.0 52.0,27.0 52.0,52.0 27.0,52.0"/>
            <polygon style="stroke:none" points="2.0,52.0 2.0,27.0 27.0,27.0 27.0,52.0"/>
            <polygon style="stroke:none" points="27.0,77.0 2.0,77.0 2.0,52.0 27.0,52.0"/>
            <polygon style="stroke:none" points="27.0,102.0 2.0,102.0 2.0,77.0 27.0,77.0"/>
            <polygon
                    style="stroke:none" points="95.30127019,77.0 95.30127019,102.0 70.30127019,102.0 70.30127019,77.0">
            </polygon>
            <polygon
                    style="stroke:none" points="95.30127019,52.0 95.30127019,77.0 70.30127019,77.0 70.30127019,52.0">
            </polygon>
            <polygon
                    style="stroke:none" points="70.30127019,27.0 95.30127019,27.0 95.30127019,52.0 70.30127019,52.0">
            </polygon>
            <polygon
                    style="stroke:none" points="70.30127019,2.0 95.30127019,2.0 95.30127019,27.0 70.30127019,27.0">
            </polygon>
            <polygon
                    style="stroke:none" points="45.30127019,2.0 70.30127019,2.0 70.30127019,27.0 45.30127019,27.0">
            </polygon>
        </g>
        <g style="fill:grey">
            <polygon
                    style="stroke:none"
                    points="48.65063509,114.5 27.0,102.0 27.0,77.0 48.65063509,64.5 70.30127019,77.0 70.30127019,102.0">
            </polygon>
        </g>
    </g>
    <polygon
            style="fill:none;stroke:blue;stroke-width:2"
            points="2.0,27.0 27.0,27.0 52.0,27.0 52.0,52.0 27.0,52.0 27.0,77.0 48.65063509,64.5 70.30127019,77.0 70.30127019,52.0 70.30127019,27.0 45.30127019,27.0 45.30127019,2.0 70.30127019,2.0 95.30127019,2.0 95.30127019,27.0 95.30127019,52.0 95.30127019,77.0 95.30127019,102.0 70.30127019,102.0 48.65063509,114.5 27.0,102.0 2.0,102.0 2.0,77.0 2.0,52.0">
    </polygon>
    <g style="fill:red">
        <text x="49.0" y="29.5">5</text>
        <text x="24.0" y="104.5">10</text>
        <text x="45.65063509" y="67.0">14</text>
        <text x="92.30127019" y="29.5">20</text>
        <text x="-1.0" y="29.5">1</text>
        <text x="49.0" y="54.5">6</text>
        <text x="67.30127019" y="4.5">21</text>
        <text x="42.30127019" y="4.5">23</text>
        <text x="-1.0" y="104.5">9</text>
        <text x="67.30127019" y="79.5">13</text>
        <text x="24.0" y="29.5">2</text>
        <text x="67.30127019" y="54.5">17</text>
        <text x="92.30127019" y="4.5">22</text>
        <text x="67.30127019" y="104.5">12</text>
        <text x="-1.0" y="79.5">7</text>
        <text x="24.0" y="54.5">3</text>
        <text x="92.30127019" y="54.5">18</text>
        <text x="92.30127019" y="79.5">16</text>
        <text x="45.65063509" y="117.0">11</text>
        <text x="24.0" y="79.5">8</text>
        <text x="67.30127019" y="29.5">19</text>
        <text x="42.30127019" y="29.5">24</text>
        <text x="-1.0" y="54.5">4</text>
        <text x="92.30127019" y="104.5">15</text>
    </g>
</svg>