<?xml version='1.0' encoding='UTF-8'?>
<svg version="1.1" xmlns="http://www.w3.org/2000/svg">
  <g style="stroke:black">
    <line x1="2.0" y1="62.35533906" x2="2.0" y2="87.35533906"/>
    <line x1="2.0" y1="62.35533906" x2="19.67766953" y2="44.67766953"/>
    <line x1="2.0" y1="87.35533906" x2="19.67766953" y2="105.03300859"/>
    <line x1="2.0" y1="147.71067812" x2="2.0" y2="172.71067812"/>
    <line x1="2.0" y1="147.71067812" x2="19.67766953" y2="130.03300859"/>
    <line x1="2.0" y1="172.71067812" x2="19.67766953" y2="190.38834765"/>
    <line x1="2.0" y1="233.06601718" x2="2.0" y2="258.06601718"/>
    <line x1="2.0" y1="233.06601718" x2="19.67766953" y2="215.38834765"/>
    <line x1="2.0" y1="258.06601718" x2="19.67766953" y2="275.74368671"/>
    <line x1="19.67766953" y1="44.67766953" x2="44.67766953" y2="44.67766953"/>
    <line x1="19.67766953" y1="105.03300859" x2="19.67766953" y2="130.03300859"/>
    <line x1="19.67766953" y1="105.03300859" x2="44.67766953" y2="105.03300859"/>
    <line x1="19.67766953" y1="130.03300859" x2="44.67766953" y2="130.03300859"/>
    <line x1="19.67766953" y1="190.38834765" x2="19.67766953" y2="215.38834765"/>
    <line x1="19.67766953" y1="190.38834765" x2="44.67766953" y2="190.38834765"/>
    <line x1="19.67766953" y1="215.38834765" x2="44.67766953" y2="215.38834765"/>
    <line x1="19.67766953" y1="275.74368671" x2="44.67766953" y2="275.74368671"/>
    <line x1="44.67766953" y1="19.67766953" x2="44.67766953" y2="44.67766953"/>
    <line x1="44.67766953" y1="19.67766953" x2="62.35533906" y2="2.0"/>
    <line x1="44.67766953" y1="44.67766953" x2="62.35533906" y2="62.35533906"/>
    <line x1="44.67766953" y1="105.03300859" x2="44.67766953" y2="130.03300859"/>
    <line x1="44.67766953" y1="105.03300859" x2="62.35533906" y2="87.35533906"/>
    <line x1="44.67766953" y1="130.03300859" x2="62.35533906" y2="147.71067812"/>
    <line x1="44.67766953" y1="190.38834765" x2="44.67766953" y2="215.38834765"/>
    <line x1="44.67766953" y1="190.38834765" x2="62.35533906" y2="172.71067812"/>
    <line x1="44.67766953" y1="215.38834765" x2="62.35533906" y2="233.06601718"/>
    <line x1="44.67766953" y1="275.74368671" x2="62.35533906" y2="258.06601718"/>
    <line x1="62.35533906" y1="2.0" x2="87.35533906" y2="2.0"/>
    <line x1="62.35533906" y1="62.35533906" x2="62.35533906" y2="87.35533906"/>
    <line x1="62.35533906" y1="62.35533906" x2="87.35533906" y2="62.35533906"/>
    <line x1="62.35533906" y1="87.35533906" x2="87.35533906" y2="87.35533906"/>
    <line x1="62.35533906" y1="147.71067812" x2="62.35533906" y2="172.71067812"/>
    <line x1="62.35533906" y1="147.71067812" x2="87.35533906" y2="147.71067812"/>
    <line x1="62.35533906" y1="172.71067812" x2="87.35533906" y2="172.71067812"/>
    <line x1="62.35533906" y1="233.06601718" x2="62.35533906" y2="258.06601718"/>
    <line x1="62.35533906" y1="233.06601718" x2="87.35533906" y2="233.06601718"/>
    <line x1="62.35533906" y1="258.06601718" x2="87.35533906" y2="258.06601718"/>
    <line x1="87.35533906" y1="2.0" x2="105.03300859" y2="19.67766953"/>
    <line x1="87.35533906" y1="62.35533906" x2="87.35533906" y2="87.35533906"/>
    <line x1="87.35533906" y1="62.35533906" x2="105.03300859" y2="44.67766953"/>
    <line x1="87.35533906" y1="87.35533906" x2="105.03300859" y2="105.03300859"/>
    <line x1="87.35533906" y1="147.71067812" x2="87.35533906" y2="172.71067812"/>
    <line x1="87.35533906" y1="147.71067812" x2="105.03300859" y2="130.03300859"/>
    <line x1="87.35533906" y1="172.71067812" x2="105.03300859" y2="190.38834765"/>
    <line x1="87.35533906" y1="233.06601718" x2="87.35533906" y2="258.06601718"/>
    <line x1="87.35533906" y1="233.06601718" x2="105.03300859" y2="215.38834765"/>
    <line x1="87.35533906" y1="258.06601718" x2="105.03300859" y2="275.74368671"/>
    <line x1="105.03300859" y1="19.67766953" x2="105.03300859" y2="44.67766953"/>
    <line x1="105.03300859" y1="19.67766953" x2="130.03300859" y2="19.67766953"/>
    <line x1="105.03300859" y1="44.67766953" x2="130.03300859" y2="44.67766953"/>
    <line x1="105.03300859" y1="105.03300859" x2="105.03300859" y2="130.03300859"/>
    <line x1="105.03300859" y1="105.03300859" x2="130.03300859" y2="105.03300859"/>
    <line x1="105.03300859" y1="130.03300859" x2="130.03300859" y2="130.03300859"/>
    <line x1="105.03300859" y1="190.38834765" x2="105.03300859" y2="215.38834765"/>
    <line x1="105.03300859" y1="190.38834765" x2="130.03300859" y2="190.38834765"/>
    <line x1="105.03300859" y1="215.38834765" x2="130.03300859" y2="215.38834765"/>
    <line x1="105.03300859" y1="275.74368671" x2="130.03300859" y2="275.74368671"/>
    <line x1="130.03300859" y1="19.67766953" x2="130.03300859" y2="44.67766953"/>
    <line x1="130.03300859" y1="44.67766953" x2="147.71067812" y2="62.35533906"/>
    <line x1="130.03300859" y1="105.03300859" x2="130.03300859" y2="130.03300859"/>
    <line x1="130.03300859" y1="105.03300859" x2="147.71067812" y2="87.35533906"/>
    <line x1="130.03300859" y1="130.03300859" x2="147.71067812" y2="147.71067812"/>
    <line x1="130.03300859" y1="190.38834765" x2="130.03300859" y2="215.38834765"/>
    <line x1="130.03300859" y1="190.38834765" x2="147.71067812" y2="172.71067812"/>
    <line x1="130.03300859" y1="215.38834765" x2="147.71067812" y2="233.06601718"/>
    <line x1="130.03300859" y1="275.74368671" x2="147.71067812" y2="258.06601718"/>
    <line x1="147.71067812" y1="62.35533906" x2="147.71067812" y2="87.35533906"/>
    <line x1="147.71067812" y1="62.35533906" x2="172.71067812" y2="62.35533906"/>
    <line x1="147.71067812" y1="87.35533906" x2="172.71067812" y2="87.35533906"/>
    <line x1="147.71067812" y1="147.71067812" x2="147.71067812" y2="172.71067812"/>
    <line x1="147.71067812" y1="147.71067812" x2="172.71067812" y2="147.71067812"/>
    <line x1="147.71067812" y1="172.71067812" x2="172.71067812" y2="172.71067812"/>
    <line x1="147.71067812" y1="233.06601718" x2="147.71067812" y2="258.06601718"/>
    <line x1="147.71067812" y1="233.06601718" x2="172.71067812" y2="233.06601718"/>
    <line x1="147.71067812" y1="258.06601718" x2="172.71067812" y2="258.06601718"/>
    <line x1="172.71067812" y1="62.35533906" x2="172.71067812" y2="87.35533906"/>
    <line x1="172.71067812" y1="62.35533906" x2="190.38834765" y2="44.67766953"/>
    <line x1="172.71067812" y1="87.35533906" x2="190.38834765" y2="105.03300859"/>
    <line x1="172.71067812" y1="147.71067812" x2="172.71067812" y2="172.71067812"/>
    <line x1="172.71067812" y1="147.71067812" x2="190.38834765" y2="130.03300859"/>
    <line x1="172.71067812" y1="172.71067812" x2="190.38834765" y2="190.38834765"/>
    <line x1="172.71067812" y1="233.06601718" x2="172.71067812" y2="258.06601718"/>
    <line x1="172.71067812" y1="233.06601718" x2="190.38834765" y2="215.38834765"/>
    <line x1="172.71067812" y1="258.06601718" x2="190.38834765" y2="275.74368671"/>
    <line x1="190.38834765" y1="44.67766953" x2="215.38834765" y2="44.67766953"/>
    <line x1="190.38834765" y1="105.03300859" x2="190.38834765" y2="130.03300859"/>
    <line x1="190.38834765" y1="105.03300859" x2="215.38834765" y2="105.03300859"/>
    <line x1="190.38834765" y1="130.03300859" x2="215.38834765" y2="130.03300859"/>
    <line x1="190.38834765" y1="190.38834765" x2="190.38834765" y2="215.38834765"/>
    <line x1="190.38834765" y1="190.38834765" x2="215.38834765" y2="190.38834765"/>
    <line x1="190.38834765" y1="215.38834765" x2="215.38834765" y2="215.38834765"/>
    <line x1="190.38834765" y1="275.74368671" x2="215.38834765" y2="275.74368671"/>
    <line x1="215.38834765" y1="44.67766953" x2="233.06601718" y2="62.35533906"/>
    <line x1="215.38834765" y1="105.03300859" x2="215.38834765" y2="130.03300859"/>
    <line x1="215.38834765" y1="105.03300859" x2="233.06601718" y2="87.35533906"/>
    <line x1="215.38834765" y1="130.03300859" x2="233.06601718" y2="147.71067812"/>
    <line x1="215.38834765" y1="190.38834765" x2="215.38834765" y2="215.38834765"/>
    <line x1="215.38834765" y1="190.38834765" x2="233.06601718" y2="172.71067812"/>
    <line x1="215.38834765" y1="215.38834765" x2="233.06601718" y2="233.06601718"/>
    <line x1="215.38834765" y1="275.74368671" x2="233.06601718" y2="258.06601718"/>
    <line x1="233.06601718" y1="62.35533906" x2="233.06601718" y2="87.35533906"/>
    <line x1="233.06601718" y1="87.35533906" x2="258.06601718" y2="87.35533906"/>
    <line x1="233.06601718" y1="147.71067812" x2="233.06601718" y2="172.71067812"/>
    <line x1="233.06601718" y1="147.71067812" x2="258.06601718" y2="147.71067812"/>
    <line x1="233.06601718" y1="172.71067812" x2="258.06601718" y2="172.71067812"/>
    <line x1="233.06601718" y1="233.06601718" x2="233.06601718" y2="258.06601718"/>
    <line x1="233.06601718" y1="233.06601718" x2="258.06601718" y2="233.06601718"/>
    <line x1="258.06601718" y1="87.35533906" x2="275.74368671" y2="105.03300859"/>
    <line x1="258.06601718" y1="147.71067812" x2="258.06601718" y2="172.71067812"/>
    <line x1="258.06601718" y1="147.71067812" x2="275.74368671" y2="130.03300859"/>
    <line x1="258.06601718" y1="172.71067812" x2="275.74368671" y2="190.38834765"/>
    <line x1="258.06601718" y1="233.06601718" x2="275.74368671" y2="215.38834765"/>
    <line x1="275.74368671" y1="105.03300859" x2="275.74368671" y2="130.03300859"/>
    <line x1="275.74368671" y1="190.38834765" x2="275.74368671" y2="215.38834765"/>
  </g>
  <g>
    <g style="fill:coral">
      <polygon 
      style="stroke:none" points="19.67766953,275.74368671 2.0,258.06601718 2.0,233.06601718 19.67766953,215.38834765 44.67766953,215.38834765 62.35533906,233.06601718 62.35533906,258.06601718 44.67766953,275.74368671">
</polygon>
      <polygon 
      style="stroke:none" points="62.35533906,2.0 87.35533906,2.0 105.03300859,19.67766953 105.03300859,44.67766953 87.35533906,62.35533906 62.35533906,62.35533906 44.67766953,44.67766953 44.67766953,19.67766953">
</polygon>
      <polygon 
      style="stroke:none" points="258.06601718,172.71067812 275.74368671,190.38834765 275.74368671,215.38834765 258.06601718,233.06601718 233.06601718,233.06601718 215.38834765,215.38834765 215.38834765,190.38834765 233.06601718,172.71067812">
</polygon>
      <polygon 
      style="stroke:none" points="233.06601718,147.71067812 233.06601718,172.71067812 215.38834765,190.38834765 190.38834765,190.38834765 172.71067812,172.71067812 172.71067812,147.71067812 190.38834765,130.03300859 215.38834765,130.03300859">
</polygon>
      <polygon 
      style="stroke:none" points="215.38834765,130.03300859 215.38834765,105.03300859 233.06601718,87.35533906 258.06601718,87.35533906 275.74368671,105.03300859 275.74368671,130.03300859 258.06601718,147.71067812 233.06601718,147.71067812">
</polygon>
      <polygon 
      style="stroke:none" points="233.06601718,62.35533906 233.06601718,87.35533906 215.38834765,105.03300859 190.38834765,105.03300859 172.71067812,87.35533906 172.71067812,62.35533906 190.38834765,44.67766953 215.38834765,44.67766953">
</polygon>
      <polygon 
      style="stroke:none" points="190.38834765,105.03300859 190.38834765,130.03300859 172.71067812,147.71067812 147.71067812,147.71067812 130.03300859,130.03300859 130.03300859,105.03300859 147.71067812,87.35533906 172.71067812,87.35533906">
</polygon>
      <polygon 
      style="stroke:none" points="147.71067812,172.71067812 130.03300859,190.38834765 105.03300859,190.38834765 87.35533906,172.71067812 87.35533906,147.71067812 105.03300859,130.03300859 130.03300859,130.03300859 147.71067812,147.71067812">
</polygon>
      <polygon 
      style="stroke:none" points="147.71067812,172.71067812 172.71067812,172.71067812 190.38834765,190.38834765 190.38834765,215.38834765 172.71067812,233.06601718 147.71067812,233.06601718 130.03300859,215.38834765 130.03300859,190.38834765">
</polygon>
      <polygon 
      style="stroke:none" points="87.35533906,147.71067812 62.35533906,147.71067812 44.67766953,130.03300859 44.67766953,105.03300859 62.35533906,87.35533906 87.35533906,87.35533906 105.03300859,105.03300859 105.03300859,130.03300859">
</polygon>
      <polygon 
      style="stroke:none" points="87.35533906,62.35533906 105.03300859,44.67766953 130.03300859,44.67766953 147.71067812,62.35533906 147.71067812,87.35533906 130.03300859,105.03300859 105.03300859,105.03300859 87.35533906,87.35533906">
</polygon>
      <polygon 
      style="stroke:none" points="2.0,62.35533906 19.67766953,44.67766953 44.67766953,44.67766953 62.35533906,62.35533906 62.35533906,87.35533906 44.67766953,105.03300859 19.67766953,105.03300859 2.0,87.35533906">
</polygon>
      <polygon 
      style="stroke:none" points="44.67766953,130.03300859 62.35533906,147.71067812 62.35533906,172.71067812 44.67766953,190.38834765 19.67766953,190.38834765 2.0,172.71067812 2.0,147.71067812 19.67766953,130.03300859">
</polygon>
      <polygon 
      style="stroke:none" points="215.38834765,215.38834765 233.06601718,233.06601718 233.06601718,258.06601718 215.38834765,275.74368671 190.38834765,275.74368671 172.71067812,258.06601718 172.71067812,233.06601718 190.38834765,215.38834765">
</polygon>
      <polygon 
      style="stroke:none" points="130.03300859,275.74368671 105.03300859,275.74368671 87.35533906,258.06601718 87.35533906,233.06601718 105.03300859,215.38834765 130.03300859,215.38834765 147.71067812,233.06601718 147.71067812,258.06601718">
</polygon>
      <polygon 
      style="stroke:none" points="44.67766953,190.38834765 62.35533906,172.71067812 87.35533906,172.71067812 105.03300859,190.38834765 105.03300859,215.38834765 87.35533906,233.06601718 62.35533906,233.06601718 44.67766953,215.38834765">
</polygon>
    </g>
    <g style="fill:goldenrod">
      <polygon 
      style="stroke:none" points="233.06601718,172.71067812 233.06601718,147.71067812 258.06601718,147.71067812 258.06601718,172.71067812">
</polygon>
      <polygon 
      style="stroke:none" points="190.38834765,130.03300859 190.38834765,105.03300859 215.38834765,105.03300859 215.38834765,130.03300859">
</polygon>
      <polygon 
      style="stroke:none" points="147.71067812,147.71067812 172.71067812,147.71067812 172.71067812,172.71067812 147.71067812,172.71067812">
</polygon>
      <polygon 
      style="stroke:none" points="130.03300859,105.03300859 130.03300859,130.03300859 105.03300859,130.03300859 105.03300859,105.03300859">
</polygon>
      <polygon 
      style="stroke:none" points="147.71067812,62.35533906 172.71067812,62.35533906 172.71067812,87.35533906 147.71067812,87.35533906">
</polygon>
      <polygon 
      style="stroke:none" points="130.03300859,19.67766953 130.03300859,44.67766953 105.03300859,44.67766953 105.03300859,19.67766953">
</polygon>
      <polygon 
      style="stroke:none" points="62.35533906,62.35533906 87.35533906,62.35533906 87.35533906,87.35533906 62.35533906,87.35533906">
</polygon>
      <polygon 
      style="stroke:none" points="44.67766953,105.03300859 44.67766953,130.03300859 19.67766953,130.03300859 19.67766953,105.03300859">
</polygon>
      <polygon 
      style="stroke:none" points="87.35533906,147.71067812 87.35533906,172.71067812 62.35533906,172.71067812 62.35533906,147.71067812">
</polygon>
      <polygon 
      style="stroke:none" points="215.38834765,215.38834765 190.38834765,215.38834765 190.38834765,190.38834765 215.38834765,190.38834765">
</polygon>
      <polygon 
      style="stroke:none" points="147.71067812,258.06601718 147.71067812,233.06601718 172.71067812,233.06601718 172.71067812,258.06601718">
</polygon>
      <polygon 
      style="stroke:none" points="19.67766953,190.38834765 44.67766953,190.38834765 44.67766953,215.38834765 19.67766953,215.38834765">
</polygon>
      <polygon 
      style="stroke:none" points="87.35533906,233.06601718 87.35533906,258.06601718 62.35533906,258.06601718 62.35533906,233.06601718">
</polygon>
      <polygon 
      style="stroke:none" points="130.03300859,215.38834765 105.03300859,215.38834765 105.03300859,190.38834765 130.03300859,190.38834765">
</polygon>
    </g>
  </g>
</svg>