<?xml version='1.0' encoding='UTF-8'?>
<svg version="1.1" xmlns="http://www.w3.org/2000/svg">
  <g style="stroke:black">
    <line x1="2.0" y1="2.0" x2="2.0" y2="27.0"/>
    <line x1="2.0" y1="2.0" x2="27.0" y2="2.0"/>
    <line x1="2.0" y1="27.0" x2="2.0" y2="52.0"/>
    <line x1="2.0" y1="27.0" x2="27.0" y2="27.0"/>
    <line x1="2.0" y1="52.0" x2="2.0" y2="77.0"/>
    <line x1="2.0" y1="52.0" x2="27.0" y2="52.0"/>
    <line x1="2.0" y1="77.0" x2="2.0" y2="102.0"/>
    <line x1="2.0" y1="77.0" x2="27.0" y2="77.0"/>
    <line x1="2.0" y1="102.0" x2="2.0" y2="127.0"/>
    <line x1="2.0" y1="102.0" x2="27.0" y2="102.0"/>
    <line x1="2.0" y1="127.0" x2="27.0" y2="127.0"/>
    <line x1="27.0" y1="2.0" x2="27.0" y2="27.0"/>
    <line x1="27.0" y1="2.0" x2="52.0" y2="2.0"/>
    <line x1="27.0" y1="27.0" x2="27.0" y2="52.0"/>
    <line x1="27.0" y1="27.0" x2="52.0" y2="27.0"/>
    <line x1="27.0" y1="52.0" x2="27.0" y2="77.0"/>
    <line x1="27.0" y1="52.0" x2="52.0" y2="52.0"/>
    <line x1="27.0" y1="77.0" x2="27.0" y2="102.0"/>
    <line x1="27.0" y1="77.0" x2="52.0" y2="77.0"/>
    <line x1="27.0" y1="102.0" x2="27.0" y2="127.0"/>
    <line x1="27.0" y1="102.0" x2="52.0" y2="102.0"/>
    <line x1="27.0" y1="127.0" x2="52.0" y2="127.0"/>
    <line x1="52.0" y1="2.0" x2="52.0" y2="27.0"/>
    <line x1="52.0" y1="2.0" x2="77.0" y2="2.0"/>
    <line x1="52.0" y1="27.0" x2="52.0" y2="52.0"/>
    <line x1="52.0" y1="27.0" x2="77.0" y2="27.0"/>
    <line x1="52.0" y1="52.0" x2="52.0" y2="77.0"/>
    <line x1="52.0" y1="52.0" x2="77.0" y2="52.0"/>
    <line x1="52.0" y1="77.0" x2="52.0" y2="102.0"/>
    <line x1="52.0" y1="77.0" x2="77.0" y2="77.0"/>
    <line x1="52.0" y1="102.0" x2="52.0" y2="127.0"/>
    <line x1="52.0" y1="102.0" x2="77.0" y2="102.0"/>
    <line x1="52.0" y1="127.0" x2="77.0" y2="127.0"/>
    <line x1="77.0" y1="2.0" x2="77.0" y2="27.0"/>
    <line x1="77.0" y1="2.0" x2="102.0" y2="2.0"/>
    <line x1="77.0" y1="27.0" x2="77.0" y2="52.0"/>
    <line x1="77.0" y1="27.0" x2="102.0" y2="27.0"/>
    <line x1="77.0" y1="52.0" x2="77.0" y2="77.0"/>
    <line x1="77.0" y1="52.0" x2="102.0" y2="52.0"/>
    <line x1="77.0" y1="77.0" x2="77.0" y2="102.0"/>
    <line x1="77.0" y1="77.0" x2="102.0" y2="77.0"/>
    <line x1="77.0" y1="102.0" x2="77.0" y2="127.0"/>
    <line x1="77.0" y1="102.0" x2="102.0" y2="102.0"/>
    <line x1="77.0" y1="127.0" x2="102.0" y2="127.0"/>
    <line x1="102.0" y1="2.0" x2="102.0" y2="27.0"/>
    <line x1="102.0" y1="2.0" x2="127.0" y2="2.0"/>
    <line x1="102.0" y1="27.0" x2="102.0" y2="52.0"/>
    <line x1="102.0" y1="27.0" x2="127.0" y2="27.0"/>
    <line x1="102.0" y1="52.0" x2="102.0" y2="77.0"/>
    <line x1="102.0" y1="52.0" x2="127.0" y2="52.0"/>
    <line x1="102.0" y1="77.0" x2="102.0" y2="102.0"/>
    <line x1="102.0" y1="77.0" x2="127.0" y2="77.0"/>
    <line x1="102.0" y1="102.0" x2="102.0" y2="127.0"/>
    <line x1="102.0" y1="102.0" x2="127.0" y2="102.0"/>
    <line x1="102.0" y1="127.0" x2="127.0" y2="127.0"/>
    <line x1="127.0" y1="2.0" x2="127.0" y2="27.0"/>
    <line x1="127.0" y1="2.0" x2="152.0" y2="2.0"/>
    <line x1="127.0" y1="27.0" x2="127.0" y2="52.0"/>
    <line x1="127.0" y1="27.0" x2="152.0" y2="27.0"/>
    <line x1="127.0" y1="52.0" x2="127.0" y2="77.0"/>
    <line x1="127.0" y1="52.0" x2="152.0" y2="52.0"/>
    <line x1="127.0" y1="77.0" x2="127.0" y2="102.0"/>
    <line x1="127.0" y1="77.0" x2="152.0" y2="77.0"/>
    <line x1="127.0" y1="102.0" x2="127.0" y2="127.0"/>
    <line x1="127.0" y1="102.0" x2="152.0" y2="102.0"/>
    <line x1="127.0" y1="127.0" x2="152.0" y2="127.0"/>
    <line x1="152.0" y1="2.0" x2="152.0" y2="27.0"/>
    <line x1="152.0" y1="27.0" x2="152.0" y2="52.0"/>
    <line x1="152.0" y1="52.0" x2="152.0" y2="77.0"/>
    <line x1="152.0" y1="77.0" x2="152.0" y2="102.0"/>
    <line x1="152.0" y1="102.0" x2="152.0" y2="127.0"/>
  </g>
  <g>
    <g style="fill:goldenrod">
      <polygon 
      style="stroke:none" points="127.0,2.0 152.0,2.0 152.0,27.0 127.0,27.0">
</polygon>
      <polygon 
      style="stroke:none" points="152.0,102.0 152.0,127.0 127.0,127.0 127.0,102.0">
</polygon>
      <polygon 
      style="stroke:none" points="102.0,127.0 102.0,102.0 127.0,102.0 127.0,127.0">
</polygon>
      <polygon 
      style="stroke:none" points="102.0,102.0 102.0,127.0 77.0,127.0 77.0,102.0">
</polygon>
      <polygon 
      style="stroke:none" points="52.0,127.0 52.0,102.0 77.0,102.0 77.0,127.0">
</polygon>
      <polygon 
      style="stroke:none" points="27.0,127.0 27.0,102.0 52.0,102.0 52.0,127.0">
</polygon>
      <polygon style="stroke:none" points="27.0,2.0 27.0,27.0 2.0,27.0 2.0,2.0"/>
      <polygon 
      style="stroke:none" points="2.0,127.0 2.0,102.0 27.0,102.0 27.0,127.0">
</polygon>
      <polygon style="stroke:none" points="2.0,77.0 27.0,77.0 27.0,102.0 2.0,102.0"/>
      <polygon 
      style="stroke:none" points="52.0,102.0 27.0,102.0 27.0,77.0 52.0,77.0">
</polygon>
      <polygon style="stroke:none" points="2.0,52.0 27.0,52.0 27.0,77.0 2.0,77.0"/>
      <polygon 
      style="stroke:none" points="77.0,102.0 52.0,102.0 52.0,77.0 77.0,77.0">
</polygon>
      <polygon style="stroke:none" points="2.0,27.0 27.0,27.0 27.0,52.0 2.0,52.0"/>
      <polygon style="stroke:none" points="52.0,77.0 27.0,77.0 27.0,52.0 52.0,52.0"/>
      <polygon style="stroke:none" points="52.0,52.0 77.0,52.0 77.0,77.0 52.0,77.0"/>
      <polygon style="stroke:none" points="52.0,52.0 27.0,52.0 27.0,27.0 52.0,27.0"/>
      <polygon style="stroke:none" points="27.0,2.0 52.0,2.0 52.0,27.0 27.0,27.0"/>
      <polygon style="stroke:none" points="52.0,27.0 77.0,27.0 77.0,52.0 52.0,52.0"/>
      <polygon style="stroke:none" points="77.0,2.0 77.0,27.0 52.0,27.0 52.0,2.0"/>
      <polygon 
      style="stroke:none" points="152.0,52.0 127.0,52.0 127.0,27.0 152.0,27.0">
</polygon>
      <polygon 
      style="stroke:none" points="102.0,2.0 127.0,2.0 127.0,27.0 102.0,27.0">
</polygon>
      <polygon 
      style="stroke:none" points="102.0,27.0 127.0,27.0 127.0,52.0 102.0,52.0">
</polygon>
      <polygon style="stroke:none" points="102.0,27.0 77.0,27.0 77.0,2.0 102.0,2.0"/>
      <polygon 
      style="stroke:none" points="102.0,52.0 77.0,52.0 77.0,27.0 102.0,27.0">
</polygon>
      <polygon 
      style="stroke:none" points="77.0,77.0 77.0,52.0 102.0,52.0 102.0,77.0">
</polygon>
      <polygon 
      style="stroke:none" points="127.0,52.0 127.0,77.0 102.0,77.0 102.0,52.0">
</polygon>
      <polygon 
      style="stroke:none" points="127.0,77.0 127.0,52.0 152.0,52.0 152.0,77.0">
</polygon>
      <polygon 
      style="stroke:none" points="152.0,102.0 127.0,102.0 127.0,77.0 152.0,77.0">
</polygon>
      <polygon 
      style="stroke:none" points="102.0,102.0 102.0,77.0 127.0,77.0 127.0,102.0">
</polygon>
      <polygon 
      style="stroke:none" points="77.0,102.0 77.0,77.0 102.0,77.0 102.0,102.0">
</polygon>
    </g>
  </g>
</svg>