<?xml version='1.0' encoding='UTF-8'?>
<svg version="1.1" xmlns="http://www.w3.org/2000/svg">
  <g style="stroke:black">
    <line x1="2.0" y1="110.25317547" x2="14.5" y2="88.60254038"/>
    <line x1="2.0" y1="110.25317547" x2="14.5" y2="131.90381057"/>
    <line x1="14.5" y1="88.60254038" x2="39.5" y2="88.60254038"/>
    <line x1="14.5" y1="131.90381057" x2="39.5" y2="131.90381057"/>
    <line x1="27.0" y1="66.95190528" x2="39.5" y2="45.30127019"/>
    <line x1="27.0" y1="66.95190528" x2="39.5" y2="88.60254038"/>
    <line x1="27.0" y1="153.55444566" x2="39.5" y2="131.90381057"/>
    <line x1="27.0" y1="153.55444566" x2="39.5" y2="175.20508076"/>
    <line x1="39.5" y1="45.30127019" x2="64.5" y2="45.30127019"/>
    <line x1="39.5" y1="88.60254038" x2="52.0" y2="110.25317547"/>
    <line x1="39.5" y1="88.60254038" x2="64.5" y2="88.60254038"/>
    <line x1="39.5" y1="131.90381057" x2="52.0" y2="110.25317547"/>
    <line x1="39.5" y1="131.90381057" x2="64.5" y2="131.90381057"/>
    <line x1="39.5" y1="175.20508076" x2="64.5" y2="175.20508076"/>
    <line x1="52.0" y1="23.65063509" x2="64.5" y2="2.0"/>
    <line x1="52.0" y1="23.65063509" x2="64.5" y2="45.30127019"/>
    <line x1="52.0" y1="110.25317547" x2="64.5" y2="88.60254038"/>
    <line x1="52.0" y1="110.25317547" x2="64.5" y2="131.90381057"/>
    <line x1="52.0" y1="196.85571585" x2="64.5" y2="175.20508076"/>
    <line x1="52.0" y1="196.85571585" x2="64.5" y2="218.50635095"/>
    <line x1="64.5" y1="2.0" x2="89.5" y2="2.0"/>
    <line x1="64.5" y1="45.30127019" x2="77.0" y2="66.95190528"/>
    <line x1="64.5" y1="45.30127019" x2="89.5" y2="45.30127019"/>
    <line x1="64.5" y1="88.60254038" x2="77.0" y2="66.95190528"/>
    <line x1="64.5" y1="88.60254038" x2="89.5" y2="88.60254038"/>
    <line x1="64.5" y1="131.90381057" x2="77.0" y2="153.55444566"/>
    <line x1="64.5" y1="131.90381057" x2="89.5" y2="131.90381057"/>
    <line x1="64.5" y1="175.20508076" x2="77.0" y2="153.55444566"/>
    <line x1="64.5" y1="175.20508076" x2="89.5" y2="175.20508076"/>
    <line x1="64.5" y1="218.50635095" x2="89.5" y2="218.50635095"/>
    <line x1="77.0" y1="66.95190528" x2="89.5" y2="45.30127019"/>
    <line x1="77.0" y1="66.95190528" x2="89.5" y2="88.60254038"/>
    <line x1="77.0" y1="153.55444566" x2="89.5" y2="131.90381057"/>
    <line x1="77.0" y1="153.55444566" x2="89.5" y2="175.20508076"/>
    <line x1="89.5" y1="2.0" x2="102.0" y2="23.65063509"/>
    <line x1="89.5" y1="45.30127019" x2="102.0" y2="23.65063509"/>
    <line x1="89.5" y1="45.30127019" x2="114.5" y2="45.30127019"/>
    <line x1="89.5" y1="88.60254038" x2="102.0" y2="110.25317547"/>
    <line x1="89.5" y1="88.60254038" x2="114.5" y2="88.60254038"/>
    <line x1="89.5" y1="131.90381057" x2="102.0" y2="110.25317547"/>
    <line x1="89.5" y1="131.90381057" x2="114.5" y2="131.90381057"/>
    <line x1="89.5" y1="175.20508076" x2="102.0" y2="196.85571585"/>
    <line x1="89.5" y1="175.20508076" x2="114.5" y2="175.20508076"/>
    <line x1="89.5" y1="218.50635095" x2="102.0" y2="196.85571585"/>
    <line x1="102.0" y1="23.65063509" x2="114.5" y2="2.0"/>
    <line x1="102.0" y1="23.65063509" x2="114.5" y2="45.30127019"/>
    <line x1="102.0" y1="110.25317547" x2="114.5" y2="88.60254038"/>
    <line x1="102.0" y1="110.25317547" x2="114.5" y2="131.90381057"/>
    <line x1="102.0" y1="196.85571585" x2="114.5" y2="175.20508076"/>
    <line x1="102.0" y1="196.85571585" x2="114.5" y2="218.50635095"/>
    <line x1="114.5" y1="2.0" x2="139.5" y2="2.0"/>
    <line x1="114.5" y1="45.30127019" x2="127.0" y2="66.95190528"/>
    <line x1="114.5" y1="45.30127019" x2="139.5" y2="45.30127019"/>
    <line x1="114.5" y1="88.60254038" x2="127.0" y2="66.95190528"/>
    <line x1="114.5" y1="88.60254038" x2="139.5" y2="88.60254038"/>
    <line x1="114.5" y1="131.90381057" x2="127.0" y2="153.55444566"/>
    <line x1="114.5" y1="131.90381057" x2="139.5" y2="131.90381057"/>
    <line x1="114.5" y1="175.20508076" x2="127.0" y2="153.55444566"/>
    <line x1="114.5" y1="175.20508076" x2="139.5" y2="175.20508076"/>
    <line x1="114.5" y1="218.50635095" x2="139.5" y2="218.50635095"/>
    <line x1="127.0" y1="66.95190528" x2="139.5" y2="45.30127019"/>
    <line x1="127.0" y1="66.95190528" x2="139.5" y2="88.60254038"/>
    <line x1="127.0" y1="153.55444566" x2="139.5" y2="131.90381057"/>
    <line x1="127.0" y1="153.55444566" x2="139.5" y2="175.20508076"/>
    <line x1="139.5" y1="2.0" x2="152.0" y2="23.65063509"/>
    <line x1="139.5" y1="45.30127019" x2="152.0" y2="23.65063509"/>
    <line x1="139.5" y1="45.30127019" x2="164.5" y2="45.30127019"/>
    <line x1="139.5" y1="88.60254038" x2="152.0" y2="110.25317547"/>
    <line x1="139.5" y1="88.60254038" x2="164.5" y2="88.60254038"/>
    <line x1="139.5" y1="131.90381057" x2="152.0" y2="110.25317547"/>
    <line x1="139.5" y1="131.90381057" x2="164.5" y2="131.90381057"/>
    <line x1="139.5" y1="175.20508076" x2="152.0" y2="196.85571585"/>
    <line x1="139.5" y1="175.20508076" x2="164.5" y2="175.20508076"/>
    <line x1="139.5" y1="218.50635095" x2="152.0" y2="196.85571585"/>
    <line x1="152.0" y1="110.25317547" x2="164.5" y2="88.60254038"/>
    <line x1="152.0" y1="110.25317547" x2="164.5" y2="131.90381057"/>
    <line x1="164.5" y1="45.30127019" x2="177.0" y2="66.95190528"/>
    <line x1="164.5" y1="88.60254038" x2="177.0" y2="66.95190528"/>
    <line x1="164.5" y1="88.60254038" x2="189.5" y2="88.60254038"/>
    <line x1="164.5" y1="131.90381057" x2="177.0" y2="153.55444566"/>
    <line x1="164.5" y1="131.90381057" x2="189.5" y2="131.90381057"/>
    <line x1="164.5" y1="175.20508076" x2="177.0" y2="153.55444566"/>
    <line x1="189.5" y1="88.60254038" x2="202.0" y2="110.25317547"/>
    <line x1="189.5" y1="131.90381057" x2="202.0" y2="110.25317547"/>
  </g>
  <g>
    <g style="fill:yellow">
      <polygon 
      style="stroke:none" points="152.0,110.25317547 164.5,131.90381057 139.5,131.90381057">
</polygon>
      <polygon 
      style="stroke:none" points="114.5,175.20508076 127.0,153.55444566 139.5,175.20508076">
</polygon>
      <polygon 
      style="stroke:none" points="89.5,175.20508076 114.5,175.20508076 102.0,196.85571585">
</polygon>
      <polygon 
      style="stroke:none" points="114.5,45.30127019 89.5,45.30127019 102.0,23.65063509">
</polygon>
      <polygon 
      style="stroke:none" points="64.5,131.90381057 39.5,131.90381057 52.0,110.25317547">
</polygon>
      <polygon 
      style="stroke:none" points="89.5,175.20508076 64.5,175.20508076 77.0,153.55444566">
</polygon>
      <polygon 
      style="stroke:none" points="114.5,131.90381057 139.5,131.90381057 127.0,153.55444566">
</polygon>
      <polygon 
      style="stroke:none" points="89.5,131.90381057 77.0,153.55444566 64.5,131.90381057">
</polygon>
      <polygon 
      style="stroke:none" points="64.5,88.60254038 52.0,110.25317547 39.5,88.60254038">
</polygon>
      <polygon 
      style="stroke:none" points="114.5,131.90381057 89.5,131.90381057 102.0,110.25317547">
</polygon>
      <polygon 
      style="stroke:none" points="139.5,88.60254038 164.5,88.60254038 152.0,110.25317547">
</polygon>
      <polygon 
      style="stroke:none" points="89.5,88.60254038 114.5,88.60254038 102.0,110.25317547">
</polygon>
      <polygon 
      style="stroke:none" points="77.0,66.95190528 64.5,45.30127019 89.5,45.30127019">
</polygon>
      <polygon 
      style="stroke:none" points="89.5,88.60254038 64.5,88.60254038 77.0,66.95190528">
</polygon>
      <polygon 
      style="stroke:none" points="139.5,88.60254038 114.5,88.60254038 127.0,66.95190528">
</polygon>
      <polygon 
      style="stroke:none" points="139.5,45.30127019 127.0,66.95190528 114.5,45.30127019">
</polygon>
    </g>
    <g style="fill:grey">
      <polygon 
      style="stroke:none" points="89.5,218.50635095 64.5,218.50635095 52.0,196.85571585 64.5,175.20508076 89.5,175.20508076 102.0,196.85571585">
</polygon>
      <polygon 
      style="stroke:none" points="202.0,110.25317547 189.5,131.90381057 164.5,131.90381057 152.0,110.25317547 164.5,88.60254038 189.5,88.60254038">
</polygon>
      <polygon 
      style="stroke:none" points="152.0,23.65063509 139.5,45.30127019 114.5,45.30127019 102.0,23.65063509 114.5,2.0 139.5,2.0">
</polygon>
      <polygon 
      style="stroke:none" points="164.5,131.90381057 177.0,153.55444566 164.5,175.20508076 139.5,175.20508076 127.0,153.55444566 139.5,131.90381057">
</polygon>
      <polygon 
      style="stroke:none" points="139.5,218.50635095 114.5,218.50635095 102.0,196.85571585 114.5,175.20508076 139.5,175.20508076 152.0,196.85571585">
</polygon>
      <polygon 
      style="stroke:none" points="89.5,2.0 102.0,23.65063509 89.5,45.30127019 64.5,45.30127019 52.0,23.65063509 64.5,2.0">
</polygon>
      <polygon 
      style="stroke:none" points="2.0,110.25317547 14.5,88.60254038 39.5,88.60254038 52.0,110.25317547 39.5,131.90381057 14.5,131.90381057">
</polygon>
      <polygon 
      style="stroke:none" points="39.5,175.20508076 27.0,153.55444566 39.5,131.90381057 64.5,131.90381057 77.0,153.55444566 64.5,175.20508076">
</polygon>
      <polygon 
      style="stroke:none" points="114.5,175.20508076 89.5,175.20508076 77.0,153.55444566 89.5,131.90381057 114.5,131.90381057 127.0,153.55444566">
</polygon>
      <polygon 
      style="stroke:none" points="89.5,131.90381057 64.5,131.90381057 52.0,110.25317547 64.5,88.60254038 89.5,88.60254038 102.0,110.25317547">
</polygon>
      <polygon 
      style="stroke:none" points="102.0,110.25317547 114.5,88.60254038 139.5,88.60254038 152.0,110.25317547 139.5,131.90381057 114.5,131.90381057">
</polygon>
      <polygon 
      style="stroke:none" points="64.5,88.60254038 39.5,88.60254038 27.0,66.95190528 39.5,45.30127019 64.5,45.30127019 77.0,66.95190528">
</polygon>
      <polygon 
      style="stroke:none" points="77.0,66.95190528 89.5,45.30127019 114.5,45.30127019 127.0,66.95190528 114.5,88.60254038 89.5,88.60254038">
</polygon>
      <polygon 
      style="stroke:none" points="127.0,66.95190528 139.5,45.30127019 164.5,45.30127019 177.0,66.95190528 164.5,88.60254038 139.5,88.60254038">
</polygon>
    </g>
  </g>
</svg>