<?xml version='1.0' encoding='UTF-8'?>
<svg version="1.1" xmlns="http://www.w3.org/2000/svg">
  <g style="stroke:black">
    <line x1="2.0" y1="36.15063509" x2="2.0" y2="61.15063509"/>
    <line x1="2.0" y1="36.15063509" x2="14.5" y2="14.5"/>
    <line x1="2.0" y1="36.15063509" x2="27.0" y2="36.15063509"/>
    <line x1="2.0" y1="61.15063509" x2="14.5" y2="82.80127019"/>
    <line x1="2.0" y1="61.15063509" x2="27.0" y2="61.15063509"/>
    <line x1="14.5" y1="14.5" x2="27.0" y2="36.15063509"/>
    <line x1="14.5" y1="14.5" x2="36.15063509" y2="2.0"/>
    <line x1="14.5" y1="82.80127019" x2="27.0" y2="61.15063509"/>
    <line x1="14.5" y1="82.80127019" x2="36.15063509" y2="95.30127019"/>
    <line x1="27.0" y1="36.15063509" x2="27.0" y2="61.15063509"/>
    <line x1="27.0" y1="36.15063509" x2="48.65063509" y2="23.65063509"/>
    <line x1="27.0" y1="61.15063509" x2="48.65063509" y2="73.65063509"/>
    <line x1="36.15063509" y1="2.0" x2="48.65063509" y2="23.65063509"/>
    <line x1="36.15063509" y1="2.0" x2="61.15063509" y2="2.0"/>
    <line x1="36.15063509" y1="95.30127019" x2="36.15063509" y2="120.30127019"/>
    <line x1="36.15063509" y1="95.30127019" x2="48.65063509" y2="73.65063509"/>
    <line x1="36.15063509" y1="95.30127019" x2="61.15063509" y2="95.30127019"/>
    <line x1="36.15063509" y1="120.30127019" x2="61.15063509" y2="120.30127019"/>
    <line x1="48.65063509" y1="23.65063509" x2="61.15063509" y2="2.0"/>
    <line x1="48.65063509" y1="23.65063509" x2="70.30127019" y2="36.15063509"/>
    <line x1="48.65063509" y1="73.65063509" x2="61.15063509" y2="95.30127019"/>
    <line x1="48.65063509" y1="73.65063509" x2="70.30127019" y2="61.15063509"/>
    <line x1="48.65063509" y1="141.95190528" x2="61.15063509" y2="120.30127019"/>
    <line x1="48.65063509" y1="141.95190528" x2="70.30127019" y2="154.45190528"/>
    <line x1="61.15063509" y1="2.0" x2="82.80127019" y2="14.5"/>
    <line x1="61.15063509" y1="95.30127019" x2="61.15063509" y2="120.30127019"/>
    <line x1="61.15063509" y1="95.30127019" x2="82.80127019" y2="82.80127019"/>
    <line x1="61.15063509" y1="120.30127019" x2="82.80127019" y2="132.80127019"/>
    <line x1="70.30127019" y1="36.15063509" x2="70.30127019" y2="61.15063509"/>
    <line x1="70.30127019" y1="36.15063509" x2="82.80127019" y2="14.5"/>
    <line x1="70.30127019" y1="36.15063509" x2="95.30127019" y2="36.15063509"/>
    <line x1="70.30127019" y1="61.15063509" x2="82.80127019" y2="82.80127019"/>
    <line x1="70.30127019" y1="61.15063509" x2="95.30127019" y2="61.15063509"/>
    <line x1="70.30127019" y1="154.45190528" x2="82.80127019" y2="132.80127019"/>
    <line x1="70.30127019" y1="154.45190528" x2="95.30127019" y2="154.45190528"/>
    <line x1="82.80127019" y1="14.5" x2="95.30127019" y2="36.15063509"/>
    <line x1="82.80127019" y1="14.5" x2="104.45190528" y2="2.0"/>
    <line x1="82.80127019" y1="82.80127019" x2="95.30127019" y2="61.15063509"/>
    <line x1="82.80127019" y1="82.80127019" x2="104.45190528" y2="95.30127019"/>
    <line x1="82.80127019" y1="132.80127019" x2="95.30127019" y2="154.45190528"/>
    <line x1="82.80127019" y1="132.80127019" x2="104.45190528" y2="120.30127019"/>
    <line x1="95.30127019" y1="36.15063509" x2="95.30127019" y2="61.15063509"/>
    <line x1="95.30127019" y1="36.15063509" x2="116.95190528" y2="23.65063509"/>
    <line x1="95.30127019" y1="61.15063509" x2="116.95190528" y2="73.65063509"/>
    <line x1="95.30127019" y1="154.45190528" x2="116.95190528" y2="141.95190528"/>
    <line x1="104.45190528" y1="2.0" x2="116.95190528" y2="23.65063509"/>
    <line x1="104.45190528" y1="2.0" x2="129.45190528" y2="2.0"/>
    <line x1="104.45190528" y1="95.30127019" x2="104.45190528" y2="120.30127019"/>
    <line x1="104.45190528" y1="95.30127019" x2="116.95190528" y2="73.65063509"/>
    <line x1="104.45190528" y1="95.30127019" x2="129.45190528" y2="95.30127019"/>
    <line x1="104.45190528" y1="120.30127019" x2="116.95190528" y2="141.95190528"/>
    <line x1="104.45190528" y1="120.30127019" x2="129.45190528" y2="120.30127019"/>
    <line x1="116.95190528" y1="23.65063509" x2="129.45190528" y2="2.0"/>
    <line x1="116.95190528" y1="23.65063509" x2="138.60254038" y2="36.15063509"/>
    <line x1="116.95190528" y1="73.65063509" x2="129.45190528" y2="95.30127019"/>
    <line x1="116.95190528" y1="73.65063509" x2="138.60254038" y2="61.15063509"/>
    <line x1="116.95190528" y1="141.95190528" x2="129.45190528" y2="120.30127019"/>
    <line x1="129.45190528" y1="2.0" x2="151.10254038" y2="14.5"/>
    <line x1="129.45190528" y1="95.30127019" x2="129.45190528" y2="120.30127019"/>
    <line x1="129.45190528" y1="95.30127019" x2="151.10254038" y2="82.80127019"/>
    <line x1="138.60254038" y1="36.15063509" x2="138.60254038" y2="61.15063509"/>
    <line x1="138.60254038" y1="36.15063509" x2="151.10254038" y2="14.5"/>
    <line x1="138.60254038" y1="36.15063509" x2="163.60254038" y2="36.15063509"/>
    <line x1="138.60254038" y1="61.15063509" x2="151.10254038" y2="82.80127019"/>
    <line x1="138.60254038" y1="61.15063509" x2="163.60254038" y2="61.15063509"/>
    <line x1="151.10254038" y1="14.5" x2="163.60254038" y2="36.15063509"/>
    <line x1="151.10254038" y1="82.80127019" x2="163.60254038" y2="61.15063509"/>
    <line x1="163.60254038" y1="36.15063509" x2="163.60254038" y2="61.15063509"/>
  </g>
  <g>
    <g style="fill:goldenrod">
      <polygon 
      style="stroke:none" points="61.15063509,120.30127019 36.15063509,120.30127019 36.15063509,95.30127019 61.15063509,95.30127019">
</polygon>
      <polygon 
      style="stroke:none" points="70.30127019,154.45190528 48.65063509,141.95190528 61.15063509,120.30127019 82.80127019,132.80127019">
</polygon>
      <polygon 
      style="stroke:none" points="116.95190528,141.95190528 95.30127019,154.45190528 82.80127019,132.80127019 104.45190528,120.30127019">
</polygon>
      <polygon 
      style="stroke:none" points="129.45190528,95.30127019 129.45190528,120.30127019 104.45190528,120.30127019 104.45190528,95.30127019">
</polygon>
      <polygon 
      style="stroke:none" points="138.60254038,61.15063509 151.10254038,82.80127019 129.45190528,95.30127019 116.95190528,73.65063509">
</polygon>
      <polygon 
      style="stroke:none" points="82.80127019,82.80127019 95.30127019,61.15063509 116.95190528,73.65063509 104.45190528,95.30127019">
</polygon>
      <polygon 
      style="stroke:none" points="138.60254038,61.15063509 138.60254038,36.15063509 163.60254038,36.15063509 163.60254038,61.15063509">
</polygon>
      <polygon 
      style="stroke:none" points="129.45190528,2.0 151.10254038,14.5 138.60254038,36.15063509 116.95190528,23.65063509">
</polygon>
      <polygon 
      style="stroke:none" points="95.30127019,36.15063509 82.80127019,14.5 104.45190528,2.0 116.95190528,23.65063509">
</polygon>
      <polygon 
      style="stroke:none" points="70.30127019,36.15063509 48.65063509,23.65063509 61.15063509,2.0 82.80127019,14.5">
</polygon>
      <polygon 
      style="stroke:none" points="70.30127019,36.15063509 95.30127019,36.15063509 95.30127019,61.15063509 70.30127019,61.15063509">
</polygon>
      <polygon 
      style="stroke:none" points="48.65063509,73.65063509 70.30127019,61.15063509 82.80127019,82.80127019 61.15063509,95.30127019">
</polygon>
      <polygon 
      style="stroke:none" points="48.65063509,73.65063509 36.15063509,95.30127019 14.5,82.80127019 27.0,61.15063509">
</polygon>
      <polygon 
      style="stroke:none" points="2.0,61.15063509 2.0,36.15063509 27.0,36.15063509 27.0,61.15063509">
</polygon>
      <polygon 
      style="stroke:none" points="27.0,36.15063509 14.5,14.5 36.15063509,2.0 48.65063509,23.65063509">
</polygon>
    </g>
    <g style="fill:yellow">
      <polygon 
      style="stroke:none" points="95.30127019,154.45190528 70.30127019,154.45190528 82.80127019,132.80127019">
</polygon>
      <polygon 
      style="stroke:none" points="104.45190528,120.30127019 129.45190528,120.30127019 116.95190528,141.95190528">
</polygon>
      <polygon 
      style="stroke:none" points="138.60254038,61.15063509 163.60254038,61.15063509 151.10254038,82.80127019">
</polygon>
      <polygon 
      style="stroke:none" points="104.45190528,95.30127019 116.95190528,73.65063509 129.45190528,95.30127019">
</polygon>
      <polygon 
      style="stroke:none" points="151.10254038,14.5 163.60254038,36.15063509 138.60254038,36.15063509">
</polygon>
      <polygon 
      style="stroke:none" points="104.45190528,2.0 129.45190528,2.0 116.95190528,23.65063509">
</polygon>
      <polygon 
      style="stroke:none" points="70.30127019,36.15063509 82.80127019,14.5 95.30127019,36.15063509">
</polygon>
      <polygon 
      style="stroke:none" points="36.15063509,2.0 61.15063509,2.0 48.65063509,23.65063509">
</polygon>
      <polygon 
      style="stroke:none" points="82.80127019,82.80127019 70.30127019,61.15063509 95.30127019,61.15063509">
</polygon>
      <polygon 
      style="stroke:none" points="48.65063509,73.65063509 61.15063509,95.30127019 36.15063509,95.30127019">
</polygon>
      <polygon 
      style="stroke:none" points="2.0,61.15063509 27.0,61.15063509 14.5,82.80127019">
</polygon>
      <polygon 
      style="stroke:none" points="14.5,14.5 27.0,36.15063509 2.0,36.15063509">
</polygon>
    </g>
    <g style="fill:grey">
      <polygon 
      style="stroke:none" points="82.80127019,132.80127019 61.15063509,120.30127019 61.15063509,95.30127019 82.80127019,82.80127019 104.45190528,95.30127019 104.45190528,120.30127019">
</polygon>
      <polygon 
      style="stroke:none" points="116.95190528,73.65063509 95.30127019,61.15063509 95.30127019,36.15063509 116.95190528,23.65063509 138.60254038,36.15063509 138.60254038,61.15063509">
</polygon>
      <polygon 
      style="stroke:none" points="48.65063509,23.65063509 70.30127019,36.15063509 70.30127019,61.15063509 48.65063509,73.65063509 27.0,61.15063509 27.0,36.15063509">
</polygon>
    </g>
  </g>
</svg>