<?xml version='1.0' encoding='UTF-8'?>
<svg version="1.1" xmlns="http://www.w3.org/2000/svg">
  <g style="stroke:black">
    <line x1="2.0" y1="197.75317547" x2="2.0" y2="222.75317547"/>
    <line x1="2.0" y1="197.75317547" x2="14.5" y2="176.10254038"/>
    <line x1="2.0" y1="222.75317547" x2="14.5" y2="244.40381057"/>
    <line x1="14.5" y1="176.10254038" x2="36.15063509" y2="163.60254038"/>
    <line x1="14.5" y1="244.40381057" x2="36.15063509" y2="256.90381057"/>
    <line x1="36.15063509" y1="163.60254038" x2="61.15063509" y2="163.60254038"/>
    <line x1="36.15063509" y1="256.90381057" x2="61.15063509" y2="256.90381057"/>
    <line x1="48.65063509" y1="116.95190528" x2="48.65063509" y2="141.95190528"/>
    <line x1="48.65063509" y1="116.95190528" x2="61.15063509" y2="95.30127019"/>
    <line x1="48.65063509" y1="141.95190528" x2="61.15063509" y2="163.60254038"/>
    <line x1="48.65063509" y1="278.55444566" x2="48.65063509" y2="303.55444566"/>
    <line x1="48.65063509" y1="278.55444566" x2="61.15063509" y2="256.90381057"/>
    <line x1="48.65063509" y1="303.55444566" x2="61.15063509" y2="325.20508076"/>
    <line x1="61.15063509" y1="95.30127019" x2="82.80127019" y2="82.80127019"/>
    <line x1="61.15063509" y1="163.60254038" x2="82.80127019" y2="176.10254038"/>
    <line x1="61.15063509" y1="256.90381057" x2="82.80127019" y2="244.40381057"/>
    <line x1="61.15063509" y1="325.20508076" x2="82.80127019" y2="337.70508076"/>
    <line x1="82.80127019" y1="82.80127019" x2="107.80127019" y2="82.80127019"/>
    <line x1="82.80127019" y1="176.10254038" x2="95.30127019" y2="197.75317547"/>
    <line x1="82.80127019" y1="176.10254038" x2="107.80127019" y2="176.10254038"/>
    <line x1="82.80127019" y1="244.40381057" x2="95.30127019" y2="222.75317547"/>
    <line x1="82.80127019" y1="244.40381057" x2="107.80127019" y2="244.40381057"/>
    <line x1="82.80127019" y1="337.70508076" x2="107.80127019" y2="337.70508076"/>
    <line x1="95.30127019" y1="36.15063509" x2="95.30127019" y2="61.15063509"/>
    <line x1="95.30127019" y1="36.15063509" x2="107.80127019" y2="14.5"/>
    <line x1="95.30127019" y1="61.15063509" x2="107.80127019" y2="82.80127019"/>
    <line x1="95.30127019" y1="197.75317547" x2="95.30127019" y2="222.75317547"/>
    <line x1="95.30127019" y1="197.75317547" x2="107.80127019" y2="176.10254038"/>
    <line x1="95.30127019" y1="222.75317547" x2="107.80127019" y2="244.40381057"/>
    <line x1="95.30127019" y1="359.35571585" x2="95.30127019" y2="384.35571585"/>
    <line x1="95.30127019" y1="359.35571585" x2="107.80127019" y2="337.70508076"/>
    <line x1="95.30127019" y1="384.35571585" x2="107.80127019" y2="406.00635095"/>
    <line x1="107.80127019" y1="14.5" x2="129.45190528" y2="2.0"/>
    <line x1="107.80127019" y1="82.80127019" x2="129.45190528" y2="95.30127019"/>
    <line x1="107.80127019" y1="176.10254038" x2="129.45190528" y2="163.60254038"/>
    <line x1="107.80127019" y1="244.40381057" x2="129.45190528" y2="256.90381057"/>
    <line x1="107.80127019" y1="337.70508076" x2="129.45190528" y2="325.20508076"/>
    <line x1="107.80127019" y1="406.00635095" x2="129.45190528" y2="418.50635095"/>
    <line x1="129.45190528" y1="2.0" x2="154.45190528" y2="2.0"/>
    <line x1="129.45190528" y1="95.30127019" x2="141.95190528" y2="116.95190528"/>
    <line x1="129.45190528" y1="95.30127019" x2="154.45190528" y2="95.30127019"/>
    <line x1="129.45190528" y1="163.60254038" x2="141.95190528" y2="141.95190528"/>
    <line x1="129.45190528" y1="163.60254038" x2="154.45190528" y2="163.60254038"/>
    <line x1="129.45190528" y1="256.90381057" x2="141.95190528" y2="278.55444566"/>
    <line x1="129.45190528" y1="256.90381057" x2="154.45190528" y2="256.90381057"/>
    <line x1="129.45190528" y1="325.20508076" x2="141.95190528" y2="303.55444566"/>
    <line x1="129.45190528" y1="325.20508076" x2="154.45190528" y2="325.20508076"/>
    <line x1="129.45190528" y1="418.50635095" x2="154.45190528" y2="418.50635095"/>
    <line x1="141.95190528" y1="116.95190528" x2="141.95190528" y2="141.95190528"/>
    <line x1="141.95190528" y1="116.95190528" x2="154.45190528" y2="95.30127019"/>
    <line x1="141.95190528" y1="141.95190528" x2="154.45190528" y2="163.60254038"/>
    <line x1="141.95190528" y1="278.55444566" x2="141.95190528" y2="303.55444566"/>
    <line x1="141.95190528" y1="278.55444566" x2="154.45190528" y2="256.90381057"/>
    <line x1="141.95190528" y1="303.55444566" x2="154.45190528" y2="325.20508076"/>
    <line x1="154.45190528" y1="2.0" x2="176.10254038" y2="14.5"/>
    <line x1="154.45190528" y1="95.30127019" x2="176.10254038" y2="82.80127019"/>
    <line x1="154.45190528" y1="163.60254038" x2="176.10254038" y2="176.10254038"/>
    <line x1="154.45190528" y1="256.90381057" x2="176.10254038" y2="244.40381057"/>
    <line x1="154.45190528" y1="325.20508076" x2="176.10254038" y2="337.70508076"/>
    <line x1="154.45190528" y1="418.50635095" x2="176.10254038" y2="406.00635095"/>
    <line x1="176.10254038" y1="14.5" x2="188.60254038" y2="36.15063509"/>
    <line x1="176.10254038" y1="82.80127019" x2="188.60254038" y2="61.15063509"/>
    <line x1="176.10254038" y1="82.80127019" x2="201.10254038" y2="82.80127019"/>
    <line x1="176.10254038" y1="176.10254038" x2="188.60254038" y2="197.75317547"/>
    <line x1="176.10254038" y1="176.10254038" x2="201.10254038" y2="176.10254038"/>
    <line x1="176.10254038" y1="244.40381057" x2="188.60254038" y2="222.75317547"/>
    <line x1="176.10254038" y1="244.40381057" x2="201.10254038" y2="244.40381057"/>
    <line x1="176.10254038" y1="337.70508076" x2="188.60254038" y2="359.35571585"/>
    <line x1="176.10254038" y1="337.70508076" x2="201.10254038" y2="337.70508076"/>
    <line x1="176.10254038" y1="406.00635095" x2="188.60254038" y2="384.35571585"/>
    <line x1="188.60254038" y1="36.15063509" x2="188.60254038" y2="61.15063509"/>
    <line x1="188.60254038" y1="36.15063509" x2="201.10254038" y2="14.5"/>
    <line x1="188.60254038" y1="61.15063509" x2="201.10254038" y2="82.80127019"/>
    <line x1="188.60254038" y1="197.75317547" x2="188.60254038" y2="222.75317547"/>
    <line x1="188.60254038" y1="197.75317547" x2="201.10254038" y2="176.10254038"/>
    <line x1="188.60254038" y1="222.75317547" x2="201.10254038" y2="244.40381057"/>
    <line x1="188.60254038" y1="359.35571585" x2="188.60254038" y2="384.35571585"/>
    <line x1="188.60254038" y1="359.35571585" x2="201.10254038" y2="337.70508076"/>
    <line x1="188.60254038" y1="384.35571585" x2="201.10254038" y2="406.00635095"/>
    <line x1="201.10254038" y1="14.5" x2="222.75317547" y2="2.0"/>
    <line x1="201.10254038" y1="82.80127019" x2="222.75317547" y2="95.30127019"/>
    <line x1="201.10254038" y1="176.10254038" x2="222.75317547" y2="163.60254038"/>
    <line x1="201.10254038" y1="244.40381057" x2="222.75317547" y2="256.90381057"/>
    <line x1="201.10254038" y1="337.70508076" x2="222.75317547" y2="325.20508076"/>
    <line x1="201.10254038" y1="406.00635095" x2="222.75317547" y2="418.50635095"/>
    <line x1="222.75317547" y1="2.0" x2="247.75317547" y2="2.0"/>
    <line x1="222.75317547" y1="95.30127019" x2="235.25317547" y2="116.95190528"/>
    <line x1="222.75317547" y1="95.30127019" x2="247.75317547" y2="95.30127019"/>
    <line x1="222.75317547" y1="163.60254038" x2="235.25317547" y2="141.95190528"/>
    <line x1="222.75317547" y1="163.60254038" x2="247.75317547" y2="163.60254038"/>
    <line x1="222.75317547" y1="256.90381057" x2="235.25317547" y2="278.55444566"/>
    <line x1="222.75317547" y1="256.90381057" x2="247.75317547" y2="256.90381057"/>
    <line x1="222.75317547" y1="325.20508076" x2="235.25317547" y2="303.55444566"/>
    <line x1="222.75317547" y1="325.20508076" x2="247.75317547" y2="325.20508076"/>
    <line x1="222.75317547" y1="418.50635095" x2="247.75317547" y2="418.50635095"/>
    <line x1="235.25317547" y1="116.95190528" x2="235.25317547" y2="141.95190528"/>
    <line x1="235.25317547" y1="116.95190528" x2="247.75317547" y2="95.30127019"/>
    <line x1="235.25317547" y1="141.95190528" x2="247.75317547" y2="163.60254038"/>
    <line x1="235.25317547" y1="278.55444566" x2="235.25317547" y2="303.55444566"/>
    <line x1="235.25317547" y1="278.55444566" x2="247.75317547" y2="256.90381057"/>
    <line x1="235.25317547" y1="303.55444566" x2="247.75317547" y2="325.20508076"/>
    <line x1="247.75317547" y1="2.0" x2="269.40381057" y2="14.5"/>
    <line x1="247.75317547" y1="95.30127019" x2="269.40381057" y2="82.80127019"/>
    <line x1="247.75317547" y1="163.60254038" x2="269.40381057" y2="176.10254038"/>
    <line x1="247.75317547" y1="256.90381057" x2="269.40381057" y2="244.40381057"/>
    <line x1="247.75317547" y1="325.20508076" x2="269.40381057" y2="337.70508076"/>
    <line x1="247.75317547" y1="418.50635095" x2="269.40381057" y2="406.00635095"/>
    <line x1="269.40381057" y1="14.5" x2="281.90381057" y2="36.15063509"/>
    <line x1="269.40381057" y1="82.80127019" x2="281.90381057" y2="61.15063509"/>
    <line x1="269.40381057" y1="82.80127019" x2="294.40381057" y2="82.80127019"/>
    <line x1="269.40381057" y1="176.10254038" x2="281.90381057" y2="197.75317547"/>
    <line x1="269.40381057" y1="176.10254038" x2="294.40381057" y2="176.10254038"/>
    <line x1="269.40381057" y1="244.40381057" x2="281.90381057" y2="222.75317547"/>
    <line x1="269.40381057" y1="244.40381057" x2="294.40381057" y2="244.40381057"/>
    <line x1="269.40381057" y1="337.70508076" x2="281.90381057" y2="359.35571585"/>
    <line x1="269.40381057" y1="337.70508076" x2="294.40381057" y2="337.70508076"/>
    <line x1="269.40381057" y1="406.00635095" x2="281.90381057" y2="384.35571585"/>
    <line x1="281.90381057" y1="36.15063509" x2="281.90381057" y2="61.15063509"/>
    <line x1="281.90381057" y1="197.75317547" x2="281.90381057" y2="222.75317547"/>
    <line x1="281.90381057" y1="197.75317547" x2="294.40381057" y2="176.10254038"/>
    <line x1="281.90381057" y1="222.75317547" x2="294.40381057" y2="244.40381057"/>
    <line x1="281.90381057" y1="359.35571585" x2="281.90381057" y2="384.35571585"/>
    <line x1="294.40381057" y1="82.80127019" x2="316.05444566" y2="95.30127019"/>
    <line x1="294.40381057" y1="176.10254038" x2="316.05444566" y2="163.60254038"/>
    <line x1="294.40381057" y1="244.40381057" x2="316.05444566" y2="256.90381057"/>
    <line x1="294.40381057" y1="337.70508076" x2="316.05444566" y2="325.20508076"/>
    <line x1="316.05444566" y1="95.30127019" x2="328.55444566" y2="116.95190528"/>
    <line x1="316.05444566" y1="163.60254038" x2="328.55444566" y2="141.95190528"/>
    <line x1="316.05444566" y1="163.60254038" x2="341.05444566" y2="163.60254038"/>
    <line x1="316.05444566" y1="256.90381057" x2="328.55444566" y2="278.55444566"/>
    <line x1="316.05444566" y1="256.90381057" x2="341.05444566" y2="256.90381057"/>
    <line x1="316.05444566" y1="325.20508076" x2="328.55444566" y2="303.55444566"/>
    <line x1="328.55444566" y1="116.95190528" x2="328.55444566" y2="141.95190528"/>
    <line x1="328.55444566" y1="278.55444566" x2="328.55444566" y2="303.55444566"/>
    <line x1="341.05444566" y1="163.60254038" x2="362.70508076" y2="176.10254038"/>
    <line x1="341.05444566" y1="256.90381057" x2="362.70508076" y2="244.40381057"/>
    <line x1="362.70508076" y1="176.10254038" x2="375.20508076" y2="197.75317547"/>
    <line x1="362.70508076" y1="244.40381057" x2="375.20508076" y2="222.75317547"/>
    <line x1="375.20508076" y1="197.75317547" x2="375.20508076" y2="222.75317547"/>
  </g>
  <g>
    <g style="fill:yellow">
      <polygon 
      style="stroke:none" points="176.10254038,337.70508076 201.10254038,337.70508076 188.60254038,359.35571585">
</polygon>
      <polygon 
      style="stroke:none" points="95.30127019,197.75317547 82.80127019,176.10254038 107.80127019,176.10254038">
</polygon>
      <polygon 
      style="stroke:none" points="281.90381057,197.75317547 269.40381057,176.10254038 294.40381057,176.10254038">
</polygon>
      <polygon 
      style="stroke:none" points="235.25317547,116.95190528 222.75317547,95.30127019 247.75317547,95.30127019">
</polygon>
      <polygon 
      style="stroke:none" points="269.40381057,244.40381057 281.90381057,222.75317547 294.40381057,244.40381057">
</polygon>
      <polygon 
      style="stroke:none" points="235.25317547,141.95190528 247.75317547,163.60254038 222.75317547,163.60254038">
</polygon>
      <polygon 
      style="stroke:none" points="222.75317547,325.20508076 235.25317547,303.55444566 247.75317547,325.20508076">
</polygon>
      <polygon 
      style="stroke:none" points="235.25317547,278.55444566 222.75317547,256.90381057 247.75317547,256.90381057">
</polygon>
      <polygon 
      style="stroke:none" points="154.45190528,95.30127019 141.95190528,116.95190528 129.45190528,95.30127019">
</polygon>
      <polygon 
      style="stroke:none" points="201.10254038,82.80127019 176.10254038,82.80127019 188.60254038,61.15063509">
</polygon>
      <polygon 
      style="stroke:none" points="188.60254038,197.75317547 176.10254038,176.10254038 201.10254038,176.10254038">
</polygon>
      <polygon 
      style="stroke:none" points="129.45190528,163.60254038 141.95190528,141.95190528 154.45190528,163.60254038">
</polygon>
      <polygon 
      style="stroke:none" points="107.80127019,244.40381057 82.80127019,244.40381057 95.30127019,222.75317547">
</polygon>
      <polygon 
      style="stroke:none" points="154.45190528,325.20508076 129.45190528,325.20508076 141.95190528,303.55444566">
</polygon>
      <polygon 
      style="stroke:none" points="141.95190528,278.55444566 129.45190528,256.90381057 154.45190528,256.90381057">
</polygon>
      <polygon 
      style="stroke:none" points="201.10254038,244.40381057 176.10254038,244.40381057 188.60254038,222.75317547">
</polygon>
    </g>
    <g style="fill:lightgreen">
      <polygon 
      style="stroke:none" points="36.15063509,163.60254038 61.15063509,163.60254038 82.80127019,176.10254038 95.30127019,197.75317547 95.30127019,222.75317547 82.80127019,244.40381057 61.15063509,256.90381057 36.15063509,256.90381057 14.5,244.40381057 2.0,222.75317547 2.0,197.75317547 14.5,176.10254038">
</polygon>
      <polygon 
      style="stroke:none" points="188.60254038,384.35571585 188.60254038,359.35571585 201.10254038,337.70508076 222.75317547,325.20508076 247.75317547,325.20508076 269.40381057,337.70508076 281.90381057,359.35571585 281.90381057,384.35571585 269.40381057,406.00635095 247.75317547,418.50635095 222.75317547,418.50635095 201.10254038,406.00635095">
</polygon>
      <polygon 
      style="stroke:none" points="188.60254038,359.35571585 188.60254038,384.35571585 176.10254038,406.00635095 154.45190528,418.50635095 129.45190528,418.50635095 107.80127019,406.00635095 95.30127019,384.35571585 95.30127019,359.35571585 107.80127019,337.70508076 129.45190528,325.20508076 154.45190528,325.20508076 176.10254038,337.70508076">
</polygon>
      <polygon 
      style="stroke:none" points="281.90381057,36.15063509 281.90381057,61.15063509 269.40381057,82.80127019 247.75317547,95.30127019 222.75317547,95.30127019 201.10254038,82.80127019 188.60254038,61.15063509 188.60254038,36.15063509 201.10254038,14.5 222.75317547,2.0 247.75317547,2.0 269.40381057,14.5">
</polygon>
      <polygon 
      style="stroke:none" points="48.65063509,141.95190528 48.65063509,116.95190528 61.15063509,95.30127019 82.80127019,82.80127019 107.80127019,82.80127019 129.45190528,95.30127019 141.95190528,116.95190528 141.95190528,141.95190528 129.45190528,163.60254038 107.80127019,176.10254038 82.80127019,176.10254038 61.15063509,163.60254038">
</polygon>
      <polygon 
      style="stroke:none" points="316.05444566,163.60254038 341.05444566,163.60254038 362.70508076,176.10254038 375.20508076,197.75317547 375.20508076,222.75317547 362.70508076,244.40381057 341.05444566,256.90381057 316.05444566,256.90381057 294.40381057,244.40381057 281.90381057,222.75317547 281.90381057,197.75317547 294.40381057,176.10254038">
</polygon>
      <polygon 
      style="stroke:none" points="328.55444566,141.95190528 316.05444566,163.60254038 294.40381057,176.10254038 269.40381057,176.10254038 247.75317547,163.60254038 235.25317547,141.95190528 235.25317547,116.95190528 247.75317547,95.30127019 269.40381057,82.80127019 294.40381057,82.80127019 316.05444566,95.30127019 328.55444566,116.95190528">
</polygon>
      <polygon 
      style="stroke:none" points="281.90381057,197.75317547 281.90381057,222.75317547 269.40381057,244.40381057 247.75317547,256.90381057 222.75317547,256.90381057 201.10254038,244.40381057 188.60254038,222.75317547 188.60254038,197.75317547 201.10254038,176.10254038 222.75317547,163.60254038 247.75317547,163.60254038 269.40381057,176.10254038">
</polygon>
      <polygon 
      style="stroke:none" points="247.75317547,256.90381057 269.40381057,244.40381057 294.40381057,244.40381057 316.05444566,256.90381057 328.55444566,278.55444566 328.55444566,303.55444566 316.05444566,325.20508076 294.40381057,337.70508076 269.40381057,337.70508076 247.75317547,325.20508076 235.25317547,303.55444566 235.25317547,278.55444566">
</polygon>
      <polygon 
      style="stroke:none" points="188.60254038,36.15063509 188.60254038,61.15063509 176.10254038,82.80127019 154.45190528,95.30127019 129.45190528,95.30127019 107.80127019,82.80127019 95.30127019,61.15063509 95.30127019,36.15063509 107.80127019,14.5 129.45190528,2.0 154.45190528,2.0 176.10254038,14.5">
</polygon>
      <polygon 
      style="stroke:none" points="154.45190528,95.30127019 176.10254038,82.80127019 201.10254038,82.80127019 222.75317547,95.30127019 235.25317547,116.95190528 235.25317547,141.95190528 222.75317547,163.60254038 201.10254038,176.10254038 176.10254038,176.10254038 154.45190528,163.60254038 141.95190528,141.95190528 141.95190528,116.95190528">
</polygon>
      <polygon 
      style="stroke:none" points="82.80127019,244.40381057 107.80127019,244.40381057 129.45190528,256.90381057 141.95190528,278.55444566 141.95190528,303.55444566 129.45190528,325.20508076 107.80127019,337.70508076 82.80127019,337.70508076 61.15063509,325.20508076 48.65063509,303.55444566 48.65063509,278.55444566 61.15063509,256.90381057">
</polygon>
      <polygon 
      style="stroke:none" points="95.30127019,197.75317547 107.80127019,176.10254038 129.45190528,163.60254038 154.45190528,163.60254038 176.10254038,176.10254038 188.60254038,197.75317547 188.60254038,222.75317547 176.10254038,244.40381057 154.45190528,256.90381057 129.45190528,256.90381057 107.80127019,244.40381057 95.30127019,222.75317547">
</polygon>
      <polygon 
      style="stroke:none" points="235.25317547,303.55444566 222.75317547,325.20508076 201.10254038,337.70508076 176.10254038,337.70508076 154.45190528,325.20508076 141.95190528,303.55444566 141.95190528,278.55444566 154.45190528,256.90381057 176.10254038,244.40381057 201.10254038,244.40381057 222.75317547,256.90381057 235.25317547,278.55444566">
</polygon>
    </g>
  </g>
</svg>