<?xml version='1.0' encoding='UTF-8'?>
<svg version="1.1" xmlns="http://www.w3.org/2000/svg">
  <g style="stroke:black">
    <line x1="2.0" y1="70.30127019" x2="2.0" y2="95.30127019"/>
    <line x1="2.0" y1="70.30127019" x2="14.5" y2="48.65063509"/>
    <line x1="2.0" y1="70.30127019" x2="27.0" y2="70.30127019"/>
    <line x1="2.0" y1="95.30127019" x2="27.0" y2="95.30127019"/>
    <line x1="14.5" y1="23.65063509" x2="14.5" y2="48.65063509"/>
    <line x1="14.5" y1="23.65063509" x2="39.5" y2="23.65063509"/>
    <line x1="14.5" y1="48.65063509" x2="27.0" y2="70.30127019"/>
    <line x1="14.5" y1="48.65063509" x2="39.5" y2="48.65063509"/>
    <line x1="14.5" y1="116.95190528" x2="27.0" y2="95.30127019"/>
    <line x1="14.5" y1="116.95190528" x2="36.15063509" y2="129.45190528"/>
    <line x1="27.0" y1="70.30127019" x2="27.0" y2="95.30127019"/>
    <line x1="27.0" y1="70.30127019" x2="39.5" y2="48.65063509"/>
    <line x1="27.0" y1="70.30127019" x2="48.65063509" y2="82.80127019"/>
    <line x1="27.0" y1="95.30127019" x2="48.65063509" y2="82.80127019"/>
    <line x1="27.0" y1="95.30127019" x2="48.65063509" y2="107.80127019"/>
    <line x1="36.15063509" y1="129.45190528" x2="48.65063509" y2="107.80127019"/>
    <line x1="39.5" y1="23.65063509" x2="39.5" y2="48.65063509"/>
    <line x1="39.5" y1="23.65063509" x2="52.0" y2="2.0"/>
    <line x1="39.5" y1="23.65063509" x2="61.15063509" y2="36.15063509"/>
    <line x1="39.5" y1="48.65063509" x2="61.15063509" y2="36.15063509"/>
    <line x1="39.5" y1="48.65063509" x2="61.15063509" y2="61.15063509"/>
    <line x1="48.65063509" y1="82.80127019" x2="48.65063509" y2="107.80127019"/>
    <line x1="48.65063509" y1="82.80127019" x2="61.15063509" y2="61.15063509"/>
    <line x1="48.65063509" y1="82.80127019" x2="73.65063509" y2="82.80127019"/>
    <line x1="48.65063509" y1="107.80127019" x2="61.15063509" y2="129.45190528"/>
    <line x1="48.65063509" y1="107.80127019" x2="73.65063509" y2="107.80127019"/>
    <line x1="52.0" y1="2.0" x2="73.65063509" y2="14.5"/>
    <line x1="61.15063509" y1="36.15063509" x2="61.15063509" y2="61.15063509"/>
    <line x1="61.15063509" y1="36.15063509" x2="73.65063509" y2="14.5"/>
    <line x1="61.15063509" y1="36.15063509" x2="86.15063509" y2="36.15063509"/>
    <line x1="61.15063509" y1="61.15063509" x2="73.65063509" y2="82.80127019"/>
    <line x1="61.15063509" y1="61.15063509" x2="86.15063509" y2="61.15063509"/>
    <line x1="61.15063509" y1="129.45190528" x2="73.65063509" y2="107.80127019"/>
    <line x1="61.15063509" y1="129.45190528" x2="82.80127019" y2="141.95190528"/>
    <line x1="73.65063509" y1="14.5" x2="86.15063509" y2="36.15063509"/>
    <line x1="73.65063509" y1="14.5" x2="98.65063509" y2="14.5"/>
    <line x1="73.65063509" y1="82.80127019" x2="73.65063509" y2="107.80127019"/>
    <line x1="73.65063509" y1="82.80127019" x2="86.15063509" y2="61.15063509"/>
    <line x1="73.65063509" y1="82.80127019" x2="95.30127019" y2="95.30127019"/>
    <line x1="73.65063509" y1="107.80127019" x2="95.30127019" y2="95.30127019"/>
    <line x1="73.65063509" y1="107.80127019" x2="95.30127019" y2="120.30127019"/>
    <line x1="82.80127019" y1="141.95190528" x2="95.30127019" y2="120.30127019"/>
    <line x1="86.15063509" y1="36.15063509" x2="86.15063509" y2="61.15063509"/>
    <line x1="86.15063509" y1="36.15063509" x2="98.65063509" y2="14.5"/>
    <line x1="86.15063509" y1="36.15063509" x2="107.80127019" y2="48.65063509"/>
    <line x1="86.15063509" y1="61.15063509" x2="107.80127019" y2="48.65063509"/>
    <line x1="86.15063509" y1="61.15063509" x2="107.80127019" y2="73.65063509"/>
    <line x1="95.30127019" y1="95.30127019" x2="95.30127019" y2="120.30127019"/>
    <line x1="95.30127019" y1="95.30127019" x2="107.80127019" y2="73.65063509"/>
    <line x1="95.30127019" y1="95.30127019" x2="120.30127019" y2="95.30127019"/>
    <line x1="95.30127019" y1="120.30127019" x2="120.30127019" y2="120.30127019"/>
    <line x1="98.65063509" y1="14.5" x2="120.30127019" y2="27.0"/>
    <line x1="107.80127019" y1="48.65063509" x2="107.80127019" y2="73.65063509"/>
    <line x1="107.80127019" y1="48.65063509" x2="120.30127019" y2="27.0"/>
    <line x1="107.80127019" y1="48.65063509" x2="132.80127019" y2="48.65063509"/>
    <line x1="107.80127019" y1="73.65063509" x2="120.30127019" y2="95.30127019"/>
    <line x1="107.80127019" y1="73.65063509" x2="132.80127019" y2="73.65063509"/>
    <line x1="120.30127019" y1="27.0" x2="132.80127019" y2="48.65063509"/>
    <line x1="120.30127019" y1="95.30127019" x2="120.30127019" y2="120.30127019"/>
    <line x1="120.30127019" y1="95.30127019" x2="132.80127019" y2="73.65063509"/>
    <line x1="132.80127019" y1="48.65063509" x2="132.80127019" y2="73.65063509"/>
  </g>
  <g>
    <g style="fill:goldenrod">
      <polygon 
      style="stroke:none" points="95.30127019,120.30127019 82.80127019,141.95190528 61.15063509,129.45190528 73.65063509,107.80127019">
</polygon>
      <polygon 
      style="stroke:none" points="39.5,23.65063509 39.5,48.65063509 14.5,48.65063509 14.5,23.65063509">
</polygon>
      <polygon 
      style="stroke:none" points="48.65063509,107.80127019 36.15063509,129.45190528 14.5,116.95190528 27.0,95.30127019">
</polygon>
      <polygon 
      style="stroke:none" points="2.0,70.30127019 27.0,70.30127019 27.0,95.30127019 2.0,95.30127019">
</polygon>
      <polygon 
      style="stroke:none" points="73.65063509,14.5 61.15063509,36.15063509 39.5,23.65063509 52.0,2.0">
</polygon>
      <polygon 
      style="stroke:none" points="95.30127019,120.30127019 95.30127019,95.30127019 120.30127019,95.30127019 120.30127019,120.30127019">
</polygon>
      <polygon 
      style="stroke:none" points="73.65063509,82.80127019 73.65063509,107.80127019 48.65063509,107.80127019 48.65063509,82.80127019">
</polygon>
      <polygon 
      style="stroke:none" points="39.5,48.65063509 61.15063509,61.15063509 48.65063509,82.80127019 27.0,70.30127019">
</polygon>
      <polygon 
      style="stroke:none" points="86.15063509,61.15063509 61.15063509,61.15063509 61.15063509,36.15063509 86.15063509,36.15063509">
</polygon>
      <polygon 
      style="stroke:none" points="95.30127019,95.30127019 73.65063509,82.80127019 86.15063509,61.15063509 107.80127019,73.65063509">
</polygon>
      <polygon 
      style="stroke:none" points="107.80127019,73.65063509 107.80127019,48.65063509 132.80127019,48.65063509 132.80127019,73.65063509">
</polygon>
      <polygon 
      style="stroke:none" points="120.30127019,27.0 107.80127019,48.65063509 86.15063509,36.15063509 98.65063509,14.5">
</polygon>
    </g>
    <g style="fill:yellow">
      <polygon 
      style="stroke:none" points="73.65063509,107.80127019 61.15063509,129.45190528 48.65063509,107.80127019">
</polygon>
      <polygon 
      style="stroke:none" points="27.0,70.30127019 2.0,70.30127019 14.5,48.65063509">
</polygon>
      <polygon 
      style="stroke:none" points="39.5,48.65063509 27.0,70.30127019 14.5,48.65063509">
</polygon>
      <polygon 
      style="stroke:none" points="39.5,48.65063509 39.5,23.65063509 61.15063509,36.15063509">
</polygon>
      <polygon 
      style="stroke:none" points="95.30127019,95.30127019 95.30127019,120.30127019 73.65063509,107.80127019">
</polygon>
      <polygon 
      style="stroke:none" points="73.65063509,82.80127019 95.30127019,95.30127019 73.65063509,107.80127019">
</polygon>
      <polygon 
      style="stroke:none" points="48.65063509,82.80127019 48.65063509,107.80127019 27.0,95.30127019">
</polygon>
      <polygon 
      style="stroke:none" points="27.0,70.30127019 48.65063509,82.80127019 27.0,95.30127019">
</polygon>
      <polygon 
      style="stroke:none" points="61.15063509,61.15063509 39.5,48.65063509 61.15063509,36.15063509">
</polygon>
      <polygon 
      style="stroke:none" points="73.65063509,82.80127019 48.65063509,82.80127019 61.15063509,61.15063509">
</polygon>
      <polygon 
      style="stroke:none" points="86.15063509,61.15063509 73.65063509,82.80127019 61.15063509,61.15063509">
</polygon>
      <polygon 
      style="stroke:none" points="73.65063509,14.5 86.15063509,36.15063509 61.15063509,36.15063509">
</polygon>
      <polygon 
      style="stroke:none" points="86.15063509,36.15063509 73.65063509,14.5 98.65063509,14.5">
</polygon>
      <polygon 
      style="stroke:none" points="107.80127019,73.65063509 120.30127019,95.30127019 95.30127019,95.30127019">
</polygon>
      <polygon 
      style="stroke:none" points="107.80127019,73.65063509 132.80127019,73.65063509 120.30127019,95.30127019">
</polygon>
      <polygon 
      style="stroke:none" points="86.15063509,61.15063509 107.80127019,48.65063509 107.80127019,73.65063509">
</polygon>
      <polygon 
      style="stroke:none" points="107.80127019,48.65063509 86.15063509,61.15063509 86.15063509,36.15063509">
</polygon>
      <polygon 
      style="stroke:none" points="120.30127019,27.0 132.80127019,48.65063509 107.80127019,48.65063509">
</polygon>
    </g>
  </g>
</svg>