<?xml version='1.0' encoding='UTF-8'?>
<svg version="1.1" xmlns="http://www.w3.org/2000/svg">
  <g style="stroke:black">
    <line x1="2.0" y1="45.30127019" x2="14.5" y2="23.65063509"/>
    <line x1="2.0" y1="45.30127019" x2="14.5" y2="66.95190528"/>
    <line x1="2.0" y1="45.30127019" x2="27.0" y2="45.30127019"/>
    <line x1="14.5" y1="23.65063509" x2="27.0" y2="2.0"/>
    <line x1="14.5" y1="23.65063509" x2="27.0" y2="45.30127019"/>
    <line x1="14.5" y1="23.65063509" x2="39.5" y2="23.65063509"/>
    <line x1="14.5" y1="66.95190528" x2="27.0" y2="45.30127019"/>
    <line x1="14.5" y1="66.95190528" x2="27.0" y2="88.60254038"/>
    <line x1="14.5" y1="66.95190528" x2="39.5" y2="66.95190528"/>
    <line x1="27.0" y1="2.0" x2="39.5" y2="23.65063509"/>
    <line x1="27.0" y1="2.0" x2="52.0" y2="2.0"/>
    <line x1="27.0" y1="45.30127019" x2="39.5" y2="23.65063509"/>
    <line x1="27.0" y1="45.30127019" x2="39.5" y2="66.95190528"/>
    <line x1="27.0" y1="45.30127019" x2="52.0" y2="45.30127019"/>
    <line x1="27.0" y1="88.60254038" x2="39.5" y2="66.95190528"/>
    <line x1="27.0" y1="88.60254038" x2="52.0" y2="88.60254038"/>
    <line x1="39.5" y1="23.65063509" x2="52.0" y2="2.0"/>
    <line x1="39.5" y1="23.65063509" x2="52.0" y2="45.30127019"/>
    <line x1="39.5" y1="23.65063509" x2="64.5" y2="23.65063509"/>
    <line x1="39.5" y1="66.95190528" x2="52.0" y2="45.30127019"/>
    <line x1="39.5" y1="66.95190528" x2="52.0" y2="88.60254038"/>
    <line x1="39.5" y1="66.95190528" x2="64.5" y2="66.95190528"/>
    <line x1="52.0" y1="2.0" x2="64.5" y2="23.65063509"/>
    <line x1="52.0" y1="2.0" x2="77.0" y2="2.0"/>
    <line x1="52.0" y1="45.30127019" x2="64.5" y2="23.65063509"/>
    <line x1="52.0" y1="45.30127019" x2="64.5" y2="66.95190528"/>
    <line x1="52.0" y1="45.30127019" x2="77.0" y2="45.30127019"/>
    <line x1="52.0" y1="88.60254038" x2="64.5" y2="66.95190528"/>
    <line x1="52.0" y1="88.60254038" x2="77.0" y2="88.60254038"/>
    <line x1="64.5" y1="23.65063509" x2="77.0" y2="2.0"/>
    <line x1="64.5" y1="23.65063509" x2="77.0" y2="45.30127019"/>
    <line x1="64.5" y1="23.65063509" x2="89.5" y2="23.65063509"/>
    <line x1="64.5" y1="66.95190528" x2="77.0" y2="45.30127019"/>
    <line x1="64.5" y1="66.95190528" x2="77.0" y2="88.60254038"/>
    <line x1="64.5" y1="66.95190528" x2="89.5" y2="66.95190528"/>
    <line x1="77.0" y1="2.0" x2="89.5" y2="23.65063509"/>
    <line x1="77.0" y1="2.0" x2="102.0" y2="2.0"/>
    <line x1="77.0" y1="45.30127019" x2="89.5" y2="23.65063509"/>
    <line x1="77.0" y1="45.30127019" x2="89.5" y2="66.95190528"/>
    <line x1="77.0" y1="45.30127019" x2="102.0" y2="45.30127019"/>
    <line x1="77.0" y1="88.60254038" x2="89.5" y2="66.95190528"/>
    <line x1="77.0" y1="88.60254038" x2="102.0" y2="88.60254038"/>
    <line x1="89.5" y1="23.65063509" x2="102.0" y2="2.0"/>
    <line x1="89.5" y1="23.65063509" x2="102.0" y2="45.30127019"/>
    <line x1="89.5" y1="23.65063509" x2="114.5" y2="23.65063509"/>
    <line x1="89.5" y1="66.95190528" x2="102.0" y2="45.30127019"/>
    <line x1="89.5" y1="66.95190528" x2="102.0" y2="88.60254038"/>
    <line x1="89.5" y1="66.95190528" x2="114.5" y2="66.95190528"/>
    <line x1="102.0" y1="2.0" x2="114.5" y2="23.65063509"/>
    <line x1="102.0" y1="45.30127019" x2="114.5" y2="23.65063509"/>
    <line x1="102.0" y1="45.30127019" x2="114.5" y2="66.95190528"/>
    <line x1="102.0" y1="88.60254038" x2="114.5" y2="66.95190528"/>
  </g>
  <g>
    <g style="fill:yellow">
      <polygon 
      style="stroke:none" points="27.0,45.30127019 2.0,45.30127019 14.5,23.65063509">
</polygon>
      <polygon 
      style="stroke:none" points="27.0,45.30127019 14.5,66.95190528 2.0,45.30127019">
</polygon>
      <polygon 
      style="stroke:none" points="39.5,23.65063509 27.0,45.30127019 14.5,23.65063509">
</polygon>
      <polygon 
      style="stroke:none" points="39.5,23.65063509 14.5,23.65063509 27.0,2.0">
</polygon>
      <polygon style="stroke:none" points="52.0,2.0 39.5,23.65063509 27.0,2.0"/>
      <polygon 
      style="stroke:none" points="39.5,66.95190528 14.5,66.95190528 27.0,45.30127019">
</polygon>
      <polygon 
      style="stroke:none" points="39.5,66.95190528 27.0,88.60254038 14.5,66.95190528">
</polygon>
      <polygon 
      style="stroke:none" points="52.0,88.60254038 27.0,88.60254038 39.5,66.95190528">
</polygon>
      <polygon 
      style="stroke:none" points="52.0,45.30127019 27.0,45.30127019 39.5,23.65063509">
</polygon>
      <polygon 
      style="stroke:none" points="52.0,45.30127019 39.5,66.95190528 27.0,45.30127019">
</polygon>
      <polygon 
      style="stroke:none" points="89.5,66.95190528 102.0,45.30127019 114.5,66.95190528">
</polygon>
      <polygon 
      style="stroke:none" points="89.5,66.95190528 114.5,66.95190528 102.0,88.60254038">
</polygon>
      <polygon 
      style="stroke:none" points="77.0,88.60254038 89.5,66.95190528 102.0,88.60254038">
</polygon>
      <polygon 
      style="stroke:none" points="64.5,66.95190528 77.0,88.60254038 52.0,88.60254038">
</polygon>
      <polygon 
      style="stroke:none" points="64.5,66.95190528 89.5,66.95190528 77.0,88.60254038">
</polygon>
      <polygon 
      style="stroke:none" points="39.5,66.95190528 64.5,66.95190528 52.0,88.60254038">
</polygon>
      <polygon 
      style="stroke:none" points="52.0,45.30127019 64.5,66.95190528 39.5,66.95190528">
</polygon>
      <polygon style="stroke:none" points="64.5,23.65063509 52.0,2.0 77.0,2.0"/>
      <polygon 
      style="stroke:none" points="64.5,23.65063509 39.5,23.65063509 52.0,2.0">
</polygon>
      <polygon 
      style="stroke:none" points="64.5,23.65063509 52.0,45.30127019 39.5,23.65063509">
</polygon>
      <polygon 
      style="stroke:none" points="77.0,45.30127019 52.0,45.30127019 64.5,23.65063509">
</polygon>
      <polygon 
      style="stroke:none" points="77.0,45.30127019 64.5,66.95190528 52.0,45.30127019">
</polygon>
      <polygon 
      style="stroke:none" points="77.0,45.30127019 89.5,66.95190528 64.5,66.95190528">
</polygon>
      <polygon 
      style="stroke:none" points="102.0,45.30127019 89.5,66.95190528 77.0,45.30127019">
</polygon>
      <polygon 
      style="stroke:none" points="89.5,23.65063509 64.5,23.65063509 77.0,2.0">
</polygon>
      <polygon style="stroke:none" points="89.5,23.65063509 77.0,2.0 102.0,2.0"/>
      <polygon 
      style="stroke:none" points="89.5,23.65063509 77.0,45.30127019 64.5,23.65063509">
</polygon>
      <polygon 
      style="stroke:none" points="89.5,23.65063509 102.0,45.30127019 77.0,45.30127019">
</polygon>
      <polygon 
      style="stroke:none" points="89.5,23.65063509 114.5,23.65063509 102.0,45.30127019">
</polygon>
      <polygon 
      style="stroke:none" points="102.0,2.0 114.5,23.65063509 89.5,23.65063509">
</polygon>
    </g>
  </g>
</svg>