<?xml version='1.0' encoding='UTF-8'?>
<svg version="1.1" xmlns="http://www.w3.org/2000/svg">
  <g style="stroke:black">
    <line x1="2.0" y1="88.60254038" x2="14.5" y2="66.95190528"/>
    <line x1="2.0" y1="88.60254038" x2="14.5" y2="110.25317547"/>
    <line x1="2.0" y1="131.90381057" x2="14.5" y2="110.25317547"/>
    <line x1="2.0" y1="131.90381057" x2="14.5" y2="153.55444566"/>
    <line x1="2.0" y1="175.20508076" x2="14.5" y2="153.55444566"/>
    <line x1="2.0" y1="175.20508076" x2="14.5" y2="196.85571585"/>
    <line x1="14.5" y1="66.95190528" x2="39.5" y2="66.95190528"/>
    <line x1="14.5" y1="110.25317547" x2="39.5" y2="110.25317547"/>
    <line x1="14.5" y1="153.55444566" x2="39.5" y2="153.55444566"/>
    <line x1="14.5" y1="196.85571585" x2="39.5" y2="196.85571585"/>
    <line x1="39.5" y1="66.95190528" x2="52.0" y2="45.30127019"/>
    <line x1="39.5" y1="66.95190528" x2="52.0" y2="88.60254038"/>
    <line x1="39.5" y1="110.25317547" x2="52.0" y2="88.60254038"/>
    <line x1="39.5" y1="110.25317547" x2="52.0" y2="131.90381057"/>
    <line x1="39.5" y1="153.55444566" x2="52.0" y2="131.90381057"/>
    <line x1="39.5" y1="153.55444566" x2="52.0" y2="175.20508076"/>
    <line x1="39.5" y1="196.85571585" x2="52.0" y2="175.20508076"/>
    <line x1="39.5" y1="196.85571585" x2="52.0" y2="218.50635095"/>
    <line x1="52.0" y1="45.30127019" x2="77.0" y2="45.30127019"/>
    <line x1="52.0" y1="88.60254038" x2="77.0" y2="88.60254038"/>
    <line x1="52.0" y1="131.90381057" x2="77.0" y2="131.90381057"/>
    <line x1="52.0" y1="175.20508076" x2="77.0" y2="175.20508076"/>
    <line x1="52.0" y1="218.50635095" x2="77.0" y2="218.50635095"/>
    <line x1="77.0" y1="45.30127019" x2="89.5" y2="23.65063509"/>
    <line x1="77.0" y1="45.30127019" x2="89.5" y2="66.95190528"/>
    <line x1="77.0" y1="88.60254038" x2="89.5" y2="66.95190528"/>
    <line x1="77.0" y1="88.60254038" x2="89.5" y2="110.25317547"/>
    <line x1="77.0" y1="131.90381057" x2="89.5" y2="110.25317547"/>
    <line x1="77.0" y1="131.90381057" x2="89.5" y2="153.55444566"/>
    <line x1="77.0" y1="175.20508076" x2="89.5" y2="153.55444566"/>
    <line x1="77.0" y1="175.20508076" x2="89.5" y2="196.85571585"/>
    <line x1="77.0" y1="218.50635095" x2="89.5" y2="196.85571585"/>
    <line x1="77.0" y1="218.50635095" x2="89.5" y2="240.15698604"/>
    <line x1="89.5" y1="23.65063509" x2="114.5" y2="23.65063509"/>
    <line x1="89.5" y1="66.95190528" x2="114.5" y2="66.95190528"/>
    <line x1="89.5" y1="110.25317547" x2="114.5" y2="110.25317547"/>
    <line x1="89.5" y1="153.55444566" x2="114.5" y2="153.55444566"/>
    <line x1="89.5" y1="196.85571585" x2="114.5" y2="196.85571585"/>
    <line x1="89.5" y1="240.15698604" x2="114.5" y2="240.15698604"/>
    <line x1="114.5" y1="23.65063509" x2="127.0" y2="2.0"/>
    <line x1="114.5" y1="23.65063509" x2="127.0" y2="45.30127019"/>
    <line x1="114.5" y1="66.95190528" x2="127.0" y2="45.30127019"/>
    <line x1="114.5" y1="66.95190528" x2="127.0" y2="88.60254038"/>
    <line x1="114.5" y1="110.25317547" x2="127.0" y2="88.60254038"/>
    <line x1="114.5" y1="110.25317547" x2="127.0" y2="131.90381057"/>
    <line x1="114.5" y1="153.55444566" x2="127.0" y2="131.90381057"/>
    <line x1="114.5" y1="153.55444566" x2="127.0" y2="175.20508076"/>
    <line x1="114.5" y1="196.85571585" x2="127.0" y2="175.20508076"/>
    <line x1="114.5" y1="196.85571585" x2="127.0" y2="218.50635095"/>
    <line x1="114.5" y1="240.15698604" x2="127.0" y2="218.50635095"/>
    <line x1="114.5" y1="240.15698604" x2="127.0" y2="261.80762114"/>
    <line x1="127.0" y1="2.0" x2="152.0" y2="2.0"/>
    <line x1="127.0" y1="45.30127019" x2="152.0" y2="45.30127019"/>
    <line x1="127.0" y1="88.60254038" x2="152.0" y2="88.60254038"/>
    <line x1="127.0" y1="131.90381057" x2="152.0" y2="131.90381057"/>
    <line x1="127.0" y1="175.20508076" x2="152.0" y2="175.20508076"/>
    <line x1="127.0" y1="218.50635095" x2="152.0" y2="218.50635095"/>
    <line x1="127.0" y1="261.80762114" x2="152.0" y2="261.80762114"/>
    <line x1="152.0" y1="2.0" x2="164.5" y2="23.65063509"/>
    <line x1="152.0" y1="45.30127019" x2="164.5" y2="23.65063509"/>
    <line x1="152.0" y1="45.30127019" x2="164.5" y2="66.95190528"/>
    <line x1="152.0" y1="88.60254038" x2="164.5" y2="66.95190528"/>
    <line x1="152.0" y1="88.60254038" x2="164.5" y2="110.25317547"/>
    <line x1="152.0" y1="131.90381057" x2="164.5" y2="110.25317547"/>
    <line x1="152.0" y1="131.90381057" x2="164.5" y2="153.55444566"/>
    <line x1="152.0" y1="175.20508076" x2="164.5" y2="153.55444566"/>
    <line x1="152.0" y1="175.20508076" x2="164.5" y2="196.85571585"/>
    <line x1="152.0" y1="218.50635095" x2="164.5" y2="196.85571585"/>
    <line x1="152.0" y1="218.50635095" x2="164.5" y2="240.15698604"/>
    <line x1="152.0" y1="261.80762114" x2="164.5" y2="240.15698604"/>
    <line x1="164.5" y1="23.65063509" x2="189.5" y2="23.65063509"/>
    <line x1="164.5" y1="66.95190528" x2="189.5" y2="66.95190528"/>
    <line x1="164.5" y1="110.25317547" x2="189.5" y2="110.25317547"/>
    <line x1="164.5" y1="153.55444566" x2="189.5" y2="153.55444566"/>
    <line x1="164.5" y1="196.85571585" x2="189.5" y2="196.85571585"/>
    <line x1="164.5" y1="240.15698604" x2="189.5" y2="240.15698604"/>
    <line x1="189.5" y1="23.65063509" x2="202.0" y2="45.30127019"/>
    <line x1="189.5" y1="66.95190528" x2="202.0" y2="45.30127019"/>
    <line x1="189.5" y1="66.95190528" x2="202.0" y2="88.60254038"/>
    <line x1="189.5" y1="110.25317547" x2="202.0" y2="88.60254038"/>
    <line x1="189.5" y1="110.25317547" x2="202.0" y2="131.90381057"/>
    <line x1="189.5" y1="153.55444566" x2="202.0" y2="131.90381057"/>
    <line x1="189.5" y1="153.55444566" x2="202.0" y2="175.20508076"/>
    <line x1="189.5" y1="196.85571585" x2="202.0" y2="175.20508076"/>
    <line x1="189.5" y1="196.85571585" x2="202.0" y2="218.50635095"/>
    <line x1="189.5" y1="240.15698604" x2="202.0" y2="218.50635095"/>
    <line x1="202.0" y1="45.30127019" x2="227.0" y2="45.30127019"/>
    <line x1="202.0" y1="88.60254038" x2="227.0" y2="88.60254038"/>
    <line x1="202.0" y1="131.90381057" x2="227.0" y2="131.90381057"/>
    <line x1="202.0" y1="175.20508076" x2="227.0" y2="175.20508076"/>
    <line x1="202.0" y1="218.50635095" x2="227.0" y2="218.50635095"/>
    <line x1="227.0" y1="45.30127019" x2="239.5" y2="66.95190528"/>
    <line x1="227.0" y1="88.60254038" x2="239.5" y2="66.95190528"/>
    <line x1="227.0" y1="88.60254038" x2="239.5" y2="110.25317547"/>
    <line x1="227.0" y1="131.90381057" x2="239.5" y2="110.25317547"/>
    <line x1="227.0" y1="131.90381057" x2="239.5" y2="153.55444566"/>
    <line x1="227.0" y1="175.20508076" x2="239.5" y2="153.55444566"/>
    <line x1="227.0" y1="175.20508076" x2="239.5" y2="196.85571585"/>
    <line x1="227.0" y1="218.50635095" x2="239.5" y2="196.85571585"/>
    <line x1="239.5" y1="66.95190528" x2="264.5" y2="66.95190528"/>
    <line x1="239.5" y1="110.25317547" x2="264.5" y2="110.25317547"/>
    <line x1="239.5" y1="153.55444566" x2="264.5" y2="153.55444566"/>
    <line x1="239.5" y1="196.85571585" x2="264.5" y2="196.85571585"/>
    <line x1="264.5" y1="66.95190528" x2="277.0" y2="88.60254038"/>
    <line x1="264.5" y1="110.25317547" x2="277.0" y2="88.60254038"/>
    <line x1="264.5" y1="110.25317547" x2="277.0" y2="131.90381057"/>
    <line x1="264.5" y1="153.55444566" x2="277.0" y2="131.90381057"/>
    <line x1="264.5" y1="153.55444566" x2="277.0" y2="175.20508076"/>
    <line x1="264.5" y1="196.85571585" x2="277.0" y2="175.20508076"/>
  </g>
  <g>
    <g style="fill:grey">
      <polygon 
      style="stroke:none" points="114.5,240.15698604 89.5,240.15698604 77.0,218.50635095 89.5,196.85571585 114.5,196.85571585 127.0,218.50635095">
</polygon>
      <polygon 
      style="stroke:none" points="14.5,110.25317547 2.0,88.60254038 14.5,66.95190528 39.5,66.95190528 52.0,88.60254038 39.5,110.25317547">
</polygon>
      <polygon 
      style="stroke:none" points="52.0,218.50635095 39.5,196.85571585 52.0,175.20508076 77.0,175.20508076 89.5,196.85571585 77.0,218.50635095">
</polygon>
      <polygon 
      style="stroke:none" points="77.0,175.20508076 89.5,153.55444566 114.5,153.55444566 127.0,175.20508076 114.5,196.85571585 89.5,196.85571585">
</polygon>
      <polygon 
      style="stroke:none" points="114.5,23.65063509 127.0,2.0 152.0,2.0 164.5,23.65063509 152.0,45.30127019 127.0,45.30127019">
</polygon>
      <polygon 
      style="stroke:none" points="127.0,45.30127019 114.5,66.95190528 89.5,66.95190528 77.0,45.30127019 89.5,23.65063509 114.5,23.65063509">
</polygon>
      <polygon 
      style="stroke:none" points="164.5,240.15698604 152.0,218.50635095 164.5,196.85571585 189.5,196.85571585 202.0,218.50635095 189.5,240.15698604">
</polygon>
      <polygon 
      style="stroke:none" points="189.5,196.85571585 202.0,175.20508076 227.0,175.20508076 239.5,196.85571585 227.0,218.50635095 202.0,218.50635095">
</polygon>
      <polygon 
      style="stroke:none" points="239.5,66.95190528 264.5,66.95190528 277.0,88.60254038 264.5,110.25317547 239.5,110.25317547 227.0,88.60254038">
</polygon>
      <polygon 
      style="stroke:none" points="89.5,153.55444566 77.0,175.20508076 52.0,175.20508076 39.5,153.55444566 52.0,131.90381057 77.0,131.90381057">
</polygon>
      <polygon 
      style="stroke:none" points="52.0,175.20508076 39.5,196.85571585 14.5,196.85571585 2.0,175.20508076 14.5,153.55444566 39.5,153.55444566">
</polygon>
      <polygon 
      style="stroke:none" points="164.5,196.85571585 152.0,175.20508076 164.5,153.55444566 189.5,153.55444566 202.0,175.20508076 189.5,196.85571585">
</polygon>
      <polygon 
      style="stroke:none" points="227.0,175.20508076 202.0,175.20508076 189.5,153.55444566 202.0,131.90381057 227.0,131.90381057 239.5,153.55444566">
</polygon>
      <polygon 
      style="stroke:none" points="164.5,153.55444566 152.0,131.90381057 164.5,110.25317547 189.5,110.25317547 202.0,131.90381057 189.5,153.55444566">
</polygon>
      <polygon 
      style="stroke:none" points="189.5,23.65063509 202.0,45.30127019 189.5,66.95190528 164.5,66.95190528 152.0,45.30127019 164.5,23.65063509">
</polygon>
      <polygon 
      style="stroke:none" points="152.0,261.80762114 127.0,261.80762114 114.5,240.15698604 127.0,218.50635095 152.0,218.50635095 164.5,240.15698604">
</polygon>
      <polygon 
      style="stroke:none" points="14.5,153.55444566 2.0,131.90381057 14.5,110.25317547 39.5,110.25317547 52.0,131.90381057 39.5,153.55444566">
</polygon>
      <polygon 
      style="stroke:none" points="52.0,88.60254038 39.5,66.95190528 52.0,45.30127019 77.0,45.30127019 89.5,66.95190528 77.0,88.60254038">
</polygon>
      <polygon 
      style="stroke:none" points="77.0,88.60254038 89.5,66.95190528 114.5,66.95190528 127.0,88.60254038 114.5,110.25317547 89.5,110.25317547">
</polygon>
      <polygon 
      style="stroke:none" points="89.5,110.25317547 77.0,131.90381057 52.0,131.90381057 39.5,110.25317547 52.0,88.60254038 77.0,88.60254038">
</polygon>
      <polygon 
      style="stroke:none" points="114.5,110.25317547 127.0,131.90381057 114.5,153.55444566 89.5,153.55444566 77.0,131.90381057 89.5,110.25317547">
</polygon>
      <polygon 
      style="stroke:none" points="127.0,45.30127019 152.0,45.30127019 164.5,66.95190528 152.0,88.60254038 127.0,88.60254038 114.5,66.95190528">
</polygon>
      <polygon 
      style="stroke:none" points="152.0,175.20508076 164.5,196.85571585 152.0,218.50635095 127.0,218.50635095 114.5,196.85571585 127.0,175.20508076">
</polygon>
      <polygon 
      style="stroke:none" points="152.0,175.20508076 127.0,175.20508076 114.5,153.55444566 127.0,131.90381057 152.0,131.90381057 164.5,153.55444566">
</polygon>
      <polygon 
      style="stroke:none" points="114.5,110.25317547 127.0,88.60254038 152.0,88.60254038 164.5,110.25317547 152.0,131.90381057 127.0,131.90381057">
</polygon>
      <polygon 
      style="stroke:none" points="164.5,110.25317547 152.0,88.60254038 164.5,66.95190528 189.5,66.95190528 202.0,88.60254038 189.5,110.25317547">
</polygon>
      <polygon 
      style="stroke:none" points="227.0,45.30127019 239.5,66.95190528 227.0,88.60254038 202.0,88.60254038 189.5,66.95190528 202.0,45.30127019">
</polygon>
      <polygon 
      style="stroke:none" points="227.0,131.90381057 202.0,131.90381057 189.5,110.25317547 202.0,88.60254038 227.0,88.60254038 239.5,110.25317547">
</polygon>
      <polygon 
      style="stroke:none" points="239.5,196.85571585 227.0,175.20508076 239.5,153.55444566 264.5,153.55444566 277.0,175.20508076 264.5,196.85571585">
</polygon>
      <polygon 
      style="stroke:none" points="277.0,131.90381057 264.5,153.55444566 239.5,153.55444566 227.0,131.90381057 239.5,110.25317547 264.5,110.25317547">
</polygon>
    </g>
  </g>
</svg>