<?xml version='1.0' encoding='UTF-8'?>
<svg version="1.1" xmlns="http://www.w3.org/2000/svg">
  <g style="stroke:black">
    <line x1="266.05444566" y1="36.15063509" x2="241.05444566" y2="36.15063509"/>
    <line x1="14.5" y1="73.65063509" x2="36.15063509" y2="61.15063509"/>
    <line x1="14.5" y1="73.65063509" x2="2.0" y2="95.30127019"/>
    <line x1="206.90381057" y1="213.60254038" x2="185.25317547" y2="201.10254038"/>
    <line x1="206.90381057" y1="213.60254038" x2="206.90381057" y2="238.60254038"/>
    <line x1="129.45190528" y1="36.15063509" x2="129.45190528" y2="61.15063509"/>
    <line x1="129.45190528" y1="36.15063509" x2="151.10254038" y2="23.65063509"/>
    <line x1="197.75317547" y1="179.45190528" x2="172.75317547" y2="179.45190528"/>
    <line x1="197.75317547" y1="179.45190528" x2="219.40381057" y2="191.95190528"/>
    <line x1="163.60254038" y1="120.30127019" x2="151.10254038" y2="141.95190528"/>
    <line x1="163.60254038" y1="120.30127019" x2="185.25317547" y2="132.80127019"/>
    <line x1="231.90381057" y1="2.0" x2="219.40381057" y2="23.65063509"/>
    <line x1="231.90381057" y1="2.0" x2="206.90381057" y2="2.0"/>
    <line x1="36.15063509" y1="36.15063509" x2="61.15063509" y2="36.15063509"/>
    <line x1="48.65063509" y1="201.10254038" x2="70.30127019" y2="213.60254038"/>
    <line x1="48.65063509" y1="201.10254038" x2="36.15063509" y2="179.45190528"/>
    <line x1="172.75317547" y1="36.15063509" x2="172.75317547" y2="61.15063509"/>
    <line x1="172.75317547" y1="36.15063509" x2="197.75317547" y2="36.15063509"/>
    <line x1="104.45190528" y1="61.15063509" x2="116.95190528" y2="82.80127019"/>
    <line x1="129.45190528" y1="154.45190528" x2="116.95190528" y2="132.80127019"/>
    <line x1="129.45190528" y1="154.45190528" x2="104.45190528" y2="154.45190528"/>
    <line x1="197.75317547" y1="272.75317547" x2="185.25317547" y2="251.10254038"/>
    <line x1="300.20508076" y1="120.30127019" x2="300.20508076" y2="95.30127019"/>
    <line x1="300.20508076" y1="120.30127019" x2="287.70508076" y2="141.95190528"/>
    <line x1="70.30127019" y1="238.60254038" x2="95.30127019" y2="238.60254038"/>
    <line x1="61.15063509" y1="61.15063509" x2="82.80127019" y2="73.65063509"/>
    <line x1="61.15063509" y1="61.15063509" x2="61.15063509" y2="36.15063509"/>
    <line x1="151.10254038" y1="73.65063509" x2="138.60254038" y2="95.30127019"/>
    <line x1="151.10254038" y1="73.65063509" x2="163.60254038" y2="95.30127019"/>
    <line x1="151.10254038" y1="73.65063509" x2="172.75317547" y2="61.15063509"/>
    <line x1="104.45190528" y1="154.45190528" x2="116.95190528" y2="132.80127019"/>
    <line x1="104.45190528" y1="154.45190528" x2="104.45190528" y2="179.45190528"/>
    <line x1="104.45190528" y1="154.45190528" x2="82.80127019" y2="141.95190528"/>
    <line x1="287.70508076" y1="73.65063509" x2="266.05444566" y2="61.15063509"/>
    <line x1="287.70508076" y1="73.65063509" x2="300.20508076" y2="95.30127019"/>
    <line x1="116.95190528" y1="251.10254038" x2="95.30127019" y2="238.60254038"/>
    <line x1="116.95190528" y1="251.10254038" x2="104.45190528" y2="272.75317547"/>
    <line x1="82.80127019" y1="23.65063509" x2="104.45190528" y2="36.15063509"/>
    <line x1="82.80127019" y1="23.65063509" x2="95.30127019" y2="2.0"/>
    <line x1="82.80127019" y1="191.95190528" x2="104.45190528" y2="179.45190528"/>
    <line x1="82.80127019" y1="191.95190528" x2="95.30127019" y2="213.60254038"/>
    <line x1="82.80127019" y1="141.95190528" x2="95.30127019" y2="120.30127019"/>
    <line x1="82.80127019" y1="141.95190528" x2="61.15063509" y2="154.45190528"/>
    <line x1="266.05444566" y1="179.45190528" x2="266.05444566" y2="154.45190528"/>
    <line x1="266.05444566" y1="179.45190528" x2="253.55444566" y2="201.10254038"/>
    <line x1="36.15063509" y1="154.45190528" x2="36.15063509" y2="179.45190528"/>
    <line x1="36.15063509" y1="154.45190528" x2="48.65063509" y2="132.80127019"/>
    <line x1="36.15063509" y1="154.45190528" x2="14.5" y2="141.95190528"/>
    <line x1="241.05444566" y1="36.15063509" x2="219.40381057" y2="23.65063509"/>
    <line x1="241.05444566" y1="36.15063509" x2="253.55444566" y2="14.5"/>
    <line x1="48.65063509" y1="132.80127019" x2="70.30127019" y2="120.30127019"/>
    <line x1="48.65063509" y1="132.80127019" x2="27.0" y2="120.30127019"/>
    <line x1="70.30127019" y1="95.30127019" x2="95.30127019" y2="95.30127019"/>
    <line x1="185.25317547" y1="82.80127019" x2="163.60254038" y2="95.30127019"/>
    <line x1="287.70508076" y1="141.95190528" x2="275.20508076" y2="120.30127019"/>
    <line x1="138.60254038" y1="2.0" x2="151.10254038" y2="23.65063509"/>
    <line x1="206.90381057" y1="238.60254038" x2="185.25317547" y2="251.10254038"/>
    <line x1="206.90381057" y1="238.60254038" x2="219.40381057" y2="260.25317547"/>
    <line x1="27.0" y1="95.30127019" x2="48.65063509" y2="82.80127019"/>
    <line x1="27.0" y1="95.30127019" x2="14.5" y2="73.65063509"/>
    <line x1="138.60254038" y1="213.60254038" x2="116.95190528" y2="201.10254038"/>
    <line x1="138.60254038" y1="213.60254038" x2="163.60254038" y2="213.60254038"/>
    <line x1="151.10254038" y1="191.95190528" x2="129.45190528" y2="179.45190528"/>
    <line x1="151.10254038" y1="191.95190528" x2="138.60254038" y2="213.60254038"/>
    <line x1="82.80127019" y1="260.25317547" x2="95.30127019" y2="238.60254038"/>
    <line x1="82.80127019" y1="260.25317547" x2="70.30127019" y2="238.60254038"/>
    <line x1="185.25317547" y1="14.5" x2="172.75317547" y2="36.15063509"/>
    <line x1="185.25317547" y1="14.5" x2="197.75317547" y2="36.15063509"/>
    <line x1="185.25317547" y1="14.5" x2="206.90381057" y2="2.0"/>
    <line x1="163.60254038" y1="238.60254038" x2="163.60254038" y2="213.60254038"/>
    <line x1="163.60254038" y1="238.60254038" x2="138.60254038" y2="238.60254038"/>
    <line x1="275.20508076" y1="120.30127019" x2="275.20508076" y2="95.30127019"/>
    <line x1="275.20508076" y1="120.30127019" x2="300.20508076" y2="120.30127019"/>
    <line x1="61.15063509" y1="154.45190528" x2="61.15063509" y2="179.45190528"/>
    <line x1="61.15063509" y1="154.45190528" x2="48.65063509" y2="132.80127019"/>
    <line x1="61.15063509" y1="154.45190528" x2="36.15063509" y2="154.45190528"/>
    <line x1="185.25317547" y1="132.80127019" x2="172.75317547" y2="154.45190528"/>
    <line x1="185.25317547" y1="132.80127019" x2="206.90381057" y2="120.30127019"/>
    <line x1="185.25317547" y1="132.80127019" x2="197.75317547" y2="154.45190528"/>
    <line x1="231.90381057" y1="213.60254038" x2="253.55444566" y2="201.10254038"/>
    <line x1="231.90381057" y1="213.60254038" x2="206.90381057" y2="213.60254038"/>
    <line x1="231.90381057" y1="213.60254038" x2="231.90381057" y2="238.60254038"/>
    <line x1="48.65063509" y1="14.5" x2="70.30127019" y2="2.0"/>
    <line x1="48.65063509" y1="14.5" x2="36.15063509" y2="36.15063509"/>
    <line x1="253.55444566" y1="82.80127019" x2="231.90381057" y2="95.30127019"/>
    <line x1="253.55444566" y1="82.80127019" x2="241.05444566" y2="61.15063509"/>
    <line x1="219.40381057" y1="73.65063509" x2="197.75317547" y2="61.15063509"/>
    <line x1="219.40381057" y1="73.65063509" x2="231.90381057" y2="95.30127019"/>
    <line x1="206.90381057" y1="120.30127019" x2="206.90381057" y2="95.30127019"/>
    <line x1="206.90381057" y1="120.30127019" x2="231.90381057" y2="120.30127019"/>
    <line x1="116.95190528" y1="132.80127019" x2="95.30127019" y2="120.30127019"/>
    <line x1="116.95190528" y1="132.80127019" x2="138.60254038" y2="120.30127019"/>
    <line x1="172.75317547" y1="272.75317547" x2="151.10254038" y2="260.25317547"/>
    <line x1="172.75317547" y1="272.75317547" x2="197.75317547" y2="272.75317547"/>
    <line x1="95.30127019" y1="2.0" x2="116.95190528" y2="14.5"/>
    <line x1="95.30127019" y1="2.0" x2="70.30127019" y2="2.0"/>
    <line x1="241.05444566" y1="179.45190528" x2="241.05444566" y2="154.45190528"/>
    <line x1="241.05444566" y1="179.45190528" x2="266.05444566" y2="179.45190528"/>
    <line x1="185.25317547" y1="201.10254038" x2="163.60254038" y2="213.60254038"/>
    <line x1="185.25317547" y1="201.10254038" x2="197.75317547" y2="179.45190528"/>
    <line x1="172.75317547" y1="61.15063509" x2="185.25317547" y2="82.80127019"/>
    <line x1="95.30127019" y1="95.30127019" x2="116.95190528" y2="82.80127019"/>
    <line x1="95.30127019" y1="95.30127019" x2="82.80127019" y2="73.65063509"/>
    <line x1="129.45190528" y1="272.75317547" x2="116.95190528" y2="251.10254038"/>
    <line x1="2.0" y1="95.30127019" x2="27.0" y2="95.30127019"/>
    <line x1="253.55444566" y1="132.80127019" x2="231.90381057" y2="120.30127019"/>
    <line x1="253.55444566" y1="132.80127019" x2="275.20508076" y2="120.30127019"/>
    <line x1="104.45190528" y1="36.15063509" x2="104.45190528" y2="61.15063509"/>
    <line x1="104.45190528" y1="36.15063509" x2="129.45190528" y2="36.15063509"/>
    <line x1="219.40381057" y1="141.95190528" x2="206.90381057" y2="120.30127019"/>
    <line x1="138.60254038" y1="95.30127019" x2="163.60254038" y2="95.30127019"/>
    <line x1="138.60254038" y1="95.30127019" x2="138.60254038" y2="120.30127019"/>
    <line x1="138.60254038" y1="120.30127019" x2="163.60254038" y2="120.30127019"/>
    <line x1="253.55444566" y1="14.5" x2="231.90381057" y2="2.0"/>
    <line x1="253.55444566" y1="14.5" x2="266.05444566" y2="36.15063509"/>
    <line x1="36.15063509" y1="61.15063509" x2="48.65063509" y2="82.80127019"/>
    <line x1="36.15063509" y1="61.15063509" x2="61.15063509" y2="61.15063509"/>
    <line x1="36.15063509" y1="61.15063509" x2="36.15063509" y2="36.15063509"/>
    <line x1="36.15063509" y1="179.45190528" x2="61.15063509" y2="179.45190528"/>
    <line x1="151.10254038" y1="23.65063509" x2="172.75317547" y2="36.15063509"/>
    <line x1="151.10254038" y1="23.65063509" x2="163.60254038" y2="2.0"/>
    <line x1="231.90381057" y1="120.30127019" x2="231.90381057" y2="95.30127019"/>
    <line x1="231.90381057" y1="120.30127019" x2="219.40381057" y2="141.95190528"/>
    <line x1="82.80127019" y1="73.65063509" x2="104.45190528" y2="61.15063509"/>
    <line x1="82.80127019" y1="73.65063509" x2="70.30127019" y2="95.30127019"/>
    <line x1="151.10254038" y1="141.95190528" x2="138.60254038" y2="120.30127019"/>
    <line x1="151.10254038" y1="141.95190528" x2="129.45190528" y2="154.45190528"/>
    <line x1="219.40381057" y1="260.25317547" x2="197.75317547" y2="272.75317547"/>
    <line x1="219.40381057" y1="260.25317547" x2="231.90381057" y2="238.60254038"/>
    <line x1="231.90381057" y1="238.60254038" x2="206.90381057" y2="238.60254038"/>
    <line x1="70.30127019" y1="213.60254038" x2="82.80127019" y2="191.95190528"/>
    <line x1="70.30127019" y1="213.60254038" x2="95.30127019" y2="213.60254038"/>
    <line x1="70.30127019" y1="213.60254038" x2="70.30127019" y2="238.60254038"/>
    <line x1="197.75317547" y1="36.15063509" x2="197.75317547" y2="61.15063509"/>
    <line x1="48.65063509" y1="82.80127019" x2="70.30127019" y2="95.30127019"/>
    <line x1="48.65063509" y1="82.80127019" x2="61.15063509" y2="61.15063509"/>
    <line x1="129.45190528" y1="61.15063509" x2="151.10254038" y2="73.65063509"/>
    <line x1="129.45190528" y1="61.15063509" x2="104.45190528" y2="61.15063509"/>
    <line x1="300.20508076" y1="95.30127019" x2="275.20508076" y2="95.30127019"/>
    <line x1="14.5" y1="141.95190528" x2="27.0" y2="120.30127019"/>
    <line x1="138.60254038" y1="238.60254038" x2="138.60254038" y2="213.60254038"/>
    <line x1="138.60254038" y1="238.60254038" x2="116.95190528" y2="251.10254038"/>
    <line x1="61.15063509" y1="36.15063509" x2="82.80127019" y2="23.65063509"/>
    <line x1="61.15063509" y1="36.15063509" x2="48.65063509" y2="14.5"/>
    <line x1="104.45190528" y1="179.45190528" x2="129.45190528" y2="179.45190528"/>
    <line x1="266.05444566" y1="61.15063509" x2="253.55444566" y2="82.80127019"/>
    <line x1="266.05444566" y1="61.15063509" x2="241.05444566" y2="61.15063509"/>
    <line x1="266.05444566" y1="61.15063509" x2="266.05444566" y2="36.15063509"/>
    <line x1="253.55444566" y1="201.10254038" x2="241.05444566" y2="179.45190528"/>
    <line x1="95.30127019" y1="238.60254038" x2="95.30127019" y2="213.60254038"/>
    <line x1="95.30127019" y1="213.60254038" x2="116.95190528" y2="201.10254038"/>
    <line x1="70.30127019" y1="120.30127019" x2="70.30127019" y2="95.30127019"/>
    <line x1="70.30127019" y1="120.30127019" x2="82.80127019" y2="141.95190528"/>
    <line x1="206.90381057" y1="95.30127019" x2="185.25317547" y2="82.80127019"/>
    <line x1="206.90381057" y1="95.30127019" x2="219.40381057" y2="73.65063509"/>
    <line x1="266.05444566" y1="154.45190528" x2="241.05444566" y2="154.45190528"/>
    <line x1="266.05444566" y1="154.45190528" x2="253.55444566" y2="132.80127019"/>
    <line x1="266.05444566" y1="154.45190528" x2="287.70508076" y2="141.95190528"/>
    <line x1="219.40381057" y1="23.65063509" x2="197.75317547" y2="36.15063509"/>
    <line x1="27.0" y1="120.30127019" x2="27.0" y2="95.30127019"/>
    <line x1="27.0" y1="120.30127019" x2="2.0" y2="120.30127019"/>
    <line x1="163.60254038" y1="213.60254038" x2="151.10254038" y2="191.95190528"/>
    <line x1="172.75317547" y1="179.45190528" x2="151.10254038" y2="191.95190528"/>
    <line x1="172.75317547" y1="179.45190528" x2="185.25317547" y2="201.10254038"/>
    <line x1="163.60254038" y1="2.0" x2="185.25317547" y2="14.5"/>
    <line x1="163.60254038" y1="2.0" x2="138.60254038" y2="2.0"/>
    <line x1="185.25317547" y1="251.10254038" x2="163.60254038" y2="238.60254038"/>
    <line x1="185.25317547" y1="251.10254038" x2="172.75317547" y2="272.75317547"/>
    <line x1="116.95190528" y1="201.10254038" x2="129.45190528" y2="179.45190528"/>
    <line x1="116.95190528" y1="201.10254038" x2="104.45190528" y2="179.45190528"/>
    <line x1="129.45190528" y1="179.45190528" x2="129.45190528" y2="154.45190528"/>
    <line x1="163.60254038" y1="95.30127019" x2="163.60254038" y2="120.30127019"/>
    <line x1="206.90381057" y1="2.0" x2="219.40381057" y2="23.65063509"/>
    <line x1="275.20508076" y1="95.30127019" x2="253.55444566" y2="82.80127019"/>
    <line x1="275.20508076" y1="95.30127019" x2="287.70508076" y2="73.65063509"/>
    <line x1="61.15063509" y1="179.45190528" x2="82.80127019" y2="191.95190528"/>
    <line x1="61.15063509" y1="179.45190528" x2="48.65063509" y2="201.10254038"/>
    <line x1="231.90381057" y1="95.30127019" x2="206.90381057" y2="95.30127019"/>
    <line x1="172.75317547" y1="154.45190528" x2="151.10254038" y2="141.95190528"/>
    <line x1="172.75317547" y1="154.45190528" x2="172.75317547" y2="179.45190528"/>
    <line x1="70.30127019" y1="2.0" x2="82.80127019" y2="23.65063509"/>
    <line x1="241.05444566" y1="61.15063509" x2="219.40381057" y2="73.65063509"/>
    <line x1="241.05444566" y1="61.15063509" x2="241.05444566" y2="36.15063509"/>
    <line x1="219.40381057" y1="191.95190528" x2="241.05444566" y2="179.45190528"/>
    <line x1="219.40381057" y1="191.95190528" x2="206.90381057" y2="213.60254038"/>
    <line x1="219.40381057" y1="191.95190528" x2="231.90381057" y2="213.60254038"/>
    <line x1="197.75317547" y1="61.15063509" x2="185.25317547" y2="82.80127019"/>
    <line x1="197.75317547" y1="61.15063509" x2="172.75317547" y2="61.15063509"/>
    <line x1="95.30127019" y1="120.30127019" x2="95.30127019" y2="95.30127019"/>
    <line x1="95.30127019" y1="120.30127019" x2="70.30127019" y2="120.30127019"/>
    <line x1="151.10254038" y1="260.25317547" x2="163.60254038" y2="238.60254038"/>
    <line x1="151.10254038" y1="260.25317547" x2="138.60254038" y2="238.60254038"/>
    <line x1="151.10254038" y1="260.25317547" x2="129.45190528" y2="272.75317547"/>
    <line x1="116.95190528" y1="14.5" x2="104.45190528" y2="36.15063509"/>
    <line x1="116.95190528" y1="14.5" x2="129.45190528" y2="36.15063509"/>
    <line x1="116.95190528" y1="14.5" x2="138.60254038" y2="2.0"/>
    <line x1="2.0" y1="120.30127019" x2="2.0" y2="95.30127019"/>
    <line x1="2.0" y1="120.30127019" x2="14.5" y2="141.95190528"/>
    <line x1="241.05444566" y1="154.45190528" x2="219.40381057" y2="141.95190528"/>
    <line x1="241.05444566" y1="154.45190528" x2="253.55444566" y2="132.80127019"/>
    <line x1="197.75317547" y1="154.45190528" x2="172.75317547" y2="154.45190528"/>
    <line x1="197.75317547" y1="154.45190528" x2="219.40381057" y2="141.95190528"/>
    <line x1="197.75317547" y1="154.45190528" x2="197.75317547" y2="179.45190528"/>
    <line x1="116.95190528" y1="82.80127019" x2="138.60254038" y2="95.30127019"/>
    <line x1="116.95190528" y1="82.80127019" x2="129.45190528" y2="61.15063509"/>
    <line x1="104.45190528" y1="272.75317547" x2="82.80127019" y2="260.25317547"/>
    <line x1="104.45190528" y1="272.75317547" x2="129.45190528" y2="272.75317547"/>
  </g>
  <g>
    <g style="fill:goldenrod">
      <polygon 
      style="stroke:none" points="241.05444566,36.15063509 266.05444566,36.15063509 266.05444566,61.15063509 241.05444566,61.15063509">
</polygon>
      <polygon 
      style="stroke:none" points="231.90381057,2.0 253.55444566,14.5 241.05444566,36.15063509 219.40381057,23.65063509">
</polygon>
      <polygon 
      style="stroke:none" points="219.40381057,23.65063509 197.75317547,36.15063509 185.25317547,14.5 206.90381057,2.0">
</polygon>
      <polygon 
      style="stroke:none" points="27.0,95.30127019 14.5,73.65063509 36.15063509,61.15063509 48.65063509,82.80127019">
</polygon>
      <polygon 
      style="stroke:none" points="27.0,95.30127019 27.0,120.30127019 2.0,120.30127019 2.0,95.30127019">
</polygon>
      <polygon 
      style="stroke:none" points="27.0,120.30127019 48.65063509,132.80127019 36.15063509,154.45190528 14.5,141.95190528">
</polygon>
      <polygon 
      style="stroke:none" points="61.15063509,61.15063509 36.15063509,61.15063509 36.15063509,36.15063509 61.15063509,36.15063509">
</polygon>
      <polygon 
      style="stroke:none" points="61.15063509,36.15063509 48.65063509,14.5 70.30127019,2.0 82.80127019,23.65063509">
</polygon>
      <polygon 
      style="stroke:none" points="82.80127019,73.65063509 70.30127019,95.30127019 48.65063509,82.80127019 61.15063509,61.15063509">
</polygon>
      <polygon 
      style="stroke:none" points="95.30127019,2.0 116.95190528,14.5 104.45190528,36.15063509 82.80127019,23.65063509">
</polygon>
      <polygon 
      style="stroke:none" points="129.45190528,36.15063509 129.45190528,61.15063509 104.45190528,61.15063509 104.45190528,36.15063509">
</polygon>
      <polygon 
      style="stroke:none" points="138.60254038,2.0 151.10254038,23.65063509 129.45190528,36.15063509 116.95190528,14.5">
</polygon>
      <polygon 
      style="stroke:none" points="163.60254038,2.0 185.25317547,14.5 172.75317547,36.15063509 151.10254038,23.65063509">
</polygon>
      <polygon 
      style="stroke:none" points="172.75317547,61.15063509 172.75317547,36.15063509 197.75317547,36.15063509 197.75317547,61.15063509">
</polygon>
      <polygon 
      style="stroke:none" points="275.20508076,120.30127019 287.70508076,141.95190528 266.05444566,154.45190528 253.55444566,132.80127019">
</polygon>
      <polygon 
      style="stroke:none" points="300.20508076,95.30127019 300.20508076,120.30127019 275.20508076,120.30127019 275.20508076,95.30127019">
</polygon>
      <polygon 
      style="stroke:none" points="266.05444566,61.15063509 287.70508076,73.65063509 275.20508076,95.30127019 253.55444566,82.80127019">
</polygon>
      <polygon 
      style="stroke:none" points="253.55444566,82.80127019 231.90381057,95.30127019 219.40381057,73.65063509 241.05444566,61.15063509">
</polygon>
      <polygon 
      style="stroke:none" points="241.05444566,154.45190528 266.05444566,154.45190528 266.05444566,179.45190528 241.05444566,179.45190528">
</polygon>
      <polygon 
      style="stroke:none" points="231.90381057,213.60254038 219.40381057,191.95190528 241.05444566,179.45190528 253.55444566,201.10254038">
</polygon>
      <polygon 
      style="stroke:none" points="219.40381057,141.95190528 231.90381057,120.30127019 253.55444566,132.80127019 241.05444566,154.45190528">
</polygon>
      <polygon 
      style="stroke:none" points="206.90381057,120.30127019 219.40381057,141.95190528 197.75317547,154.45190528 185.25317547,132.80127019">
</polygon>
      <polygon 
      style="stroke:none" points="231.90381057,95.30127019 231.90381057,120.30127019 206.90381057,120.30127019 206.90381057,95.30127019">
</polygon>
      <polygon 
      style="stroke:none" points="206.90381057,95.30127019 185.25317547,82.80127019 197.75317547,61.15063509 219.40381057,73.65063509">
</polygon>
      <polygon 
      style="stroke:none" points="172.75317547,61.15063509 185.25317547,82.80127019 163.60254038,95.30127019 151.10254038,73.65063509">
</polygon>
      <polygon 
      style="stroke:none" points="61.15063509,179.45190528 36.15063509,179.45190528 36.15063509,154.45190528 61.15063509,154.45190528">
</polygon>
      <polygon 
      style="stroke:none" points="61.15063509,179.45190528 82.80127019,191.95190528 70.30127019,213.60254038 48.65063509,201.10254038">
</polygon>
      <polygon 
      style="stroke:none" points="61.15063509,154.45190528 48.65063509,132.80127019 70.30127019,120.30127019 82.80127019,141.95190528">
</polygon>
      <polygon 
      style="stroke:none" points="95.30127019,95.30127019 82.80127019,73.65063509 104.45190528,61.15063509 116.95190528,82.80127019">
</polygon>
      <polygon 
      style="stroke:none" points="116.95190528,82.80127019 129.45190528,61.15063509 151.10254038,73.65063509 138.60254038,95.30127019">
</polygon>
      <polygon 
      style="stroke:none" points="138.60254038,95.30127019 163.60254038,95.30127019 163.60254038,120.30127019 138.60254038,120.30127019">
</polygon>
      <polygon 
      style="stroke:none" points="70.30127019,95.30127019 95.30127019,95.30127019 95.30127019,120.30127019 70.30127019,120.30127019">
</polygon>
      <polygon 
      style="stroke:none" points="116.95190528,132.80127019 104.45190528,154.45190528 82.80127019,141.95190528 95.30127019,120.30127019">
</polygon>
      <polygon 
      style="stroke:none" points="151.10254038,141.95190528 129.45190528,154.45190528 116.95190528,132.80127019 138.60254038,120.30127019">
</polygon>
      <polygon 
      style="stroke:none" points="104.45190528,179.45190528 104.45190528,154.45190528 129.45190528,154.45190528 129.45190528,179.45190528">
</polygon>
      <polygon 
      style="stroke:none" points="151.10254038,141.95190528 163.60254038,120.30127019 185.25317547,132.80127019 172.75317547,154.45190528">
</polygon>
      <polygon 
      style="stroke:none" points="197.75317547,154.45190528 197.75317547,179.45190528 172.75317547,179.45190528 172.75317547,154.45190528">
</polygon>
      <polygon 
      style="stroke:none" points="185.25317547,201.10254038 163.60254038,213.60254038 151.10254038,191.95190528 172.75317547,179.45190528">
</polygon>
      <polygon 
      style="stroke:none" points="185.25317547,201.10254038 197.75317547,179.45190528 219.40381057,191.95190528 206.90381057,213.60254038">
</polygon>
      <polygon 
      style="stroke:none" points="206.90381057,238.60254038 206.90381057,213.60254038 231.90381057,213.60254038 231.90381057,238.60254038">
</polygon>
      <polygon 
      style="stroke:none" points="219.40381057,260.25317547 197.75317547,272.75317547 185.25317547,251.10254038 206.90381057,238.60254038">
</polygon>
      <polygon 
      style="stroke:none" points="151.10254038,260.25317547 163.60254038,238.60254038 185.25317547,251.10254038 172.75317547,272.75317547">
</polygon>
      <polygon 
      style="stroke:none" points="138.60254038,213.60254038 163.60254038,213.60254038 163.60254038,238.60254038 138.60254038,238.60254038">
</polygon>
      <polygon 
      style="stroke:none" points="129.45190528,179.45190528 151.10254038,191.95190528 138.60254038,213.60254038 116.95190528,201.10254038">
</polygon>
      <polygon 
      style="stroke:none" points="116.95190528,251.10254038 138.60254038,238.60254038 151.10254038,260.25317547 129.45190528,272.75317547">
</polygon>
      <polygon 
      style="stroke:none" points="116.95190528,201.10254038 95.30127019,213.60254038 82.80127019,191.95190528 104.45190528,179.45190528">
</polygon>
      <polygon 
      style="stroke:none" points="104.45190528,272.75317547 82.80127019,260.25317547 95.30127019,238.60254038 116.95190528,251.10254038">
</polygon>
      <polygon 
      style="stroke:none" points="70.30127019,238.60254038 70.30127019,213.60254038 95.30127019,213.60254038 95.30127019,238.60254038">
</polygon>
    </g>
    <g style="fill:yellow">
      <polygon 
      style="stroke:none" points="241.05444566,36.15063509 253.55444566,14.5 266.05444566,36.15063509">
</polygon>
      <polygon 
      style="stroke:none" points="219.40381057,23.65063509 206.90381057,2.0 231.90381057,2.0">
</polygon>
      <polygon 
      style="stroke:none" points="27.0,95.30127019 2.0,95.30127019 14.5,73.65063509">
</polygon>
      <polygon 
      style="stroke:none" points="14.5,141.95190528 2.0,120.30127019 27.0,120.30127019">
</polygon>
      <polygon 
      style="stroke:none" points="61.15063509,61.15063509 48.65063509,82.80127019 36.15063509,61.15063509">
</polygon>
      <polygon 
      style="stroke:none" points="61.15063509,36.15063509 36.15063509,36.15063509 48.65063509,14.5">
</polygon>
      <polygon 
      style="stroke:none" points="82.80127019,23.65063509 70.30127019,2.0 95.30127019,2.0">
</polygon>
      <polygon 
      style="stroke:none" points="129.45190528,36.15063509 104.45190528,36.15063509 116.95190528,14.5">
</polygon>
      <polygon 
      style="stroke:none" points="163.60254038,2.0 151.10254038,23.65063509 138.60254038,2.0">
</polygon>
      <polygon 
      style="stroke:none" points="197.75317547,36.15063509 172.75317547,36.15063509 185.25317547,14.5">
</polygon>
      <polygon 
      style="stroke:none" points="275.20508076,120.30127019 300.20508076,120.30127019 287.70508076,141.95190528">
</polygon>
      <polygon 
      style="stroke:none" points="287.70508076,73.65063509 300.20508076,95.30127019 275.20508076,95.30127019">
</polygon>
      <polygon 
      style="stroke:none" points="253.55444566,82.80127019 241.05444566,61.15063509 266.05444566,61.15063509">
</polygon>
      <polygon 
      style="stroke:none" points="241.05444566,154.45190528 253.55444566,132.80127019 266.05444566,154.45190528">
</polygon>
      <polygon 
      style="stroke:none" points="241.05444566,179.45190528 266.05444566,179.45190528 253.55444566,201.10254038">
</polygon>
      <polygon 
      style="stroke:none" points="206.90381057,120.30127019 231.90381057,120.30127019 219.40381057,141.95190528">
</polygon>
      <polygon 
      style="stroke:none" points="206.90381057,95.30127019 219.40381057,73.65063509 231.90381057,95.30127019">
</polygon>
      <polygon 
      style="stroke:none" points="172.75317547,61.15063509 197.75317547,61.15063509 185.25317547,82.80127019">
</polygon>
      <polygon 
      style="stroke:none" points="61.15063509,179.45190528 48.65063509,201.10254038 36.15063509,179.45190528">
</polygon>
      <polygon 
      style="stroke:none" points="61.15063509,154.45190528 36.15063509,154.45190528 48.65063509,132.80127019">
</polygon>
      <polygon 
      style="stroke:none" points="95.30127019,95.30127019 70.30127019,95.30127019 82.80127019,73.65063509">
</polygon>
      <polygon 
      style="stroke:none" points="116.95190528,82.80127019 104.45190528,61.15063509 129.45190528,61.15063509">
</polygon>
      <polygon 
      style="stroke:none" points="138.60254038,95.30127019 151.10254038,73.65063509 163.60254038,95.30127019">
</polygon>
      <polygon 
      style="stroke:none" points="82.80127019,141.95190528 70.30127019,120.30127019 95.30127019,120.30127019">
</polygon>
      <polygon 
      style="stroke:none" points="151.10254038,141.95190528 138.60254038,120.30127019 163.60254038,120.30127019">
</polygon>
      <polygon 
      style="stroke:none" points="104.45190528,154.45190528 116.95190528,132.80127019 129.45190528,154.45190528">
</polygon>
      <polygon 
      style="stroke:none" points="197.75317547,154.45190528 172.75317547,154.45190528 185.25317547,132.80127019">
</polygon>
      <polygon 
      style="stroke:none" points="185.25317547,201.10254038 172.75317547,179.45190528 197.75317547,179.45190528">
</polygon>
      <polygon 
      style="stroke:none" points="231.90381057,213.60254038 206.90381057,213.60254038 219.40381057,191.95190528">
</polygon>
      <polygon 
      style="stroke:none" points="206.90381057,238.60254038 231.90381057,238.60254038 219.40381057,260.25317547">
</polygon>
      <polygon 
      style="stroke:none" points="172.75317547,272.75317547 185.25317547,251.10254038 197.75317547,272.75317547">
</polygon>
      <polygon 
      style="stroke:none" points="138.60254038,213.60254038 151.10254038,191.95190528 163.60254038,213.60254038">
</polygon>
      <polygon 
      style="stroke:none" points="138.60254038,238.60254038 163.60254038,238.60254038 151.10254038,260.25317547">
</polygon>
      <polygon 
      style="stroke:none" points="104.45190528,179.45190528 129.45190528,179.45190528 116.95190528,201.10254038">
</polygon>
      <polygon 
      style="stroke:none" points="116.95190528,251.10254038 129.45190528,272.75317547 104.45190528,272.75317547">
</polygon>
      <polygon 
      style="stroke:none" points="70.30127019,213.60254038 82.80127019,191.95190528 95.30127019,213.60254038">
</polygon>
      <polygon 
      style="stroke:none" points="70.30127019,238.60254038 95.30127019,238.60254038 82.80127019,260.25317547">
</polygon>
    </g>
    <g style="fill:grey">
      <polygon 
      style="stroke:none" points="241.05444566,36.15063509 241.05444566,61.15063509 219.40381057,73.65063509 197.75317547,61.15063509 197.75317547,36.15063509 219.40381057,23.65063509">
</polygon>
      <polygon 
      style="stroke:none" points="27.0,95.30127019 48.65063509,82.80127019 70.30127019,95.30127019 70.30127019,120.30127019 48.65063509,132.80127019 27.0,120.30127019">
</polygon>
      <polygon 
      style="stroke:none" points="82.80127019,23.65063509 104.45190528,36.15063509 104.45190528,61.15063509 82.80127019,73.65063509 61.15063509,61.15063509 61.15063509,36.15063509">
</polygon>
      <polygon 
      style="stroke:none" points="151.10254038,23.65063509 172.75317547,36.15063509 172.75317547,61.15063509 151.10254038,73.65063509 129.45190528,61.15063509 129.45190528,36.15063509">
</polygon>
      <polygon 
      style="stroke:none" points="231.90381057,95.30127019 253.55444566,82.80127019 275.20508076,95.30127019 275.20508076,120.30127019 253.55444566,132.80127019 231.90381057,120.30127019">
</polygon>
      <polygon 
      style="stroke:none" points="241.05444566,154.45190528 241.05444566,179.45190528 219.40381057,191.95190528 197.75317547,179.45190528 197.75317547,154.45190528 219.40381057,141.95190528">
</polygon>
      <polygon 
      style="stroke:none" points="206.90381057,95.30127019 206.90381057,120.30127019 185.25317547,132.80127019 163.60254038,120.30127019 163.60254038,95.30127019 185.25317547,82.80127019">
</polygon>
      <polygon 
      style="stroke:none" points="61.15063509,179.45190528 61.15063509,154.45190528 82.80127019,141.95190528 104.45190528,154.45190528 104.45190528,179.45190528 82.80127019,191.95190528">
</polygon>
      <polygon 
      style="stroke:none" points="116.95190528,82.80127019 138.60254038,95.30127019 138.60254038,120.30127019 116.95190528,132.80127019 95.30127019,120.30127019 95.30127019,95.30127019">
</polygon>
      <polygon 
      style="stroke:none" points="172.75317547,154.45190528 172.75317547,179.45190528 151.10254038,191.95190528 129.45190528,179.45190528 129.45190528,154.45190528 151.10254038,141.95190528">
</polygon>
      <polygon 
      style="stroke:none" points="163.60254038,213.60254038 185.25317547,201.10254038 206.90381057,213.60254038 206.90381057,238.60254038 185.25317547,251.10254038 163.60254038,238.60254038">
</polygon>
      <polygon 
      style="stroke:none" points="138.60254038,238.60254038 116.95190528,251.10254038 95.30127019,238.60254038 95.30127019,213.60254038 116.95190528,201.10254038 138.60254038,213.60254038">
</polygon>
    </g>
  </g>
  <polygon 
  style="fill:none;stroke:blue;stroke-width:2" points="36.15063509,154.45190528 36.15063509,179.45190528 48.65063509,201.10254038 70.30127019,213.60254038 70.30127019,238.60254038 82.80127019,260.25317547 104.45190528,272.75317547 129.45190528,272.75317547 151.10254038,260.25317547 172.75317547,272.75317547 197.75317547,272.75317547 219.40381057,260.25317547 231.90381057,238.60254038 231.90381057,213.60254038 253.55444566,201.10254038 266.05444566,179.45190528 266.05444566,154.45190528 287.70508076,141.95190528 300.20508076,120.30127019 300.20508076,95.30127019 287.70508076,73.65063509 266.05444566,61.15063509 266.05444566,36.15063509 253.55444566,14.5 231.90381057,2.0 206.90381057,2.0 185.25317547,14.5 163.60254038,2.0 138.60254038,2.0 116.95190528,14.5 95.30127019,2.0 70.30127019,2.0 48.65063509,14.5 36.15063509,36.15063509 36.15063509,61.15063509 14.5,73.65063509 2.0,95.30127019 2.0,120.30127019 14.5,141.95190528">
</polygon>
  <g style="fill:red">
    <text x="160.60254038" y="241.10254038">69</text>
    <text x="263.05444566" y="63.65063509">101</text>
    <text x="135.60254038" y="4.5">88</text>
    <text x="113.95190528" y="135.30127019">5</text>
    <text x="160.60254038" y="97.80127019">10</text>
    <text x="216.40381057" y="194.45190528">56</text>
    <text x="79.80127019" y="194.45190528">42</text>
    <text x="79.80127019" y="76.15063509">24</text>
    <text x="160.60254038" y="216.10254038">37</text>
    <text x="101.45190528" y="63.65063509">25</text>
    <text x="126.45190528" y="38.65063509">52</text>
    <text x="203.90381057" y="97.80127019">14</text>
    <text x="101.45190528" y="275.25317547">110</text>
    <text x="101.45190528" y="181.95190528">20</text>
    <text x="24.0" y="97.80127019">46</text>
    <text x="250.55444566" y="203.60254038">93</text>
    <text x="238.05444566" y="181.95190528">57</text>
    <text x="11.5" y="144.45190528">78</text>
    <text x="194.75317547" y="156.95190528">29</text>
    <text x="194.75317547" y="275.25317547">106</text>
    <text x="45.65063509" y="17.0">84</text>
    <text x="272.20508076" y="122.80127019">61</text>
    <text x="160.60254038" y="4.5">89</text>
    <text x="135.60254038" y="122.80127019">1</text>
    <text x="33.15063509" y="181.95190528">74</text>
    <text x="92.30127019" y="122.80127019">6</text>
    <text x="203.90381057" y="216.10254038">60</text>
    <text x="67.30127019" y="4.5">85</text>
    <text x="263.05444566" y="38.65063509">102</text>
    <text x="169.75317547" y="63.65063509">28</text>
    <text x="135.60254038" y="216.10254038">38</text>
    <text x="135.60254038" y="241.10254038">70</text>
    <text x="79.80127019" y="144.45190528">21</text>
    <text x="228.90381057" y="97.80127019">33</text>
    <text x="228.90381057" y="216.10254038">92</text>
    <text x="238.05444566" y="38.65063509">65</text>
    <text x="228.90381057" y="241.10254038">97</text>
    <text x="135.60254038" y="97.80127019">9</text>
    <text x="148.10254038" y="26.15063509">53</text>
    <text x="126.45190528" y="275.25317547">109</text>
    <text x="67.30127019" y="241.10254038">77</text>
    <text x="284.70508076" y="144.45190528">96</text>
    <text x="203.90381057" y="122.80127019">13</text>
    <text x="58.15063509" y="181.95190528">41</text>
    <text x="33.15063509" y="156.95190528">73</text>
    <text x="216.40381057" y="262.75317547">105</text>
    <text x="160.60254038" y="122.80127019">2</text>
    <text x="228.90381057" y="122.80127019">32</text>
    <text x="216.40381057" y="76.15063509">34</text>
    <text x="24.0" y="122.80127019">45</text>
    <text x="238.05444566" y="63.65063509">64</text>
    <text x="148.10254038" y="194.45190528">17</text>
    <text x="67.30127019" y="122.80127019">22</text>
    <text x="45.65063509" y="135.30127019">44</text>
    <text x="250.55444566" y="135.30127019">59</text>
    <text x="148.10254038" y="76.15063509">27</text>
    <text x="113.95190528" y="253.60254038">71</text>
    <text x="169.75317547" y="156.95190528">12</text>
    <text x="169.75317547" y="38.65063509">54</text>
    <text x="58.15063509" y="38.65063509">49</text>
    <text x="92.30127019" y="4.5">86</text>
    <text x="11.5" y="76.15063509">81</text>
    <text x="67.30127019" y="216.10254038">76</text>
    <text x="92.30127019" y="97.80127019">7</text>
    <text x="113.95190528" y="203.60254038">39</text>
    <text x="297.20508076" y="122.80127019">98</text>
    <text x="250.55444566" y="17.0">103</text>
    <text x="203.90381057" y="4.5">91</text>
    <text x="216.40381057" y="26.15063509">66</text>
    <text x="148.10254038" y="262.75317547">108</text>
    <text x="148.10254038" y="144.45190528">3</text>
    <text x="-1.0" y="97.80127019">80</text>
    <text x="194.75317547" y="63.65063509">35</text>
    <text x="58.15063509" y="63.65063509">48</text>
    <text x="250.55444566" y="85.30127019">63</text>
    <text x="126.45190528" y="181.95190528">18</text>
    <text x="263.05444566" y="156.95190528">95</text>
    <text x="79.80127019" y="26.15063509">50</text>
    <text x="203.90381057" y="241.10254038">67</text>
    <text x="169.75317547" y="181.95190528">16</text>
    <text x="194.75317547" y="181.95190528">31</text>
    <text x="182.25317547" y="135.30127019">11</text>
    <text x="92.30127019" y="241.10254038">72</text>
    <text x="92.30127019" y="216.10254038">43</text>
    <text x="297.20508076" y="97.80127019">99</text>
    <text x="113.95190528" y="17.0">87</text>
    <text x="228.90381057" y="4.5">104</text>
    <text x="58.15063509" y="156.95190528">40</text>
    <text x="126.45190528" y="63.65063509">26</text>
    <text x="194.75317547" y="38.65063509">55</text>
    <text x="67.30127019" y="97.80127019">23</text>
    <text x="113.95190528" y="85.30127019">8</text>
    <text x="45.65063509" y="203.60254038">75</text>
    <text x="238.05444566" y="156.95190528">58</text>
    <text x="33.15063509" y="63.65063509">82</text>
    <text x="182.25317547" y="203.60254038">36</text>
    <text x="216.40381057" y="144.45190528">30</text>
    <text x="101.45190528" y="38.65063509">51</text>
    <text x="101.45190528" y="156.95190528">19</text>
    <text x="169.75317547" y="275.25317547">107</text>
    <text x="126.45190528" y="156.95190528">4</text>
    <text x="-1.0" y="122.80127019">79</text>
    <text x="263.05444566" y="181.95190528">94</text>
    <text x="45.65063509" y="85.30127019">47</text>
    <text x="182.25317547" y="85.30127019">15</text>
    <text x="182.25317547" y="253.60254038">68</text>
    <text x="272.20508076" y="97.80127019">62</text>
    <text x="182.25317547" y="17.0">90</text>
    <text x="79.80127019" y="262.75317547">111</text>
    <text x="33.15063509" y="38.65063509">83</text>
    <text x="284.70508076" y="76.15063509">100</text>
  </g>
</svg>