<?xml version='1.0' encoding='UTF-8'?>
<svg version="1.1" xmlns="http://www.w3.org/2000/svg">
  <g style="stroke:black">
    <line x1="113.60254038" y1="14.5" x2="138.60254038" y2="14.5"/>
    <line x1="113.60254038" y1="14.5" x2="113.60254038" y2="39.5"/>
    <line x1="318.50635095" y1="132.80127019" x2="318.50635095" y2="157.80127019"/>
    <line x1="318.50635095" y1="132.80127019" x2="343.50635095" y2="132.80127019"/>
    <line x1="331.00635095" y1="179.45190528" x2="318.50635095" y2="157.80127019"/>
    <line x1="206.90381057" y1="157.80127019" x2="194.40381057" y2="179.45190528"/>
    <line x1="36.15063509" y1="216.95190528" x2="36.15063509" y2="191.95190528"/>
    <line x1="343.50635095" y1="132.80127019" x2="331.00635095" y2="111.15063509"/>
    <line x1="343.50635095" y1="132.80127019" x2="343.50635095" y2="157.80127019"/>
    <line x1="181.90381057" y1="39.5" x2="206.90381057" y2="39.5"/>
    <line x1="181.90381057" y1="39.5" x2="194.40381057" y2="61.15063509"/>
    <line x1="113.60254038" y1="39.5" x2="138.60254038" y2="39.5"/>
    <line x1="113.60254038" y1="39.5" x2="126.10254038" y2="61.15063509"/>
    <line x1="70.30127019" y1="276.10254038" x2="70.30127019" y2="251.10254038"/>
    <line x1="284.35571585" y1="98.65063509" x2="262.70508076" y2="111.15063509"/>
    <line x1="284.35571585" y1="98.65063509" x2="296.85571585" y2="120.30127019"/>
    <line x1="91.95190528" y1="170.30127019" x2="113.60254038" y2="157.80127019"/>
    <line x1="91.95190528" y1="170.30127019" x2="70.30127019" y2="157.80127019"/>
    <line x1="309.35571585" y1="73.65063509" x2="309.35571585" y2="98.65063509"/>
    <line x1="309.35571585" y1="73.65063509" x2="284.35571585" y2="73.65063509"/>
    <line x1="160.25317547" y1="288.60254038" x2="138.60254038" y2="276.10254038"/>
    <line x1="216.05444566" y1="73.65063509" x2="216.05444566" y2="98.65063509"/>
    <line x1="216.05444566" y1="73.65063509" x2="241.05444566" y2="73.65063509"/>
    <line x1="126.10254038" y1="179.45190528" x2="138.60254038" y2="157.80127019"/>
    <line x1="309.35571585" y1="98.65063509" x2="331.00635095" y2="111.15063509"/>
    <line x1="309.35571585" y1="98.65063509" x2="296.85571585" y2="120.30127019"/>
    <line x1="309.35571585" y1="98.65063509" x2="284.35571585" y2="98.65063509"/>
    <line x1="79.45190528" y1="73.65063509" x2="104.45190528" y2="73.65063509"/>
    <line x1="113.60254038" y1="251.10254038" x2="91.95190528" y2="238.60254038"/>
    <line x1="113.60254038" y1="251.10254038" x2="138.60254038" y2="251.10254038"/>
    <line x1="262.70508076" y1="111.15063509" x2="250.20508076" y2="132.80127019"/>
    <line x1="104.45190528" y1="216.95190528" x2="104.45190528" y2="191.95190528"/>
    <line x1="275.20508076" y1="14.5" x2="275.20508076" y2="39.5"/>
    <line x1="275.20508076" y1="14.5" x2="296.85571585" y2="2.0"/>
    <line x1="2.0" y1="157.80127019" x2="2.0" y2="132.80127019"/>
    <line x1="181.90381057" y1="251.10254038" x2="160.25317547" y2="238.60254038"/>
    <line x1="181.90381057" y1="251.10254038" x2="194.40381057" y2="229.45190528"/>
    <line x1="172.75317547" y1="73.65063509" x2="172.75317547" y2="98.65063509"/>
    <line x1="172.75317547" y1="73.65063509" x2="194.40381057" y2="61.15063509"/>
    <line x1="194.40381057" y1="229.45190528" x2="172.75317547" y2="216.95190528"/>
    <line x1="36.15063509" y1="98.65063509" x2="57.80127019" y2="111.15063509"/>
    <line x1="36.15063509" y1="98.65063509" x2="36.15063509" y2="73.65063509"/>
    <line x1="104.45190528" y1="73.65063509" x2="126.10254038" y2="61.15063509"/>
    <line x1="104.45190528" y1="73.65063509" x2="91.95190528" y2="52.0"/>
    <line x1="250.20508076" y1="157.80127019" x2="228.55444566" y2="170.30127019"/>
    <line x1="160.25317547" y1="170.30127019" x2="138.60254038" y2="157.80127019"/>
    <line x1="160.25317547" y1="170.30127019" x2="181.90381057" y2="157.80127019"/>
    <line x1="70.30127019" y1="157.80127019" x2="70.30127019" y2="132.80127019"/>
    <line x1="70.30127019" y1="157.80127019" x2="45.30127019" y2="157.80127019"/>
    <line x1="206.90381057" y1="39.5" x2="228.55444566" y2="52.0"/>
    <line x1="206.90381057" y1="39.5" x2="194.40381057" y2="61.15063509"/>
    <line x1="284.35571585" y1="216.95190528" x2="262.70508076" y2="229.45190528"/>
    <line x1="181.90381057" y1="132.80127019" x2="206.90381057" y2="132.80127019"/>
    <line x1="181.90381057" y1="132.80127019" x2="181.90381057" y2="157.80127019"/>
    <line x1="365.15698604" y1="170.30127019" x2="343.50635095" y2="157.80127019"/>
    <line x1="138.60254038" y1="39.5" x2="160.25317547" y2="52.0"/>
    <line x1="138.60254038" y1="39.5" x2="126.10254038" y2="61.15063509"/>
    <line x1="57.80127019" y1="179.45190528" x2="70.30127019" y2="157.80127019"/>
    <line x1="91.95190528" y1="238.60254038" x2="79.45190528" y2="216.95190528"/>
    <line x1="91.95190528" y1="238.60254038" x2="104.45190528" y2="216.95190528"/>
    <line x1="318.50635095" y1="157.80127019" x2="296.85571585" y2="170.30127019"/>
    <line x1="147.75317547" y1="98.65063509" x2="172.75317547" y2="98.65063509"/>
    <line x1="147.75317547" y1="98.65063509" x2="160.25317547" y2="120.30127019"/>
    <line x1="104.45190528" y1="191.95190528" x2="126.10254038" y2="179.45190528"/>
    <line x1="104.45190528" y1="191.95190528" x2="91.95190528" y2="170.30127019"/>
    <line x1="194.40381057" y1="179.45190528" x2="181.90381057" y2="157.80127019"/>
    <line x1="194.40381057" y1="179.45190528" x2="172.75317547" y2="191.95190528"/>
    <line x1="352.65698604" y1="98.65063509" x2="331.00635095" y2="111.15063509"/>
    <line x1="352.65698604" y1="98.65063509" x2="365.15698604" y2="120.30127019"/>
    <line x1="91.95190528" y1="52.0" x2="113.60254038" y2="39.5"/>
    <line x1="91.95190528" y1="52.0" x2="79.45190528" y2="73.65063509"/>
    <line x1="91.95190528" y1="288.60254038" x2="70.30127019" y2="276.10254038"/>
    <line x1="343.50635095" y1="157.80127019" x2="331.00635095" y2="179.45190528"/>
    <line x1="343.50635095" y1="157.80127019" x2="318.50635095" y2="157.80127019"/>
    <line x1="70.30127019" y1="39.5" x2="91.95190528" y2="52.0"/>
    <line x1="70.30127019" y1="39.5" x2="70.30127019" y2="14.5"/>
    <line x1="70.30127019" y1="251.10254038" x2="57.80127019" y2="229.45190528"/>
    <line x1="70.30127019" y1="251.10254038" x2="91.95190528" y2="238.60254038"/>
    <line x1="138.60254038" y1="251.10254038" x2="126.10254038" y2="229.45190528"/>
    <line x1="275.20508076" y1="132.80127019" x2="262.70508076" y2="111.15063509"/>
    <line x1="275.20508076" y1="132.80127019" x2="275.20508076" y2="157.80127019"/>
    <line x1="147.75317547" y1="191.95190528" x2="126.10254038" y2="179.45190528"/>
    <line x1="147.75317547" y1="191.95190528" x2="160.25317547" y2="170.30127019"/>
    <line x1="147.75317547" y1="191.95190528" x2="172.75317547" y2="191.95190528"/>
    <line x1="79.45190528" y1="98.65063509" x2="104.45190528" y2="98.65063509"/>
    <line x1="79.45190528" y1="98.65063509" x2="79.45190528" y2="73.65063509"/>
    <line x1="79.45190528" y1="98.65063509" x2="91.95190528" y2="120.30127019"/>
    <line x1="241.05444566" y1="98.65063509" x2="262.70508076" y2="111.15063509"/>
    <line x1="241.05444566" y1="98.65063509" x2="216.05444566" y2="98.65063509"/>
    <line x1="331.00635095" y1="111.15063509" x2="318.50635095" y2="132.80127019"/>
    <line x1="228.55444566" y1="170.30127019" x2="216.05444566" y2="191.95190528"/>
    <line x1="228.55444566" y1="170.30127019" x2="206.90381057" y2="157.80127019"/>
    <line x1="296.85571585" y1="2.0" x2="318.50635095" y2="14.5"/>
    <line x1="2.0" y1="132.80127019" x2="23.65063509" y2="120.30127019"/>
    <line x1="194.40381057" y1="111.15063509" x2="181.90381057" y2="132.80127019"/>
    <line x1="194.40381057" y1="111.15063509" x2="206.90381057" y2="132.80127019"/>
    <line x1="194.40381057" y1="111.15063509" x2="216.05444566" y2="98.65063509"/>
    <line x1="318.50635095" y1="39.5" x2="331.00635095" y2="61.15063509"/>
    <line x1="318.50635095" y1="39.5" x2="296.85571585" y2="52.0"/>
    <line x1="206.90381057" y1="132.80127019" x2="228.55444566" y2="120.30127019"/>
    <line x1="206.90381057" y1="132.80127019" x2="206.90381057" y2="157.80127019"/>
    <line x1="250.20508076" y1="14.5" x2="250.20508076" y2="39.5"/>
    <line x1="250.20508076" y1="14.5" x2="275.20508076" y2="14.5"/>
    <line x1="45.30127019" y1="157.80127019" x2="57.80127019" y2="179.45190528"/>
    <line x1="45.30127019" y1="157.80127019" x2="45.30127019" y2="132.80127019"/>
    <line x1="250.20508076" y1="276.10254038" x2="228.55444566" y2="288.60254038"/>
    <line x1="126.10254038" y1="61.15063509" x2="147.75317547" y2="73.65063509"/>
    <line x1="181.90381057" y1="14.5" x2="181.90381057" y2="39.5"/>
    <line x1="181.90381057" y1="14.5" x2="206.90381057" y2="14.5"/>
    <line x1="79.45190528" y1="216.95190528" x2="104.45190528" y2="216.95190528"/>
    <line x1="79.45190528" y1="216.95190528" x2="79.45190528" y2="191.95190528"/>
    <line x1="241.05444566" y1="216.95190528" x2="216.05444566" y2="216.95190528"/>
    <line x1="70.30127019" y1="132.80127019" x2="91.95190528" y2="120.30127019"/>
    <line x1="160.25317547" y1="120.30127019" x2="181.90381057" y2="132.80127019"/>
    <line x1="79.45190528" y1="191.95190528" x2="91.95190528" y2="170.30127019"/>
    <line x1="79.45190528" y1="191.95190528" x2="104.45190528" y2="191.95190528"/>
    <line x1="79.45190528" y1="191.95190528" x2="57.80127019" y2="179.45190528"/>
    <line x1="262.70508076" y1="229.45190528" x2="241.05444566" y2="216.95190528"/>
    <line x1="262.70508076" y1="229.45190528" x2="250.20508076" y2="251.10254038"/>
    <line x1="126.10254038" y1="111.15063509" x2="113.60254038" y2="132.80127019"/>
    <line x1="126.10254038" y1="111.15063509" x2="147.75317547" y2="98.65063509"/>
    <line x1="352.65698604" y1="73.65063509" x2="352.65698604" y2="98.65063509"/>
    <line x1="138.60254038" y1="14.5" x2="160.25317547" y2="2.0"/>
    <line x1="138.60254038" y1="14.5" x2="138.60254038" y2="39.5"/>
    <line x1="113.60254038" y1="276.10254038" x2="113.60254038" y2="251.10254038"/>
    <line x1="113.60254038" y1="276.10254038" x2="91.95190528" y2="288.60254038"/>
    <line x1="296.85571585" y1="170.30127019" x2="284.35571585" y2="191.95190528"/>
    <line x1="296.85571585" y1="170.30127019" x2="275.20508076" y2="157.80127019"/>
    <line x1="113.60254038" y1="157.80127019" x2="126.10254038" y2="179.45190528"/>
    <line x1="113.60254038" y1="157.80127019" x2="113.60254038" y2="132.80127019"/>
    <line x1="172.75317547" y1="191.95190528" x2="160.25317547" y2="170.30127019"/>
    <line x1="365.15698604" y1="120.30127019" x2="386.80762114" y2="132.80127019"/>
    <line x1="365.15698604" y1="120.30127019" x2="343.50635095" y2="132.80127019"/>
    <line x1="147.75317547" y1="216.95190528" x2="126.10254038" y2="229.45190528"/>
    <line x1="147.75317547" y1="216.95190528" x2="147.75317547" y2="191.95190528"/>
    <line x1="70.30127019" y1="14.5" x2="91.95190528" y2="2.0"/>
    <line x1="275.20508076" y1="157.80127019" x2="262.70508076" y2="179.45190528"/>
    <line x1="275.20508076" y1="157.80127019" x2="250.20508076" y2="157.80127019"/>
    <line x1="228.55444566" y1="288.60254038" x2="206.90381057" y2="276.10254038"/>
    <line x1="216.05444566" y1="191.95190528" x2="194.40381057" y2="179.45190528"/>
    <line x1="216.05444566" y1="191.95190528" x2="216.05444566" y2="216.95190528"/>
    <line x1="57.80127019" y1="61.15063509" x2="70.30127019" y2="39.5"/>
    <line x1="57.80127019" y1="61.15063509" x2="79.45190528" y2="73.65063509"/>
    <line x1="262.70508076" y1="61.15063509" x2="275.20508076" y2="39.5"/>
    <line x1="262.70508076" y1="61.15063509" x2="284.35571585" y2="73.65063509"/>
    <line x1="318.50635095" y1="14.5" x2="318.50635095" y2="39.5"/>
    <line x1="228.55444566" y1="52.0" x2="216.05444566" y2="73.65063509"/>
    <line x1="228.55444566" y1="52.0" x2="241.05444566" y2="73.65063509"/>
    <line x1="228.55444566" y1="52.0" x2="250.20508076" y2="39.5"/>
    <line x1="23.65063509" y1="120.30127019" x2="36.15063509" y2="98.65063509"/>
    <line x1="23.65063509" y1="120.30127019" x2="45.30127019" y2="132.80127019"/>
    <line x1="160.25317547" y1="238.60254038" x2="147.75317547" y2="216.95190528"/>
    <line x1="160.25317547" y1="238.60254038" x2="138.60254038" y2="251.10254038"/>
    <line x1="160.25317547" y1="238.60254038" x2="172.75317547" y2="216.95190528"/>
    <line x1="228.55444566" y1="238.60254038" x2="241.05444566" y2="216.95190528"/>
    <line x1="228.55444566" y1="238.60254038" x2="206.90381057" y2="251.10254038"/>
    <line x1="216.05444566" y1="98.65063509" x2="228.55444566" y2="120.30127019"/>
    <line x1="228.55444566" y1="120.30127019" x2="241.05444566" y2="98.65063509"/>
    <line x1="228.55444566" y1="120.30127019" x2="250.20508076" y2="132.80127019"/>
    <line x1="228.55444566" y1="2.0" x2="250.20508076" y2="14.5"/>
    <line x1="36.15063509" y1="191.95190528" x2="57.80127019" y2="179.45190528"/>
    <line x1="36.15063509" y1="191.95190528" x2="23.65063509" y2="170.30127019"/>
    <line x1="250.20508076" y1="251.10254038" x2="228.55444566" y2="238.60254038"/>
    <line x1="250.20508076" y1="251.10254038" x2="250.20508076" y2="276.10254038"/>
    <line x1="275.20508076" y1="39.5" x2="296.85571585" y2="52.0"/>
    <line x1="275.20508076" y1="39.5" x2="250.20508076" y2="39.5"/>
    <line x1="160.25317547" y1="2.0" x2="181.90381057" y2="14.5"/>
    <line x1="45.30127019" y1="132.80127019" x2="57.80127019" y2="111.15063509"/>
    <line x1="45.30127019" y1="132.80127019" x2="70.30127019" y2="132.80127019"/>
    <line x1="241.05444566" y1="191.95190528" x2="216.05444566" y2="191.95190528"/>
    <line x1="241.05444566" y1="191.95190528" x2="241.05444566" y2="216.95190528"/>
    <line x1="241.05444566" y1="191.95190528" x2="228.55444566" y2="170.30127019"/>
    <line x1="147.75317547" y1="73.65063509" x2="172.75317547" y2="73.65063509"/>
    <line x1="147.75317547" y1="73.65063509" x2="147.75317547" y2="98.65063509"/>
    <line x1="138.60254038" y1="132.80127019" x2="126.10254038" y2="111.15063509"/>
    <line x1="138.60254038" y1="132.80127019" x2="160.25317547" y2="120.30127019"/>
    <line x1="386.80762114" y1="132.80127019" x2="386.80762114" y2="157.80127019"/>
    <line x1="57.80127019" y1="229.45190528" x2="36.15063509" y2="216.95190528"/>
    <line x1="57.80127019" y1="229.45190528" x2="79.45190528" y2="216.95190528"/>
    <line x1="296.85571585" y1="120.30127019" x2="275.20508076" y2="132.80127019"/>
    <line x1="296.85571585" y1="120.30127019" x2="318.50635095" y2="132.80127019"/>
    <line x1="91.95190528" y1="120.30127019" x2="104.45190528" y2="98.65063509"/>
    <line x1="91.95190528" y1="120.30127019" x2="113.60254038" y2="132.80127019"/>
    <line x1="181.90381057" y1="157.80127019" x2="206.90381057" y2="157.80127019"/>
    <line x1="160.25317547" y1="52.0" x2="147.75317547" y2="73.65063509"/>
    <line x1="160.25317547" y1="52.0" x2="181.90381057" y2="39.5"/>
    <line x1="160.25317547" y1="52.0" x2="172.75317547" y2="73.65063509"/>
    <line x1="262.70508076" y1="179.45190528" x2="241.05444566" y2="191.95190528"/>
    <line x1="262.70508076" y1="179.45190528" x2="250.20508076" y2="157.80127019"/>
    <line x1="284.35571585" y1="73.65063509" x2="284.35571585" y2="98.65063509"/>
    <line x1="113.60254038" y1="132.80127019" x2="138.60254038" y2="132.80127019"/>
    <line x1="331.00635095" y1="61.15063509" x2="352.65698604" y2="73.65063509"/>
    <line x1="331.00635095" y1="61.15063509" x2="309.35571585" y2="73.65063509"/>
    <line x1="91.95190528" y1="2.0" x2="113.60254038" y2="14.5"/>
    <line x1="138.60254038" y1="276.10254038" x2="138.60254038" y2="251.10254038"/>
    <line x1="138.60254038" y1="276.10254038" x2="113.60254038" y2="276.10254038"/>
    <line x1="126.10254038" y1="229.45190528" x2="104.45190528" y2="216.95190528"/>
    <line x1="126.10254038" y1="229.45190528" x2="113.60254038" y2="251.10254038"/>
    <line x1="296.85571585" y1="52.0" x2="309.35571585" y2="73.65063509"/>
    <line x1="296.85571585" y1="52.0" x2="284.35571585" y2="73.65063509"/>
    <line x1="36.15063509" y1="73.65063509" x2="57.80127019" y2="61.15063509"/>
    <line x1="206.90381057" y1="276.10254038" x2="181.90381057" y2="276.10254038"/>
    <line x1="206.90381057" y1="276.10254038" x2="206.90381057" y2="251.10254038"/>
    <line x1="241.05444566" y1="73.65063509" x2="241.05444566" y2="98.65063509"/>
    <line x1="241.05444566" y1="73.65063509" x2="262.70508076" y2="61.15063509"/>
    <line x1="172.75317547" y1="98.65063509" x2="194.40381057" y2="111.15063509"/>
    <line x1="172.75317547" y1="98.65063509" x2="160.25317547" y2="120.30127019"/>
    <line x1="216.05444566" y1="216.95190528" x2="194.40381057" y2="229.45190528"/>
    <line x1="216.05444566" y1="216.95190528" x2="228.55444566" y2="238.60254038"/>
    <line x1="181.90381057" y1="276.10254038" x2="181.90381057" y2="251.10254038"/>
    <line x1="181.90381057" y1="276.10254038" x2="160.25317547" y2="288.60254038"/>
    <line x1="172.75317547" y1="216.95190528" x2="147.75317547" y2="216.95190528"/>
    <line x1="172.75317547" y1="216.95190528" x2="172.75317547" y2="191.95190528"/>
    <line x1="250.20508076" y1="39.5" x2="262.70508076" y2="61.15063509"/>
    <line x1="57.80127019" y1="111.15063509" x2="79.45190528" y2="98.65063509"/>
    <line x1="57.80127019" y1="111.15063509" x2="70.30127019" y2="132.80127019"/>
    <line x1="206.90381057" y1="251.10254038" x2="181.90381057" y2="251.10254038"/>
    <line x1="206.90381057" y1="251.10254038" x2="194.40381057" y2="229.45190528"/>
    <line x1="194.40381057" y1="61.15063509" x2="216.05444566" y2="73.65063509"/>
    <line x1="104.45190528" y1="98.65063509" x2="104.45190528" y2="73.65063509"/>
    <line x1="104.45190528" y1="98.65063509" x2="126.10254038" y2="111.15063509"/>
    <line x1="250.20508076" y1="132.80127019" x2="275.20508076" y2="132.80127019"/>
    <line x1="250.20508076" y1="132.80127019" x2="250.20508076" y2="157.80127019"/>
    <line x1="284.35571585" y1="191.95190528" x2="284.35571585" y2="216.95190528"/>
    <line x1="284.35571585" y1="191.95190528" x2="262.70508076" y2="179.45190528"/>
    <line x1="138.60254038" y1="157.80127019" x2="138.60254038" y2="132.80127019"/>
    <line x1="138.60254038" y1="157.80127019" x2="113.60254038" y2="157.80127019"/>
    <line x1="23.65063509" y1="170.30127019" x2="45.30127019" y2="157.80127019"/>
    <line x1="23.65063509" y1="170.30127019" x2="2.0" y2="157.80127019"/>
    <line x1="386.80762114" y1="157.80127019" x2="365.15698604" y2="170.30127019"/>
    <line x1="206.90381057" y1="14.5" x2="206.90381057" y2="39.5"/>
    <line x1="206.90381057" y1="14.5" x2="228.55444566" y2="2.0"/>
  </g>
  <g>
    <g style="fill:goldenrod">
      <polygon 
      style="stroke:none" points="250.20508076,14.5 275.20508076,14.5 275.20508076,39.5 250.20508076,39.5">
</polygon>
      <polygon 
      style="stroke:none" points="331.00635095,111.15063509 352.65698604,98.65063509 365.15698604,120.30127019 343.50635095,132.80127019">
</polygon>
      <polygon 
      style="stroke:none" points="45.30127019,132.80127019 23.65063509,120.30127019 36.15063509,98.65063509 57.80127019,111.15063509">
</polygon>
      <polygon 
      style="stroke:none" points="331.00635095,61.15063509 309.35571585,73.65063509 296.85571585,52.0 318.50635095,39.5">
</polygon>
      <polygon 
      style="stroke:none" points="113.60254038,251.10254038 138.60254038,251.10254038 138.60254038,276.10254038 113.60254038,276.10254038">
</polygon>
      <polygon 
      style="stroke:none" points="181.90381057,14.5 206.90381057,14.5 206.90381057,39.5 181.90381057,39.5">
</polygon>
      <polygon 
      style="stroke:none" points="318.50635095,157.80127019 318.50635095,132.80127019 343.50635095,132.80127019 343.50635095,157.80127019">
</polygon>
      <polygon 
      style="stroke:none" points="284.35571585,191.95190528 262.70508076,179.45190528 275.20508076,157.80127019 296.85571585,170.30127019">
</polygon>
      <polygon 
      style="stroke:none" points="296.85571585,120.30127019 309.35571585,98.65063509 331.00635095,111.15063509 318.50635095,132.80127019">
</polygon>
      <polygon 
      style="stroke:none" points="79.45190528,73.65063509 57.80127019,61.15063509 70.30127019,39.5 91.95190528,52.0">
</polygon>
      <polygon 
      style="stroke:none" points="57.80127019,179.45190528 36.15063509,191.95190528 23.65063509,170.30127019 45.30127019,157.80127019">
</polygon>
      <polygon 
      style="stroke:none" points="113.60254038,39.5 113.60254038,14.5 138.60254038,14.5 138.60254038,39.5">
</polygon>
      <polygon 
      style="stroke:none" points="57.80127019,229.45190528 79.45190528,216.95190528 91.95190528,238.60254038 70.30127019,251.10254038">
</polygon>
      <polygon 
      style="stroke:none" points="206.90381057,251.10254038 206.90381057,276.10254038 181.90381057,276.10254038 181.90381057,251.10254038">
</polygon>
      <polygon 
      style="stroke:none" points="228.55444566,238.60254038 241.05444566,216.95190528 262.70508076,229.45190528 250.20508076,251.10254038">
</polygon>
      <polygon 
      style="stroke:none" points="284.35571585,98.65063509 296.85571585,120.30127019 275.20508076,132.80127019 262.70508076,111.15063509">
</polygon>
      <polygon 
      style="stroke:none" points="284.35571585,98.65063509 284.35571585,73.65063509 309.35571585,73.65063509 309.35571585,98.65063509">
</polygon>
      <polygon 
      style="stroke:none" points="296.85571585,52.0 284.35571585,73.65063509 262.70508076,61.15063509 275.20508076,39.5">
</polygon>
      <polygon 
      style="stroke:none" points="241.05444566,73.65063509 228.55444566,52.0 250.20508076,39.5 262.70508076,61.15063509">
</polygon>
      <polygon 
      style="stroke:none" points="216.05444566,73.65063509 241.05444566,73.65063509 241.05444566,98.65063509 216.05444566,98.65063509">
</polygon>
      <polygon 
      style="stroke:none" points="216.05444566,73.65063509 194.40381057,61.15063509 206.90381057,39.5 228.55444566,52.0">
</polygon>
      <polygon 
      style="stroke:none" points="194.40381057,61.15063509 172.75317547,73.65063509 160.25317547,52.0 181.90381057,39.5">
</polygon>
      <polygon 
      style="stroke:none" points="194.40381057,229.45190528 181.90381057,251.10254038 160.25317547,238.60254038 172.75317547,216.95190528">
</polygon>
      <polygon 
      style="stroke:none" points="194.40381057,229.45190528 216.05444566,216.95190528 228.55444566,238.60254038 206.90381057,251.10254038">
</polygon>
      <polygon 
      style="stroke:none" points="241.05444566,216.95190528 216.05444566,216.95190528 216.05444566,191.95190528 241.05444566,191.95190528">
</polygon>
      <polygon 
      style="stroke:none" points="228.55444566,170.30127019 216.05444566,191.95190528 194.40381057,179.45190528 206.90381057,157.80127019">
</polygon>
      <polygon 
      style="stroke:none" points="228.55444566,170.30127019 250.20508076,157.80127019 262.70508076,179.45190528 241.05444566,191.95190528">
</polygon>
      <polygon 
      style="stroke:none" points="250.20508076,157.80127019 250.20508076,132.80127019 275.20508076,132.80127019 275.20508076,157.80127019">
</polygon>
      <polygon 
      style="stroke:none" points="228.55444566,120.30127019 241.05444566,98.65063509 262.70508076,111.15063509 250.20508076,132.80127019">
</polygon>
      <polygon 
      style="stroke:none" points="228.55444566,120.30127019 206.90381057,132.80127019 194.40381057,111.15063509 216.05444566,98.65063509">
</polygon>
      <polygon 
      style="stroke:none" points="126.10254038,61.15063509 138.60254038,39.5 160.25317547,52.0 147.75317547,73.65063509">
</polygon>
      <polygon 
      style="stroke:none" points="172.75317547,98.65063509 147.75317547,98.65063509 147.75317547,73.65063509 172.75317547,73.65063509">
</polygon>
      <polygon 
      style="stroke:none" points="104.45190528,73.65063509 91.95190528,52.0 113.60254038,39.5 126.10254038,61.15063509">
</polygon>
      <polygon 
      style="stroke:none" points="104.45190528,98.65063509 79.45190528,98.65063509 79.45190528,73.65063509 104.45190528,73.65063509">
</polygon>
      <polygon 
      style="stroke:none" points="160.25317547,120.30127019 172.75317547,98.65063509 194.40381057,111.15063509 181.90381057,132.80127019">
</polygon>
      <polygon 
      style="stroke:none" points="160.25317547,120.30127019 138.60254038,132.80127019 126.10254038,111.15063509 147.75317547,98.65063509">
</polygon>
      <polygon 
      style="stroke:none" points="206.90381057,157.80127019 181.90381057,157.80127019 181.90381057,132.80127019 206.90381057,132.80127019">
</polygon>
      <polygon 
      style="stroke:none" points="194.40381057,179.45190528 172.75317547,191.95190528 160.25317547,170.30127019 181.90381057,157.80127019">
</polygon>
      <polygon 
      style="stroke:none" points="113.60254038,132.80127019 91.95190528,120.30127019 104.45190528,98.65063509 126.10254038,111.15063509">
</polygon>
      <polygon 
      style="stroke:none" points="91.95190528,120.30127019 70.30127019,132.80127019 57.80127019,111.15063509 79.45190528,98.65063509">
</polygon>
      <polygon 
      style="stroke:none" points="113.60254038,132.80127019 138.60254038,132.80127019 138.60254038,157.80127019 113.60254038,157.80127019">
</polygon>
      <polygon 
      style="stroke:none" points="70.30127019,132.80127019 70.30127019,157.80127019 45.30127019,157.80127019 45.30127019,132.80127019">
</polygon>
      <polygon 
      style="stroke:none" points="79.45190528,191.95190528 57.80127019,179.45190528 70.30127019,157.80127019 91.95190528,170.30127019">
</polygon>
      <polygon 
      style="stroke:none" points="104.45190528,191.95190528 91.95190528,170.30127019 113.60254038,157.80127019 126.10254038,179.45190528">
</polygon>
      <polygon 
      style="stroke:none" points="79.45190528,216.95190528 79.45190528,191.95190528 104.45190528,191.95190528 104.45190528,216.95190528">
</polygon>
      <polygon 
      style="stroke:none" points="104.45190528,216.95190528 126.10254038,229.45190528 113.60254038,251.10254038 91.95190528,238.60254038">
</polygon>
      <polygon 
      style="stroke:none" points="126.10254038,179.45190528 138.60254038,157.80127019 160.25317547,170.30127019 147.75317547,191.95190528">
</polygon>
      <polygon 
      style="stroke:none" points="147.75317547,216.95190528 147.75317547,191.95190528 172.75317547,191.95190528 172.75317547,216.95190528">
</polygon>
      <polygon 
      style="stroke:none" points="126.10254038,229.45190528 147.75317547,216.95190528 160.25317547,238.60254038 138.60254038,251.10254038">
</polygon>
    </g>
    <g style="fill:yellow">
      <polygon 
      style="stroke:none" points="318.50635095,157.80127019 343.50635095,157.80127019 331.00635095,179.45190528">
</polygon>
      <polygon 
      style="stroke:none" points="331.00635095,111.15063509 343.50635095,132.80127019 318.50635095,132.80127019">
</polygon>
      <polygon 
      style="stroke:none" points="284.35571585,98.65063509 309.35571585,98.65063509 296.85571585,120.30127019">
</polygon>
      <polygon 
      style="stroke:none" points="296.85571585,52.0 309.35571585,73.65063509 284.35571585,73.65063509">
</polygon>
      <polygon 
      style="stroke:none" points="262.70508076,61.15063509 250.20508076,39.5 275.20508076,39.5">
</polygon>
      <polygon 
      style="stroke:none" points="216.05444566,73.65063509 228.55444566,52.0 241.05444566,73.65063509">
</polygon>
      <polygon 
      style="stroke:none" points="194.40381057,61.15063509 181.90381057,39.5 206.90381057,39.5">
</polygon>
      <polygon 
      style="stroke:none" points="194.40381057,229.45190528 206.90381057,251.10254038 181.90381057,251.10254038">
</polygon>
      <polygon 
      style="stroke:none" points="241.05444566,216.95190528 228.55444566,238.60254038 216.05444566,216.95190528">
</polygon>
      <polygon 
      style="stroke:none" points="228.55444566,170.30127019 241.05444566,191.95190528 216.05444566,191.95190528">
</polygon>
      <polygon 
      style="stroke:none" points="250.20508076,157.80127019 275.20508076,157.80127019 262.70508076,179.45190528">
</polygon>
      <polygon 
      style="stroke:none" points="250.20508076,132.80127019 262.70508076,111.15063509 275.20508076,132.80127019">
</polygon>
      <polygon 
      style="stroke:none" points="228.55444566,120.30127019 216.05444566,98.65063509 241.05444566,98.65063509">
</polygon>
      <polygon 
      style="stroke:none" points="126.10254038,61.15063509 113.60254038,39.5 138.60254038,39.5">
</polygon>
      <polygon 
      style="stroke:none" points="172.75317547,73.65063509 147.75317547,73.65063509 160.25317547,52.0">
</polygon>
      <polygon 
      style="stroke:none" points="104.45190528,73.65063509 79.45190528,73.65063509 91.95190528,52.0">
</polygon>
      <polygon 
      style="stroke:none" points="160.25317547,120.30127019 147.75317547,98.65063509 172.75317547,98.65063509">
</polygon>
      <polygon 
      style="stroke:none" points="181.90381057,132.80127019 194.40381057,111.15063509 206.90381057,132.80127019">
</polygon>
      <polygon 
      style="stroke:none" points="194.40381057,179.45190528 181.90381057,157.80127019 206.90381057,157.80127019">
</polygon>
      <polygon 
      style="stroke:none" points="113.60254038,132.80127019 126.10254038,111.15063509 138.60254038,132.80127019">
</polygon>
      <polygon 
      style="stroke:none" points="91.95190528,120.30127019 79.45190528,98.65063509 104.45190528,98.65063509">
</polygon>
      <polygon 
      style="stroke:none" points="70.30127019,132.80127019 45.30127019,132.80127019 57.80127019,111.15063509">
</polygon>
      <polygon 
      style="stroke:none" points="70.30127019,157.80127019 57.80127019,179.45190528 45.30127019,157.80127019">
</polygon>
      <polygon 
      style="stroke:none" points="104.45190528,191.95190528 79.45190528,191.95190528 91.95190528,170.30127019">
</polygon>
      <polygon 
      style="stroke:none" points="104.45190528,216.95190528 91.95190528,238.60254038 79.45190528,216.95190528">
</polygon>
      <polygon 
      style="stroke:none" points="126.10254038,179.45190528 113.60254038,157.80127019 138.60254038,157.80127019">
</polygon>
      <polygon 
      style="stroke:none" points="147.75317547,191.95190528 160.25317547,170.30127019 172.75317547,191.95190528">
</polygon>
      <polygon 
      style="stroke:none" points="147.75317547,216.95190528 172.75317547,216.95190528 160.25317547,238.60254038">
</polygon>
      <polygon 
      style="stroke:none" points="126.10254038,229.45190528 138.60254038,251.10254038 113.60254038,251.10254038">
</polygon>
    </g>
    <g style="fill:grey">
      <polygon 
      style="stroke:none" points="386.80762114,132.80127019 386.80762114,157.80127019 365.15698604,170.30127019 343.50635095,157.80127019 343.50635095,132.80127019 365.15698604,120.30127019">
</polygon>
      <polygon 
      style="stroke:none" points="2.0,132.80127019 23.65063509,120.30127019 45.30127019,132.80127019 45.30127019,157.80127019 23.65063509,170.30127019 2.0,157.80127019">
</polygon>
      <polygon 
      style="stroke:none" points="275.20508076,14.5 296.85571585,2.0 318.50635095,14.5 318.50635095,39.5 296.85571585,52.0 275.20508076,39.5">
</polygon>
      <polygon 
      style="stroke:none" points="331.00635095,61.15063509 352.65698604,73.65063509 352.65698604,98.65063509 331.00635095,111.15063509 309.35571585,98.65063509 309.35571585,73.65063509">
</polygon>
      <polygon 
      style="stroke:none" points="36.15063509,191.95190528 57.80127019,179.45190528 79.45190528,191.95190528 79.45190528,216.95190528 57.80127019,229.45190528 36.15063509,216.95190528">
</polygon>
      <polygon 
      style="stroke:none" points="70.30127019,276.10254038 70.30127019,251.10254038 91.95190528,238.60254038 113.60254038,251.10254038 113.60254038,276.10254038 91.95190528,288.60254038">
</polygon>
      <polygon 
      style="stroke:none" points="206.90381057,14.5 228.55444566,2.0 250.20508076,14.5 250.20508076,39.5 228.55444566,52.0 206.90381057,39.5">
</polygon>
      <polygon 
      style="stroke:none" points="318.50635095,132.80127019 318.50635095,157.80127019 296.85571585,170.30127019 275.20508076,157.80127019 275.20508076,132.80127019 296.85571585,120.30127019">
</polygon>
      <polygon 
      style="stroke:none" points="57.80127019,111.15063509 36.15063509,98.65063509 36.15063509,73.65063509 57.80127019,61.15063509 79.45190528,73.65063509 79.45190528,98.65063509">
</polygon>
      <polygon 
      style="stroke:none" points="70.30127019,14.5 91.95190528,2.0 113.60254038,14.5 113.60254038,39.5 91.95190528,52.0 70.30127019,39.5">
</polygon>
      <polygon 
      style="stroke:none" points="250.20508076,251.10254038 250.20508076,276.10254038 228.55444566,288.60254038 206.90381057,276.10254038 206.90381057,251.10254038 228.55444566,238.60254038">
</polygon>
      <polygon 
      style="stroke:none" points="241.05444566,216.95190528 241.05444566,191.95190528 262.70508076,179.45190528 284.35571585,191.95190528 284.35571585,216.95190528 262.70508076,229.45190528">
</polygon>
      <polygon 
      style="stroke:none" points="138.60254038,276.10254038 138.60254038,251.10254038 160.25317547,238.60254038 181.90381057,251.10254038 181.90381057,276.10254038 160.25317547,288.60254038">
</polygon>
      <polygon 
      style="stroke:none" points="181.90381057,14.5 181.90381057,39.5 160.25317547,52.0 138.60254038,39.5 138.60254038,14.5 160.25317547,2.0">
</polygon>
      <polygon 
      style="stroke:none" points="284.35571585,73.65063509 284.35571585,98.65063509 262.70508076,111.15063509 241.05444566,98.65063509 241.05444566,73.65063509 262.70508076,61.15063509">
</polygon>
      <polygon 
      style="stroke:none" points="194.40381057,61.15063509 216.05444566,73.65063509 216.05444566,98.65063509 194.40381057,111.15063509 172.75317547,98.65063509 172.75317547,73.65063509">
</polygon>
      <polygon 
      style="stroke:none" points="172.75317547,216.95190528 172.75317547,191.95190528 194.40381057,179.45190528 216.05444566,191.95190528 216.05444566,216.95190528 194.40381057,229.45190528">
</polygon>
      <polygon 
      style="stroke:none" points="228.55444566,170.30127019 206.90381057,157.80127019 206.90381057,132.80127019 228.55444566,120.30127019 250.20508076,132.80127019 250.20508076,157.80127019">
</polygon>
      <polygon 
      style="stroke:none" points="126.10254038,61.15063509 147.75317547,73.65063509 147.75317547,98.65063509 126.10254038,111.15063509 104.45190528,98.65063509 104.45190528,73.65063509">
</polygon>
      <polygon 
      style="stroke:none" points="160.25317547,120.30127019 181.90381057,132.80127019 181.90381057,157.80127019 160.25317547,170.30127019 138.60254038,157.80127019 138.60254038,132.80127019">
</polygon>
      <polygon 
      style="stroke:none" points="70.30127019,132.80127019 91.95190528,120.30127019 113.60254038,132.80127019 113.60254038,157.80127019 91.95190528,170.30127019 70.30127019,157.80127019">
</polygon>
      <polygon 
      style="stroke:none" points="104.45190528,216.95190528 104.45190528,191.95190528 126.10254038,179.45190528 147.75317547,191.95190528 147.75317547,216.95190528 126.10254038,229.45190528">
</polygon>
    </g>
  </g>
  <polygon 
  style="fill:none;stroke:blue;stroke-width:2" points="318.50635095,157.80127019 296.85571585,170.30127019 284.35571585,191.95190528 284.35571585,216.95190528 262.70508076,229.45190528 250.20508076,251.10254038 250.20508076,276.10254038 228.55444566,288.60254038 206.90381057,276.10254038 181.90381057,276.10254038 160.25317547,288.60254038 138.60254038,276.10254038 113.60254038,276.10254038 91.95190528,288.60254038 70.30127019,276.10254038 70.30127019,251.10254038 57.80127019,229.45190528 36.15063509,216.95190528 36.15063509,191.95190528 23.65063509,170.30127019 2.0,157.80127019 2.0,132.80127019 23.65063509,120.30127019 36.15063509,98.65063509 36.15063509,73.65063509 57.80127019,61.15063509 70.30127019,39.5 70.30127019,14.5 91.95190528,2.0 113.60254038,14.5 138.60254038,14.5 160.25317547,2.0 181.90381057,14.5 206.90381057,14.5 228.55444566,2.0 250.20508076,14.5 275.20508076,14.5 296.85571585,2.0 318.50635095,14.5 318.50635095,39.5 331.00635095,61.15063509 352.65698604,73.65063509 352.65698604,98.65063509 365.15698604,120.30127019 386.80762114,132.80127019 386.80762114,157.80127019 365.15698604,170.30127019 343.50635095,157.80127019 331.00635095,179.45190528">
</polygon>
  <g style="fill:red">
    <text x="157.25317547" y="241.10254038">69</text>
    <text x="88.95190528" y="4.5">101</text>
    <text x="-1.0" y="160.30127019">88</text>
    <text x="272.20508076" y="42.0">115</text>
    <text x="157.25317547" y="172.80127019">5</text>
    <text x="315.50635095" y="42.0">120</text>
    <text x="203.90381057" y="135.30127019">10</text>
    <text x="281.35571585" y="194.45190528">56</text>
    <text x="213.05444566" y="76.15063509">42</text>
    <text x="101.45190528" y="194.45190528">24</text>
    <text x="169.75317547" y="101.15063509">37</text>
    <text x="110.60254038" y="160.30127019">25</text>
    <text x="315.50635095" y="135.30127019">52</text>
    <text x="225.55444566" y="172.80127019">14</text>
    <text x="203.90381057" y="17.0">110</text>
    <text x="349.65698604" y="76.15063509">125</text>
    <text x="144.75317547" y="194.45190528">20</text>
    <text x="259.70508076" y="63.65063509">46</text>
    <text x="76.45190528" y="101.15063509">93</text>
    <text x="238.05444566" y="194.45190528">57</text>
    <text x="67.30127019" y="253.60254038">78</text>
    <text x="67.30127019" y="135.30127019">29</text>
    <text x="178.90381057" y="42.0">106</text>
    <text x="306.35571585" y="76.15063509">121</text>
    <text x="33.15063509" y="194.45190528">84</text>
    <text x="225.55444566" y="241.10254038">61</text>
    <text x="362.15698604" y="172.80127019">132</text>
    <text x="-1.0" y="135.30127019">89</text>
    <text x="328.00635095" y="181.95190528">133</text>
    <text x="293.85571585" y="54.5">116</text>
    <text x="178.90381057" y="160.30127019">1</text>
    <text x="88.95190528" y="241.10254038">74</text>
    <text x="135.60254038" y="160.30127019">6</text>
    <text x="259.70508076" y="231.95190528">60</text>
    <text x="272.20508076" y="17.0">117</text>
    <text x="42.30127019" y="160.30127019">85</text>
    <text x="110.60254038" y="17.0">102</text>
    <text x="67.30127019" y="160.30127019">28</text>
    <text x="169.75317547" y="76.15063509">38</text>
    <text x="135.60254038" y="253.60254038">70</text>
    <text x="123.10254038" y="181.95190528">21</text>
    <text x="101.45190528" y="101.15063509">33</text>
    <text x="33.15063509" y="101.15063509">92</text>
    <text x="225.55444566" y="291.10254038">65</text>
    <text x="88.95190528" y="54.5">97</text>
    <text x="178.90381057" y="135.30127019">9</text>
    <text x="315.50635095" y="160.30127019">53</text>
    <text x="203.90381057" y="42.0">109</text>
    <text x="328.00635095" y="113.65063509">124</text>
    <text x="67.30127019" y="278.60254038">77</text>
    <text x="54.80127019" y="63.65063509">96</text>
    <text x="247.20508076" y="160.30127019">13</text>
    <text x="362.15698604" y="122.80127019">129</text>
    <text x="191.40381057" y="63.65063509">41</text>
    <text x="110.60254038" y="253.60254038">73</text>
    <text x="340.50635095" y="160.30127019">128</text>
    <text x="157.25317547" y="54.5">105</text>
    <text x="203.90381057" y="160.30127019">2</text>
    <text x="144.75317547" y="101.15063509">32</text>
    <text x="101.45190528" y="76.15063509">34</text>
    <text x="238.05444566" y="76.15063509">45</text>
    <text x="247.20508076" y="278.60254038">64</text>
    <text x="191.40381057" y="231.95190528">17</text>
    <text x="123.10254038" y="231.95190528">22</text>
    <text x="259.70508076" y="113.65063509">44</text>
    <text x="281.35571585" y="219.45190528">59</text>
    <text x="293.85571585" y="4.5">118</text>
    <text x="88.95190528" y="172.80127019">27</text>
    <text x="157.25317547" y="291.10254038">71</text>
    <text x="247.20508076" y="135.30127019">12</text>
    <text x="293.85571585" y="172.80127019">54</text>
    <text x="272.20508076" y="135.30127019">49</text>
    <text x="42.30127019" y="135.30127019">86</text>
    <text x="225.55444566" y="4.5">113</text>
    <text x="76.45190528" y="194.45190528">81</text>
    <text x="88.95190528" y="291.10254038">76</text>
    <text x="135.60254038" y="135.30127019">7</text>
    <text x="191.40381057" y="113.65063509">39</text>
    <text x="110.60254038" y="42.0">98</text>
    <text x="135.60254038" y="42.0">103</text>
    <text x="54.80127019" y="113.65063509">91</text>
    <text x="203.90381057" y="278.60254038">66</text>
    <text x="178.90381057" y="17.0">108</text>
    <text x="383.80762114" y="135.30127019">130</text>
    <text x="191.40381057" y="181.95190528">3</text>
    <text x="54.80127019" y="231.95190528">80</text>
    <text x="123.10254038" y="63.65063509">35</text>
    <text x="247.20508076" y="42.0">112</text>
    <text x="306.35571585" y="101.15063509">123</text>
    <text x="281.35571585" y="101.15063509">48</text>
    <text x="247.20508076" y="253.60254038">63</text>
    <text x="169.75317547" y="219.45190528">18</text>
    <text x="33.15063509" y="76.15063509">95</text>
    <text x="272.20508076" y="160.30127019">50</text>
    <text x="178.90381057" y="253.60254038">67</text>
    <text x="213.05444566" y="219.45190528">16</text>
    <text x="340.50635095" y="135.30127019">127</text>
    <text x="123.10254038" y="113.65063509">31</text>
    <text x="225.55444566" y="122.80127019">11</text>
    <text x="135.60254038" y="278.60254038">72</text>
    <text x="238.05444566" y="101.15063509">43</text>
    <text x="67.30127019" y="42.0">99</text>
    <text x="20.65063509" y="172.80127019">87</text>
    <text x="135.60254038" y="17.0">104</text>
    <text x="213.05444566" y="101.15063509">40</text>
    <text x="110.60254038" y="135.30127019">26</text>
    <text x="259.70508076" y="181.95190528">55</text>
    <text x="247.20508076" y="17.0">114</text>
    <text x="101.45190528" y="219.45190528">23</text>
    <text x="157.25317547" y="122.80127019">8</text>
    <text x="110.60254038" y="278.60254038">75</text>
    <text x="315.50635095" y="17.0">119</text>
    <text x="238.05444566" y="219.45190528">58</text>
    <text x="54.80127019" y="181.95190528">82</text>
    <text x="144.75317547" y="76.15063509">36</text>
    <text x="88.95190528" y="122.80127019">30</text>
    <text x="293.85571585" y="122.80127019">51</text>
    <text x="144.75317547" y="219.45190528">19</text>
    <text x="157.25317547" y="4.5">107</text>
    <text x="169.75317547" y="194.45190528">4</text>
    <text x="349.65698604" y="101.15063509">126</text>
    <text x="76.45190528" y="219.45190528">79</text>
    <text x="76.45190528" y="76.15063509">94</text>
    <text x="383.80762114" y="160.30127019">131</text>
    <text x="281.35571585" y="76.15063509">47</text>
    <text x="213.05444566" y="194.45190528">15</text>
    <text x="178.90381057" y="278.60254038">68</text>
    <text x="203.90381057" y="253.60254038">62</text>
    <text x="20.65063509" y="122.80127019">90</text>
    <text x="225.55444566" y="54.5">111</text>
    <text x="328.00635095" y="63.65063509">122</text>
    <text x="33.15063509" y="219.45190528">83</text>
    <text x="67.30127019" y="17.0">100</text>
  </g>
</svg>