<?xml version='1.0' encoding='UTF-8'?>
<svg version="1.1" xmlns="http://www.w3.org/2000/svg">
  <g style="stroke:black">
    <line x1="227.0" y1="326.75952642" x2="239.5" y2="348.41016151"/>
    <line x1="302.0" y1="240.15698604" x2="314.5" y2="261.80762114"/>
    <line x1="127.0" y1="370.06079661" x2="152.0" y2="370.06079661"/>
    <line x1="127.0" y1="370.06079661" x2="114.5" y2="391.7114317"/>
    <line x1="39.5" y1="2.0" x2="52.0" y2="23.65063509"/>
    <line x1="202.0" y1="283.45825623" x2="227.0" y2="283.45825623"/>
    <line x1="202.0" y1="283.45825623" x2="189.5" y2="305.10889132"/>
    <line x1="227.0" y1="456.66333699" x2="239.5" y2="478.31397208"/>
    <line x1="77.0" y1="370.06079661" x2="89.5" y2="391.7114317"/>
    <line x1="14.5" y1="305.10889132" x2="39.5" y2="305.10889132"/>
    <line x1="14.5" y1="305.10889132" x2="2.0" y2="326.75952642"/>
    <line x1="302.0" y1="370.06079661" x2="314.5" y2="391.7114317"/>
    <line x1="152.0" y1="283.45825623" x2="164.5" y2="305.10889132"/>
    <line x1="89.5" y1="218.50635095" x2="114.5" y2="218.50635095"/>
    <line x1="89.5" y1="218.50635095" x2="77.0" y2="240.15698604"/>
    <line x1="227.0" y1="196.85571585" x2="239.5" y2="218.50635095"/>
    <line x1="164.5" y1="131.90381057" x2="189.5" y2="131.90381057"/>
    <line x1="164.5" y1="131.90381057" x2="152.0" y2="153.55444566"/>
    <line x1="239.5" y1="391.7114317" x2="227.0" y2="413.3620668"/>
    <line x1="239.5" y1="391.7114317" x2="264.5" y2="391.7114317"/>
    <line x1="314.5" y1="305.10889132" x2="302.0" y2="326.75952642"/>
    <line x1="114.5" y1="131.90381057" x2="127.0" y2="153.55444566"/>
    <line x1="52.0" y1="66.95190528" x2="77.0" y2="66.95190528"/>
    <line x1="52.0" y1="66.95190528" x2="39.5" y2="88.60254038"/>
    <line x1="277.0" y1="413.3620668" x2="264.5" y2="435.01270189"/>
    <line x1="277.0" y1="413.3620668" x2="302.0" y2="413.3620668"/>
    <line x1="77.0" y1="240.15698604" x2="89.5" y2="261.80762114"/>
    <line x1="14.5" y1="175.20508076" x2="39.5" y2="175.20508076"/>
    <line x1="14.5" y1="175.20508076" x2="2.0" y2="196.85571585"/>
    <line x1="152.0" y1="153.55444566" x2="164.5" y2="175.20508076"/>
    <line x1="214.5" y1="305.10889132" x2="227.0" y2="283.45825623"/>
    <line x1="214.5" y1="305.10889132" x2="227.0" y2="326.75952642"/>
    <line x1="214.5" y1="305.10889132" x2="202.0" y2="283.45825623"/>
    <line x1="214.5" y1="305.10889132" x2="202.0" y2="326.75952642"/>
    <line x1="214.5" y1="305.10889132" x2="239.5" y2="305.10889132"/>
    <line x1="214.5" y1="305.10889132" x2="189.5" y2="305.10889132"/>
    <line x1="89.5" y1="88.60254038" x2="77.0" y2="110.25317547"/>
    <line x1="89.5" y1="88.60254038" x2="114.5" y2="88.60254038"/>
    <line x1="164.5" y1="348.41016151" x2="152.0" y2="370.06079661"/>
    <line x1="164.5" y1="348.41016151" x2="189.5" y2="348.41016151"/>
    <line x1="302.0" y1="326.75952642" x2="314.5" y2="348.41016151"/>
    <line x1="239.5" y1="261.80762114" x2="264.5" y2="261.80762114"/>
    <line x1="239.5" y1="261.80762114" x2="227.0" y2="283.45825623"/>
    <line x1="39.5" y1="88.60254038" x2="52.0" y2="110.25317547"/>
    <line x1="314.5" y1="175.20508076" x2="302.0" y2="196.85571585"/>
    <line x1="64.5" y1="261.80762114" x2="77.0" y2="283.45825623"/>
    <line x1="64.5" y1="261.80762114" x2="77.0" y2="240.15698604"/>
    <line x1="64.5" y1="261.80762114" x2="89.5" y2="261.80762114"/>
    <line x1="64.5" y1="261.80762114" x2="39.5" y2="261.80762114"/>
    <line x1="64.5" y1="261.80762114" x2="52.0" y2="283.45825623"/>
    <line x1="64.5" y1="261.80762114" x2="52.0" y2="240.15698604"/>
    <line x1="302.0" y1="456.66333699" x2="314.5" y2="478.31397208"/>
    <line x1="39.5" y1="218.50635095" x2="52.0" y2="240.15698604"/>
    <line x1="139.5" y1="131.90381057" x2="127.0" y2="153.55444566"/>
    <line x1="139.5" y1="131.90381057" x2="152.0" y2="153.55444566"/>
    <line x1="139.5" y1="131.90381057" x2="127.0" y2="110.25317547"/>
    <line x1="139.5" y1="131.90381057" x2="152.0" y2="110.25317547"/>
    <line x1="139.5" y1="131.90381057" x2="114.5" y2="131.90381057"/>
    <line x1="139.5" y1="131.90381057" x2="164.5" y2="131.90381057"/>
    <line x1="302.0" y1="196.85571585" x2="314.5" y2="218.50635095"/>
    <line x1="239.5" y1="131.90381057" x2="264.5" y2="131.90381057"/>
    <line x1="239.5" y1="131.90381057" x2="227.0" y2="153.55444566"/>
    <line x1="89.5" y1="45.30127019" x2="114.5" y2="45.30127019"/>
    <line x1="89.5" y1="45.30127019" x2="77.0" y2="66.95190528"/>
    <line x1="277.0" y1="499.96460718" x2="302.0" y2="499.96460718"/>
    <line x1="227.0" y1="413.3620668" x2="239.5" y2="435.01270189"/>
    <line x1="189.5" y1="131.90381057" x2="202.0" y2="153.55444566"/>
    <line x1="14.5" y1="261.80762114" x2="39.5" y2="261.80762114"/>
    <line x1="14.5" y1="261.80762114" x2="2.0" y2="283.45825623"/>
    <line x1="89.5" y1="175.20508076" x2="114.5" y2="175.20508076"/>
    <line x1="89.5" y1="175.20508076" x2="77.0" y2="196.85571585"/>
    <line x1="164.5" y1="435.01270189" x2="189.5" y2="435.01270189"/>
    <line x1="114.5" y1="348.41016151" x2="127.0" y2="370.06079661"/>
    <line x1="164.5" y1="88.60254038" x2="189.5" y2="88.60254038"/>
    <line x1="164.5" y1="88.60254038" x2="152.0" y2="110.25317547"/>
    <line x1="239.5" y1="348.41016151" x2="227.0" y2="370.06079661"/>
    <line x1="239.5" y1="348.41016151" x2="264.5" y2="348.41016151"/>
    <line x1="189.5" y1="261.80762114" x2="202.0" y2="283.45825623"/>
    <line x1="39.5" y1="175.20508076" x2="52.0" y2="196.85571585"/>
    <line x1="314.5" y1="261.80762114" x2="302.0" y2="283.45825623"/>
    <line x1="264.5" y1="175.20508076" x2="277.0" y2="196.85571585"/>
    <line x1="114.5" y1="88.60254038" x2="127.0" y2="110.25317547"/>
    <line x1="52.0" y1="23.65063509" x2="77.0" y2="23.65063509"/>
    <line x1="52.0" y1="23.65063509" x2="39.5" y2="45.30127019"/>
    <line x1="2.0" y1="283.45825623" x2="14.5" y2="305.10889132"/>
    <line x1="127.0" y1="283.45825623" x2="152.0" y2="283.45825623"/>
    <line x1="127.0" y1="283.45825623" x2="114.5" y2="305.10889132"/>
    <line x1="77.0" y1="196.85571585" x2="89.5" y2="218.50635095"/>
    <line x1="89.5" y1="391.7114317" x2="114.5" y2="391.7114317"/>
    <line x1="39.5" y1="305.10889132" x2="52.0" y2="326.75952642"/>
    <line x1="164.5" y1="305.10889132" x2="189.5" y2="305.10889132"/>
    <line x1="164.5" y1="305.10889132" x2="152.0" y2="326.75952642"/>
    <line x1="114.5" y1="218.50635095" x2="127.0" y2="240.15698604"/>
    <line x1="302.0" y1="283.45825623" x2="314.5" y2="305.10889132"/>
    <line x1="239.5" y1="218.50635095" x2="227.0" y2="240.15698604"/>
    <line x1="239.5" y1="218.50635095" x2="264.5" y2="218.50635095"/>
    <line x1="39.5" y1="45.30127019" x2="52.0" y2="66.95190528"/>
    <line x1="52.0" y1="240.15698604" x2="77.0" y2="240.15698604"/>
    <line x1="52.0" y1="240.15698604" x2="39.5" y2="261.80762114"/>
    <line x1="127.0" y1="153.55444566" x2="152.0" y2="153.55444566"/>
    <line x1="127.0" y1="153.55444566" x2="114.5" y2="175.20508076"/>
    <line x1="302.0" y1="413.3620668" x2="314.5" y2="435.01270189"/>
    <line x1="264.5" y1="131.90381057" x2="277.0" y2="153.55444566"/>
    <line x1="252.0" y1="240.15698604" x2="227.0" y2="240.15698604"/>
    <line x1="252.0" y1="240.15698604" x2="239.5" y2="218.50635095"/>
    <line x1="252.0" y1="240.15698604" x2="264.5" y2="261.80762114"/>
    <line x1="252.0" y1="240.15698604" x2="277.0" y2="240.15698604"/>
    <line x1="252.0" y1="240.15698604" x2="264.5" y2="218.50635095"/>
    <line x1="252.0" y1="240.15698604" x2="239.5" y2="261.80762114"/>
    <line x1="52.0" y1="370.06079661" x2="77.0" y2="370.06079661"/>
    <line x1="189.5" y1="348.41016151" x2="202.0" y2="370.06079661"/>
    <line x1="314.5" y1="348.41016151" x2="302.0" y2="370.06079661"/>
    <line x1="289.5" y1="478.31397208" x2="314.5" y2="478.31397208"/>
    <line x1="289.5" y1="478.31397208" x2="264.5" y2="478.31397208"/>
    <line x1="289.5" y1="478.31397208" x2="277.0" y2="499.96460718"/>
    <line x1="289.5" y1="478.31397208" x2="277.0" y2="456.66333699"/>
    <line x1="289.5" y1="478.31397208" x2="302.0" y2="456.66333699"/>
    <line x1="289.5" y1="478.31397208" x2="302.0" y2="499.96460718"/>
    <line x1="52.0" y1="110.25317547" x2="39.5" y2="131.90381057"/>
    <line x1="52.0" y1="110.25317547" x2="77.0" y2="110.25317547"/>
    <line x1="227.0" y1="370.06079661" x2="239.5" y2="391.7114317"/>
    <line x1="189.5" y1="88.60254038" x2="202.0" y2="110.25317547"/>
    <line x1="102.0" y1="196.85571585" x2="114.5" y2="218.50635095"/>
    <line x1="102.0" y1="196.85571585" x2="127.0" y2="196.85571585"/>
    <line x1="102.0" y1="196.85571585" x2="114.5" y2="175.20508076"/>
    <line x1="102.0" y1="196.85571585" x2="89.5" y2="218.50635095"/>
    <line x1="102.0" y1="196.85571585" x2="89.5" y2="175.20508076"/>
    <line x1="102.0" y1="196.85571585" x2="77.0" y2="196.85571585"/>
    <line x1="314.5" y1="478.31397208" x2="302.0" y2="499.96460718"/>
    <line x1="164.5" y1="391.7114317" x2="152.0" y2="413.3620668"/>
    <line x1="164.5" y1="391.7114317" x2="189.5" y2="391.7114317"/>
    <line x1="114.5" y1="305.10889132" x2="127.0" y2="326.75952642"/>
    <line x1="239.5" y1="305.10889132" x2="264.5" y2="305.10889132"/>
    <line x1="239.5" y1="305.10889132" x2="227.0" y2="326.75952642"/>
    <line x1="189.5" y1="218.50635095" x2="202.0" y2="240.15698604"/>
    <line x1="314.5" y1="218.50635095" x2="302.0" y2="240.15698604"/>
    <line x1="264.5" y1="478.31397208" x2="277.0" y2="499.96460718"/>
    <line x1="2.0" y1="240.15698604" x2="14.5" y2="261.80762114"/>
    <line x1="127.0" y1="240.15698604" x2="152.0" y2="240.15698604"/>
    <line x1="127.0" y1="240.15698604" x2="114.5" y2="261.80762114"/>
    <line x1="77.0" y1="153.55444566" x2="89.5" y2="175.20508076"/>
    <line x1="202.0" y1="153.55444566" x2="227.0" y2="153.55444566"/>
    <line x1="202.0" y1="153.55444566" x2="189.5" y2="175.20508076"/>
    <line x1="152.0" y1="66.95190528" x2="164.5" y2="88.60254038"/>
    <line x1="164.5" y1="261.80762114" x2="189.5" y2="261.80762114"/>
    <line x1="164.5" y1="261.80762114" x2="152.0" y2="283.45825623"/>
    <line x1="114.5" y1="175.20508076" x2="127.0" y2="196.85571585"/>
    <line x1="239.5" y1="175.20508076" x2="264.5" y2="175.20508076"/>
    <line x1="239.5" y1="175.20508076" x2="227.0" y2="196.85571585"/>
    <line x1="189.5" y1="435.01270189" x2="202.0" y2="456.66333699"/>
    <line x1="314.5" y1="435.01270189" x2="302.0" y2="456.66333699"/>
    <line x1="264.5" y1="348.41016151" x2="277.0" y2="370.06079661"/>
    <line x1="52.0" y1="196.85571585" x2="77.0" y2="196.85571585"/>
    <line x1="52.0" y1="196.85571585" x2="39.5" y2="218.50635095"/>
    <line x1="2.0" y1="110.25317547" x2="14.5" y2="131.90381057"/>
    <line x1="127.0" y1="110.25317547" x2="152.0" y2="110.25317547"/>
    <line x1="127.0" y1="110.25317547" x2="114.5" y2="131.90381057"/>
    <line x1="77.0" y1="23.65063509" x2="89.5" y2="45.30127019"/>
    <line x1="114.5" y1="391.7114317" x2="127.0" y2="413.3620668"/>
    <line x1="52.0" y1="326.75952642" x2="77.0" y2="326.75952642"/>
    <line x1="52.0" y1="326.75952642" x2="39.5" y2="348.41016151"/>
    <line x1="14.5" y1="45.30127019" x2="39.5" y2="45.30127019"/>
    <line x1="14.5" y1="45.30127019" x2="2.0" y2="66.95190528"/>
    <line x1="189.5" y1="305.10889132" x2="202.0" y2="326.75952642"/>
    <line x1="264.5" y1="218.50635095" x2="277.0" y2="240.15698604"/>
    <line x1="152.0" y1="413.3620668" x2="164.5" y2="435.01270189"/>
    <line x1="2.0" y1="326.75952642" x2="14.5" y2="348.41016151"/>
    <line x1="202.0" y1="240.15698604" x2="227.0" y2="240.15698604"/>
    <line x1="202.0" y1="240.15698604" x2="189.5" y2="261.80762114"/>
    <line x1="39.5" y1="348.41016151" x2="52.0" y2="370.06079661"/>
    <line x1="277.0" y1="153.55444566" x2="302.0" y2="153.55444566"/>
    <line x1="277.0" y1="153.55444566" x2="264.5" y2="175.20508076"/>
    <line x1="114.5" y1="261.80762114" x2="127.0" y2="283.45825623"/>
    <line x1="189.5" y1="175.20508076" x2="202.0" y2="196.85571585"/>
    <line x1="289.5" y1="175.20508076" x2="302.0" y2="153.55444566"/>
    <line x1="289.5" y1="175.20508076" x2="314.5" y2="175.20508076"/>
    <line x1="289.5" y1="175.20508076" x2="264.5" y2="175.20508076"/>
    <line x1="289.5" y1="175.20508076" x2="277.0" y2="153.55444566"/>
    <line x1="289.5" y1="175.20508076" x2="302.0" y2="196.85571585"/>
    <line x1="289.5" y1="175.20508076" x2="277.0" y2="196.85571585"/>
    <line x1="264.5" y1="435.01270189" x2="277.0" y2="456.66333699"/>
    <line x1="202.0" y1="370.06079661" x2="189.5" y2="391.7114317"/>
    <line x1="202.0" y1="370.06079661" x2="227.0" y2="370.06079661"/>
    <line x1="52.0" y1="283.45825623" x2="77.0" y2="283.45825623"/>
    <line x1="52.0" y1="283.45825623" x2="39.5" y2="305.10889132"/>
    <line x1="2.0" y1="196.85571585" x2="14.5" y2="218.50635095"/>
    <line x1="277.0" y1="283.45825623" x2="302.0" y2="283.45825623"/>
    <line x1="277.0" y1="283.45825623" x2="264.5" y2="305.10889132"/>
    <line x1="127.0" y1="196.85571585" x2="114.5" y2="218.50635095"/>
    <line x1="127.0" y1="196.85571585" x2="152.0" y2="196.85571585"/>
    <line x1="77.0" y1="110.25317547" x2="89.5" y2="131.90381057"/>
    <line x1="202.0" y1="110.25317547" x2="227.0" y2="110.25317547"/>
    <line x1="202.0" y1="110.25317547" x2="189.5" y2="131.90381057"/>
    <line x1="152.0" y1="370.06079661" x2="164.5" y2="391.7114317"/>
    <line x1="89.5" y1="305.10889132" x2="77.0" y2="326.75952642"/>
    <line x1="89.5" y1="305.10889132" x2="114.5" y2="305.10889132"/>
    <line x1="227.0" y1="283.45825623" x2="239.5" y2="305.10889132"/>
    <line x1="164.5" y1="218.50635095" x2="189.5" y2="218.50635095"/>
    <line x1="164.5" y1="218.50635095" x2="152.0" y2="240.15698604"/>
    <line x1="239.5" y1="478.31397208" x2="264.5" y2="478.31397208"/>
    <line x1="189.5" y1="391.7114317" x2="202.0" y2="413.3620668"/>
    <line x1="127.0" y1="326.75952642" x2="114.5" y2="348.41016151"/>
    <line x1="127.0" y1="326.75952642" x2="152.0" y2="326.75952642"/>
    <line x1="314.5" y1="391.7114317" x2="302.0" y2="413.3620668"/>
    <line x1="264.5" y1="305.10889132" x2="277.0" y2="326.75952642"/>
    <line x1="52.0" y1="153.55444566" x2="39.5" y2="175.20508076"/>
    <line x1="52.0" y1="153.55444566" x2="77.0" y2="153.55444566"/>
    <line x1="2.0" y1="66.95190528" x2="14.5" y2="88.60254038"/>
    <line x1="127.0" y1="66.95190528" x2="114.5" y2="88.60254038"/>
    <line x1="127.0" y1="66.95190528" x2="152.0" y2="66.95190528"/>
    <line x1="77.0" y1="326.75952642" x2="89.5" y2="348.41016151"/>
    <line x1="152.0" y1="240.15698604" x2="164.5" y2="261.80762114"/>
    <line x1="27.0" y1="23.65063509" x2="2.0" y2="23.65063509"/>
    <line x1="27.0" y1="23.65063509" x2="14.5" y2="2.0"/>
    <line x1="27.0" y1="23.65063509" x2="39.5" y2="45.30127019"/>
    <line x1="27.0" y1="23.65063509" x2="52.0" y2="23.65063509"/>
    <line x1="27.0" y1="23.65063509" x2="39.5" y2="2.0"/>
    <line x1="27.0" y1="23.65063509" x2="14.5" y2="45.30127019"/>
    <line x1="277.0" y1="240.15698604" x2="302.0" y2="240.15698604"/>
    <line x1="277.0" y1="240.15698604" x2="264.5" y2="261.80762114"/>
    <line x1="227.0" y1="153.55444566" x2="239.5" y2="175.20508076"/>
    <line x1="14.5" y1="2.0" x2="39.5" y2="2.0"/>
    <line x1="14.5" y1="2.0" x2="2.0" y2="23.65063509"/>
    <line x1="202.0" y1="456.66333699" x2="227.0" y2="456.66333699"/>
    <line x1="277.0" y1="370.06079661" x2="302.0" y2="370.06079661"/>
    <line x1="277.0" y1="370.06079661" x2="264.5" y2="391.7114317"/>
    <line x1="14.5" y1="131.90381057" x2="2.0" y2="153.55444566"/>
    <line x1="14.5" y1="131.90381057" x2="39.5" y2="131.90381057"/>
    <line x1="202.0" y1="196.85571585" x2="227.0" y2="196.85571585"/>
    <line x1="202.0" y1="196.85571585" x2="189.5" y2="218.50635095"/>
    <line x1="152.0" y1="110.25317547" x2="164.5" y2="131.90381057"/>
    <line x1="127.0" y1="413.3620668" x2="152.0" y2="413.3620668"/>
    <line x1="264.5" y1="391.7114317" x2="277.0" y2="413.3620668"/>
    <line x1="202.0" y1="326.75952642" x2="227.0" y2="326.75952642"/>
    <line x1="202.0" y1="326.75952642" x2="189.5" y2="348.41016151"/>
    <line x1="2.0" y1="153.55444566" x2="14.5" y2="175.20508076"/>
    <line x1="77.0" y1="66.95190528" x2="89.5" y2="88.60254038"/>
    <line x1="14.5" y1="348.41016151" x2="39.5" y2="348.41016151"/>
    <line x1="152.0" y1="326.75952642" x2="164.5" y2="348.41016151"/>
    <line x1="89.5" y1="261.80762114" x2="114.5" y2="261.80762114"/>
    <line x1="89.5" y1="261.80762114" x2="77.0" y2="283.45825623"/>
    <line x1="227.0" y1="240.15698604" x2="239.5" y2="261.80762114"/>
    <line x1="164.5" y1="175.20508076" x2="189.5" y2="175.20508076"/>
    <line x1="164.5" y1="175.20508076" x2="152.0" y2="196.85571585"/>
    <line x1="14.5" y1="88.60254038" x2="39.5" y2="88.60254038"/>
    <line x1="14.5" y1="88.60254038" x2="2.0" y2="110.25317547"/>
    <line x1="302.0" y1="153.55444566" x2="314.5" y2="175.20508076"/>
    <line x1="239.5" y1="435.01270189" x2="264.5" y2="435.01270189"/>
    <line x1="239.5" y1="435.01270189" x2="227.0" y2="456.66333699"/>
    <line x1="264.5" y1="261.80762114" x2="277.0" y2="283.45825623"/>
    <line x1="27.0" y1="326.75952642" x2="14.5" y2="305.10889132"/>
    <line x1="27.0" y1="326.75952642" x2="39.5" y2="305.10889132"/>
    <line x1="27.0" y1="326.75952642" x2="52.0" y2="326.75952642"/>
    <line x1="27.0" y1="326.75952642" x2="39.5" y2="348.41016151"/>
    <line x1="27.0" y1="326.75952642" x2="2.0" y2="326.75952642"/>
    <line x1="27.0" y1="326.75952642" x2="14.5" y2="348.41016151"/>
    <line x1="277.0" y1="456.66333699" x2="302.0" y2="456.66333699"/>
    <line x1="277.0" y1="456.66333699" x2="264.5" y2="478.31397208"/>
    <line x1="2.0" y1="23.65063509" x2="14.5" y2="45.30127019"/>
    <line x1="77.0" y1="283.45825623" x2="89.5" y2="305.10889132"/>
    <line x1="14.5" y1="218.50635095" x2="39.5" y2="218.50635095"/>
    <line x1="14.5" y1="218.50635095" x2="2.0" y2="240.15698604"/>
    <line x1="152.0" y1="196.85571585" x2="164.5" y2="218.50635095"/>
    <line x1="89.5" y1="131.90381057" x2="114.5" y2="131.90381057"/>
    <line x1="89.5" y1="131.90381057" x2="77.0" y2="153.55444566"/>
    <line x1="277.0" y1="196.85571585" x2="302.0" y2="196.85571585"/>
    <line x1="277.0" y1="196.85571585" x2="264.5" y2="218.50635095"/>
    <line x1="227.0" y1="110.25317547" x2="239.5" y2="131.90381057"/>
    <line x1="177.0" y1="370.06079661" x2="189.5" y2="391.7114317"/>
    <line x1="177.0" y1="370.06079661" x2="164.5" y2="348.41016151"/>
    <line x1="177.0" y1="370.06079661" x2="164.5" y2="391.7114317"/>
    <line x1="177.0" y1="370.06079661" x2="152.0" y2="370.06079661"/>
    <line x1="177.0" y1="370.06079661" x2="189.5" y2="348.41016151"/>
    <line x1="177.0" y1="370.06079661" x2="202.0" y2="370.06079661"/>
    <line x1="39.5" y1="131.90381057" x2="52.0" y2="153.55444566"/>
    <line x1="202.0" y1="413.3620668" x2="227.0" y2="413.3620668"/>
    <line x1="202.0" y1="413.3620668" x2="189.5" y2="435.01270189"/>
    <line x1="114.5" y1="45.30127019" x2="127.0" y2="66.95190528"/>
    <line x1="277.0" y1="326.75952642" x2="264.5" y2="348.41016151"/>
    <line x1="277.0" y1="326.75952642" x2="302.0" y2="326.75952642"/>
    <line x1="89.5" y1="348.41016151" x2="114.5" y2="348.41016151"/>
    <line x1="89.5" y1="348.41016151" x2="77.0" y2="370.06079661"/>
    <line x1="39.5" y1="261.80762114" x2="52.0" y2="283.45825623"/>
  </g>
  <g>
    <g style="fill:blue">
      <circle cx="277.0" cy="283.45825623" r="2.5"/>
      <circle cx="227.0" cy="413.3620668" r="2.5"/>
      <circle cx="127.0" cy="326.75952642" r="2.5"/>
      <circle cx="227.0" cy="370.06079661" r="2.5"/>
      <circle cx="39.5" cy="131.90381057" r="2.5"/>
      <circle cx="114.5" cy="88.60254038" r="2.5"/>
      <circle cx="189.5" cy="175.20508076" r="2.5"/>
      <circle cx="52.0" cy="153.55444566" r="2.5"/>
      <circle cx="202.0" cy="153.55444566" r="2.5"/>
      <circle cx="239.5" cy="391.7114317" r="2.5"/>
      <circle cx="114.5" cy="348.41016151" r="2.5"/>
      <circle cx="127.0" cy="370.06079661" r="2.5"/>
      <circle cx="152.0" cy="326.75952642" r="2.5"/>
      <circle cx="39.5" cy="175.20508076" r="2.5"/>
      <circle cx="189.5" cy="131.90381057" r="2.5"/>
      <circle cx="39.5" cy="88.60254038" r="2.5"/>
      <circle cx="52.0" cy="66.95190528" r="2.5"/>
      <circle cx="202.0" cy="413.3620668" r="2.5"/>
      <circle cx="39.5" cy="218.50635095" r="2.5"/>
      <circle cx="202.0" cy="240.15698604" r="2.5"/>
      <circle cx="127.0" cy="283.45825623" r="2.5"/>
      <circle cx="114.5" cy="261.80762114" r="2.5"/>
      <circle cx="89.5" cy="131.90381057" r="2.5"/>
      <circle cx="277.0" cy="370.06079661" r="2.5"/>
      <circle cx="164.5" cy="175.20508076" r="2.5"/>
      <circle cx="189.5" cy="218.50635095" r="2.5"/>
      <circle cx="77.0" cy="66.95190528" r="2.5"/>
      <circle cx="264.5" cy="305.10889132" r="2.5"/>
      <circle cx="89.5" cy="305.10889132" r="2.5"/>
      <circle cx="164.5" cy="261.80762114" r="2.5"/>
      <circle cx="52.0" cy="110.25317547" r="2.5"/>
      <circle cx="152.0" cy="283.45825623" r="2.5"/>
      <circle cx="239.5" cy="348.41016151" r="2.5"/>
      <circle cx="264.5" cy="435.01270189" r="2.5"/>
      <circle cx="77.0" cy="326.75952642" r="2.5"/>
      <circle cx="152.0" cy="240.15698604" r="2.5"/>
      <circle cx="277.0" cy="413.3620668" r="2.5"/>
      <circle cx="227.0" cy="196.85571585" r="2.5"/>
      <circle cx="164.5" cy="218.50635095" r="2.5"/>
      <circle cx="239.5" cy="175.20508076" r="2.5"/>
      <circle cx="164.5" cy="305.10889132" r="2.5"/>
      <circle cx="277.0" cy="326.75952642" r="2.5"/>
      <circle cx="264.5" cy="348.41016151" r="2.5"/>
      <circle cx="77.0" cy="110.25317547" r="2.5"/>
      <circle cx="114.5" cy="305.10889132" r="2.5"/>
      <circle cx="239.5" cy="435.01270189" r="2.5"/>
      <circle cx="89.5" cy="88.60254038" r="2.5"/>
      <circle cx="52.0" cy="196.85571585" r="2.5"/>
      <circle cx="77.0" cy="153.55444566" r="2.5"/>
      <circle cx="189.5" cy="261.80762114" r="2.5"/>
      <circle cx="227.0" cy="153.55444566" r="2.5"/>
      <circle cx="127.0" cy="240.15698604" r="2.5"/>
      <circle cx="89.5" cy="348.41016151" r="2.5"/>
      <circle cx="202.0" cy="196.85571585" r="2.5"/>
      <circle cx="152.0" cy="196.85571585" r="2.5"/>
      <circle cx="264.5" cy="391.7114317" r="2.5"/>
    </g>
    <g style="fill:dark_blue">
      <circle cx="289.5" cy="478.31397208" r="2.5"/>
      <circle cx="102.0" cy="196.85571585" r="2.5"/>
      <circle cx="139.5" cy="131.90381057" r="2.5"/>
      <circle cx="289.5" cy="175.20508076" r="2.5"/>
      <circle cx="177.0" cy="370.06079661" r="2.5"/>
      <circle cx="27.0" cy="23.65063509" r="2.5"/>
      <circle cx="214.5" cy="305.10889132" r="2.5"/>
      <circle cx="27.0" cy="326.75952642" r="2.5"/>
      <circle cx="252.0" cy="240.15698604" r="2.5"/>
      <circle cx="64.5" cy="261.80762114" r="2.5"/>
    </g>
    <g style="fill:cyan">
      <circle cx="202.0" cy="326.75952642" r="2.5"/>
      <circle cx="114.5" cy="131.90381057" r="2.5"/>
      <circle cx="127.0" cy="110.25317547" r="2.5"/>
      <circle cx="39.5" cy="261.80762114" r="2.5"/>
      <circle cx="39.5" cy="45.30127019" r="2.5"/>
      <circle cx="52.0" cy="240.15698604" r="2.5"/>
      <circle cx="114.5" cy="218.50635095" r="2.5"/>
      <circle cx="227.0" cy="283.45825623" r="2.5"/>
      <circle cx="127.0" cy="196.85571585" r="2.5"/>
      <circle cx="114.5" cy="175.20508076" r="2.5"/>
      <circle cx="164.5" cy="348.41016151" r="2.5"/>
      <circle cx="239.5" cy="305.10889132" r="2.5"/>
      <circle cx="227.0" cy="326.75952642" r="2.5"/>
      <circle cx="277.0" cy="196.85571585" r="2.5"/>
      <circle cx="277.0" cy="456.66333699" r="2.5"/>
      <circle cx="89.5" cy="218.50635095" r="2.5"/>
      <circle cx="52.0" cy="326.75952642" r="2.5"/>
      <circle cx="152.0" cy="370.06079661" r="2.5"/>
      <circle cx="39.5" cy="305.10889132" r="2.5"/>
      <circle cx="264.5" cy="175.20508076" r="2.5"/>
      <circle cx="152.0" cy="153.55444566" r="2.5"/>
      <circle cx="89.5" cy="175.20508076" r="2.5"/>
      <circle cx="189.5" cy="348.41016151" r="2.5"/>
      <circle cx="164.5" cy="131.90381057" r="2.5"/>
      <circle cx="239.5" cy="218.50635095" r="2.5"/>
      <circle cx="77.0" cy="196.85571585" r="2.5"/>
      <circle cx="227.0" cy="240.15698604" r="2.5"/>
      <circle cx="164.5" cy="391.7114317" r="2.5"/>
      <circle cx="77.0" cy="283.45825623" r="2.5"/>
      <circle cx="89.5" cy="261.80762114" r="2.5"/>
      <circle cx="264.5" cy="218.50635095" r="2.5"/>
      <circle cx="239.5" cy="261.80762114" r="2.5"/>
      <circle cx="127.0" cy="153.55444566" r="2.5"/>
      <circle cx="152.0" cy="110.25317547" r="2.5"/>
      <circle cx="202.0" cy="370.06079661" r="2.5"/>
      <circle cx="277.0" cy="240.15698604" r="2.5"/>
      <circle cx="189.5" cy="391.7114317" r="2.5"/>
      <circle cx="77.0" cy="240.15698604" r="2.5"/>
      <circle cx="264.5" cy="261.80762114" r="2.5"/>
      <circle cx="52.0" cy="283.45825623" r="2.5"/>
      <circle cx="202.0" cy="283.45825623" r="2.5"/>
      <circle cx="189.5" cy="305.10889132" r="2.5"/>
    </g>
  </g>
</svg>