<?xml version='1.0' encoding='UTF-8'?>
<svg version="1.1" xmlns="http://www.w3.org/2000/svg">
  <g style="stroke:black">
    <line x1="87.67627458" y1="64.24745712" x2="67.45084972" y2="78.94208843"/>
    <line x1="14.5" y1="40.47104421" x2="22.22542486" y2="16.69463131"/>
    <line x1="42.45084972" y1="78.94208843" x2="67.45084972" y2="78.94208843"/>
    <line x1="67.45084972" y1="78.94208843" x2="75.17627458" y2="102.71850134"/>
    <line x1="75.17627458" y1="102.71850134" x2="54.95084972" y2="117.41313264"/>
    <line x1="22.22542486" y1="16.69463131" x2="42.45084972" y2="2.0"/>
    <line x1="54.95084972" y1="117.41313264" x2="34.72542486" y2="102.71850134"/>
    <line x1="42.45084972" y1="2.0" x2="67.45084972" y2="2.0"/>
    <line x1="67.45084972" y1="2.0" x2="87.67627458" y2="16.69463131"/>
    <line x1="87.67627458" y1="16.69463131" x2="95.40169944" y2="40.47104421"/>
    <line x1="34.72542486" y1="102.71850134" x2="42.45084972" y2="78.94208843"/>
    <line x1="34.72542486" y1="102.71850134" x2="9.72542486" y2="102.71850134"/>
    <line x1="9.72542486" y1="102.71850134" x2="2.0" y2="78.94208843"/>
    <line x1="2.0" y1="78.94208843" x2="22.22542486" y2="64.24745712"/>
    <line x1="95.40169944" y1="40.47104421" x2="87.67627458" y2="64.24745712"/>
    <line x1="22.22542486" y1="64.24745712" x2="42.45084972" y2="78.94208843"/>
    <line x1="22.22542486" y1="64.24745712" x2="14.5" y2="40.47104421"/>
  </g>
  <g style="fill:red">
    <text x="31.72542486" y="105.21850134">5</text>
    <text x="19.22542486" y="19.19463131">10</text>
    <text x="92.40169944" y="42.97104421">14</text>
    <text x="39.45084972" y="81.44208843">1</text>
    <text x="6.72542486" y="105.21850134">6</text>
    <text x="11.5" y="42.97104421">9</text>
    <text x="84.67627458" y="19.19463131">13</text>
    <text x="64.45084972" y="81.44208843">2</text>
    <text x="64.45084972" y="4.5">12</text>
    <text x="-1.0" y="81.44208843">7</text>
    <text x="72.17627458" y="105.21850134">3</text>
    <text x="39.45084972" y="4.5">11</text>
    <text x="19.22542486" y="66.74745712">8</text>
    <text x="51.95084972" y="119.91313264">4</text>
    <text x="84.67627458" y="66.74745712">15</text>
  </g>
</svg>