<?xml version='1.0' encoding='UTF-8'?>
<svg version="1.1" xmlns="http://www.w3.org/2000/svg">
  <g style="stroke:black">
    <line x1="87.67627458" y1="64.24745712" x2="67.45084972" y2="78.94208843"/>
    <line x1="14.5" y1="40.47104421" x2="22.22542486" y2="16.69463131"/>
    <line x1="42.45084972" y1="78.94208843" x2="67.45084972" y2="78.94208843"/>
    <line x1="67.45084972" y1="78.94208843" x2="75.17627458" y2="102.71850134"/>
    <line x1="75.17627458" y1="102.71850134" x2="54.95084972" y2="117.41313264"/>
    <line x1="22.22542486" y1="16.69463131" x2="42.45084972" y2="2.0"/>
    <line x1="54.95084972" y1="117.41313264" x2="34.72542486" y2="102.71850134"/>
    <line x1="42.45084972" y1="2.0" x2="67.45084972" y2="2.0"/>
    <line x1="67.45084972" y1="2.0" x2="87.67627458" y2="16.69463131"/>
    <line x1="87.67627458" y1="16.69463131" x2="95.40169944" y2="40.47104421"/>
    <line x1="34.72542486" y1="102.71850134" x2="42.45084972" y2="78.94208843"/>
    <line x1="34.72542486" y1="102.71850134" x2="9.72542486" y2="102.71850134"/>
    <line x1="9.72542486" y1="102.71850134" x2="2.0" y2="78.94208843"/>
    <line x1="2.0" y1="78.94208843" x2="22.22542486" y2="64.24745712"/>
    <line x1="95.40169944" y1="40.47104421" x2="87.67627458" y2="64.24745712"/>
    <line x1="22.22542486" y1="64.24745712" x2="42.45084972" y2="78.94208843"/>
    <line x1="22.22542486" y1="64.24745712" x2="14.5" y2="40.47104421"/>
  </g>
  <g>
    <g style="fill:hotpink">
      <polygon 
      style="stroke:none" points="75.17627458,102.71850134 54.95084972,117.41313264 34.72542486,102.71850134 42.45084972,78.94208843 67.45084972,78.94208843">
</polygon>
      <polygon 
      style="stroke:none" points="34.72542486,102.71850134 9.72542486,102.71850134 2.0,78.94208843 22.22542486,64.24745712 42.45084972,78.94208843">
</polygon>
    </g>
    <g style="fill:lightpink">
      <polygon 
      style="stroke:none" points="67.45084972,78.94208843 42.45084972,78.94208843 22.22542486,64.24745712 14.5,40.47104421 22.22542486,16.69463131 42.45084972,2.0 67.45084972,2.0 87.67627458,16.69463131 95.40169944,40.47104421 87.67627458,64.24745712">
</polygon>
    </g>
  </g>
</svg>